<svg id="Calque_1" data-name="Calque 1" xmlns="http://www.w3.org/2000/svg" viewBox="0 0 265.13 80.3"><defs><style>.cls-1{fill:#fff;}</style></defs><title>ON-logo-02-blanc</title><path class="cls-1" d="M61.37,40.6a6.9,6.9,0,0,0,3.18-.75,7.26,7.26,0,0,0,2.43-2l3.58,2.79a11.9,11.9,0,0,1-4,3.28,11.74,11.74,0,0,1-9.72.32,11.92,11.92,0,0,1-3.73-2.5A11.72,11.72,0,0,1,50.61,38a11.41,11.41,0,0,1-.91-4.55A11.22,11.22,0,0,1,50.61,29a11.77,11.77,0,0,1,6.25-6.21,11.53,11.53,0,0,1,13.7,3.6L67,29.15a7,7,0,0,0-2.43-2,7.16,7.16,0,0,0-8.22,1.34,7.06,7.06,0,0,0-1.53,2.26,7.13,7.13,0,0,0,0,5.49,7.06,7.06,0,0,0,1.53,2.26A7.18,7.18,0,0,0,58.6,40,6.83,6.83,0,0,0,61.37,40.6Z"/><path class="cls-1" d="M91.06,35H82.18a7.11,7.11,0,0,0,.9,2.23,6.93,6.93,0,0,0,1.57,1.79,7.23,7.23,0,0,0,2.08,1.18,7,7,0,0,0,2.43.41A6.73,6.73,0,0,0,92.05,40a7.29,7.29,0,0,0,2.37-1.72h5.35a8.33,8.33,0,0,1-.65,1.26q-.37.6-.81,1.17a11.7,11.7,0,0,1-4,3.25,11.22,11.22,0,0,1-5.17,1.22A11.66,11.66,0,0,1,78.4,38.08a11.83,11.83,0,0,1,0-9.1,11.56,11.56,0,0,1,2.5-3.71,11.4,11.4,0,0,1,3.71-2.5,11.52,11.52,0,0,1,4.55-.91,11.22,11.22,0,0,1,5.17,1.22,11.47,11.47,0,0,1,4,3.29,11.11,11.11,0,0,1,2.12,4.15,11.34,11.34,0,0,1,.4,3,8,8,0,0,1-.14,1.5H91.06Zm-1.9-8.61a7,7,0,0,0-3.87,1.11,7.22,7.22,0,0,0-2.58,2.95h12.9c-.15-.23-.29-.46-.42-.7a7.39,7.39,0,0,0-.42-.66,7.31,7.31,0,0,0-2.47-2A7,7,0,0,0,89.16,26.42Z"/><path class="cls-1" d="M118.92,21.86a11.35,11.35,0,0,1,4.57.93,12.37,12.37,0,0,1,3.75,2.52,11.69,11.69,0,0,1,2.53,3.76,11.48,11.48,0,0,1,.93,4.59V45.11h-4.55V43a13,13,0,0,1-3.32,1.79,11.74,11.74,0,0,1-8.46-.27,11.84,11.84,0,0,1-6.25-6.25,11.4,11.4,0,0,1-.93-4.58,11.65,11.65,0,0,1,.92-4.59,11.76,11.76,0,0,1,6.25-6.28A11.27,11.27,0,0,1,118.92,21.86Zm0,19a7,7,0,0,0,2.81-.58A7.57,7.57,0,0,0,124,38.73a7.44,7.44,0,0,0,1.54-2.29,6.73,6.73,0,0,0,.58-2.78,6.84,6.84,0,0,0-.58-2.82A7.33,7.33,0,0,0,121.75,27a7.19,7.19,0,0,0-5.61,0,7.4,7.4,0,0,0-3.83,3.85,7,7,0,0,0-.57,2.82,6.88,6.88,0,0,0,.57,2.78,7.47,7.47,0,0,0,1.55,2.29,7.57,7.57,0,0,0,2.28,1.56A6.91,6.91,0,0,0,118.94,40.87Z"/><path class="cls-1" d="M147.61,21.86a10.29,10.29,0,0,1,5.64,1.69,10.38,10.38,0,0,1,3.34,3.66,10,10,0,0,1,1.23,4.9v13h-4.57v-13a5.43,5.43,0,0,0-.45-2.19,5.55,5.55,0,0,0-1.22-1.82,5.61,5.61,0,0,0-1.81-1.22,5.35,5.35,0,0,0-2.18-.45h0a5.35,5.35,0,0,0-2.18.45,5.77,5.77,0,0,0-3,3,5.43,5.43,0,0,0-.44,2.19v13h-4.57v-13a10,10,0,0,1,1.23-4.9,10.38,10.38,0,0,1,3.34-3.66,9.85,9.85,0,0,1,2.64-1.24,10,10,0,0,1,3-.45,10.24,10.24,0,0,1,3,.45"/><path class="cls-1" d="M23.13,65.15V59.92H16v5.23h-.83V54H16v5.16h7.14V54H24V65.15Z"/><path class="cls-1" d="M30.8,65.43c-.72,1.71-1.55,2.31-2.71,2.31a3.64,3.64,0,0,1-1.61-.35l.27-.68a2.92,2.92,0,0,0,1.39.3c.84,0,1.4-.49,2-1.91L26.24,57h.91l3.38,7.27L33.46,57h.86Z"/><path class="cls-1" d="M42.85,65.15V63.33a3.93,3.93,0,0,1-3.35,2,4,4,0,0,1-4-4.23v0a4.06,4.06,0,0,1,4-4.25,3.91,3.91,0,0,1,3.35,1.94V53.51h.78V65.15Zm0-4.08a3.4,3.4,0,0,0-3.32-3.49,3.18,3.18,0,0,0-3.18,3.47v0a3.27,3.27,0,0,0,3.18,3.51A3.41,3.41,0,0,0,42.9,61.1Z"/><path class="cls-1" d="M50.9,57.75c-1.88,0-3.52,1.42-3.52,4.06v3.34H46.6V57h.78v2.31A3.85,3.85,0,0,1,51,56.89v.86Z"/><path class="cls-1" d="M56.18,65.34A4.16,4.16,0,0,1,52,61.11v0a4.19,4.19,0,0,1,4.19-4.25,4.15,4.15,0,0,1,4.16,4.22v0A4.2,4.2,0,0,1,56.18,65.34Zm3.35-4.26a3.41,3.41,0,0,0-3.35-3.52,3.36,3.36,0,0,0-3.32,3.49v0a3.41,3.41,0,0,0,3.35,3.52,3.35,3.35,0,0,0,3.32-3.49Z"/><path class="cls-1" d="M65.41,65.31a5.57,5.57,0,0,1-3.33-1.18l.46-.63a4.74,4.74,0,0,0,2.92,1.07c1.1,0,2-.6,2-1.54v0c0-1-1-1.3-2.16-1.62-1.32-.38-2.78-.78-2.78-2.23v0a2.39,2.39,0,0,1,2.67-2.25,5.49,5.49,0,0,1,2.89.89l-.42.65a4.7,4.7,0,0,0-2.5-.81c-1.11,0-1.85.61-1.85,1.42v0c0,.91,1.1,1.25,2.27,1.58s2.67.84,2.67,2.28v0A2.52,2.52,0,0,1,65.41,65.31Z"/><path class="cls-1" d="M74.83,65.34a3.91,3.91,0,0,1-3.35-2V67.7H70.7V57h.78v1.81a3.94,3.94,0,0,1,3.35-2,4,4,0,0,1,4,4.22v0A4.07,4.07,0,0,1,74.83,65.34Zm3.11-4.26a3.27,3.27,0,0,0-3.19-3.5,3.4,3.4,0,0,0-3.32,3.49v0a3.4,3.4,0,0,0,3.32,3.49,3.18,3.18,0,0,0,3.19-3.48Z"/><path class="cls-1" d="M87.41,65.15V60.32a2.49,2.49,0,0,0-2.59-2.78A2.79,2.79,0,0,0,82,60.44v4.71h-.78V53.51H82v5a3.19,3.19,0,0,1,2.94-1.7,3.09,3.09,0,0,1,3.25,3.34v5Z"/><path class="cls-1" d="M94.45,64.6a3.64,3.64,0,0,0,2.79-1.27l.54.48a4.28,4.28,0,0,1-3.36,1.53,4,4,0,0,1-4-4.24v0a4,4,0,0,1,3.85-4.24c2.28,0,3.73,1.85,3.73,4.25v0c0,.12,0,.16,0,.29H91.27A3.22,3.22,0,0,0,94.45,64.6Zm2.73-3.9c-.11-1.64-1.05-3.16-2.92-3.16a3.16,3.16,0,0,0-3,3.16Z"/><path class="cls-1" d="M104.61,57.75c-1.88,0-3.53,1.42-3.53,4.06v3.34h-.78V57h.78v2.31a3.86,3.86,0,0,1,3.61-2.44v.86Z"/><path class="cls-1" d="M109.74,64.6a3.64,3.64,0,0,0,2.79-1.27l.54.48a4.28,4.28,0,0,1-3.36,1.53,4,4,0,0,1-4-4.24v0a4,4,0,0,1,3.86-4.24c2.28,0,3.73,1.85,3.73,4.25v0a1.46,1.46,0,0,1,0,.29h-6.74A3.23,3.23,0,0,0,109.74,64.6Zm2.72-3.9c-.11-1.64-1-3.16-2.91-3.16a3.18,3.18,0,0,0-3,3.16Z"/><path class="cls-1" d="M124.26,65.15h-3.71V54h3.71c3.51,0,5.93,2.41,5.93,5.55v0A5.59,5.59,0,0,1,124.26,65.15Zm5.07-5.58a4.77,4.77,0,0,0-5.07-4.82h-2.88v9.63h2.88a4.73,4.73,0,0,0,5.07-4.78Z"/><path class="cls-1" d="M138.42,65.15V63.79a3.7,3.7,0,0,1-3.11,1.55c-1.51,0-3.14-.86-3.14-2.55v0c0-1.69,1.45-2.65,3.55-2.65a9.68,9.68,0,0,1,2.7.35v-.35c0-1.64-1-2.49-2.68-2.49a5.36,5.36,0,0,0-2.55.66l-.29-.69a6.62,6.62,0,0,1,2.89-.7c2.09,0,3.39,1.08,3.39,3.19v5.07Zm0-4a10.48,10.48,0,0,0-2.75-.37c-1.73,0-2.68.77-2.68,1.9v0c0,1.18,1.11,1.86,2.36,1.86,1.65,0,3.07-1,3.07-2.5Z"/><path class="cls-1" d="M144.62,65.29a2.08,2.08,0,0,1-2.28-2.23V57.73h-1.18V57h1.18v-2.6h.78V57H146v.71h-2.85V63a1.43,1.43,0,0,0,1.63,1.58,2.66,2.66,0,0,0,1.19-.29V65A3,3,0,0,1,144.62,65.29Z"/><path class="cls-1" d="M153.86,65.15V63.79a3.68,3.68,0,0,1-3.1,1.55c-1.52,0-3.14-.86-3.14-2.55v0c0-1.69,1.45-2.65,3.55-2.65a9.65,9.65,0,0,1,2.69.35v-.35c0-1.64-1-2.49-2.67-2.49a5.36,5.36,0,0,0-2.55.66l-.29-.69a6.58,6.58,0,0,1,2.88-.7c2.09,0,3.4,1.08,3.4,3.19v5.07Zm0-4a10.56,10.56,0,0,0-2.76-.37c-1.72,0-2.67.77-2.67,1.9v0c0,1.18,1.11,1.86,2.35,1.86,1.66,0,3.08-1,3.08-2.5Z"/><path class="cls-1" d="M170.65,65.37l-1.93-2a4.89,4.89,0,0,1-3.78,1.93,3.15,3.15,0,0,1-3.42-3.11c0-1.52,1.06-2.62,2.88-3.29a3.68,3.68,0,0,1-1.24-2.56A2.6,2.6,0,0,1,166,53.8a2.47,2.47,0,0,1,2.56,2.44c0,1.42-1,2.31-2.74,2.9l2.93,3a14.09,14.09,0,0,0,1.45-2.71l.75.3a16.1,16.1,0,0,1-1.65,3l2.05,2.12Zm-5.75-6c-1.77.61-2.55,1.65-2.55,2.75A2.45,2.45,0,0,0,165,64.59a4.26,4.26,0,0,0,3.23-1.76Zm1-4.92A1.82,1.82,0,0,0,164,56.32c0,.71.3,1.26,1.29,2.31,1.59-.51,2.4-1.28,2.4-2.36A1.73,1.73,0,0,0,165.92,54.5Z"/><path class="cls-1" d="M186.92,65.15l-7.85-9.92v9.92h-.8V54h.78l7.7,9.71V54h.8V65.15Z"/><path class="cls-1" d="M196.71,65.15V63.63a3.18,3.18,0,0,1-2.93,1.71A3.1,3.1,0,0,1,190.53,62V57h.78v4.83a2.48,2.48,0,0,0,2.58,2.77,2.78,2.78,0,0,0,2.82-2.9V57h.78v8.13Z"/><path class="cls-1" d="M212,65.15V60.32c0-1.76-.91-2.78-2.41-2.78A2.63,2.63,0,0,0,207,60.41v4.74h-.78V60.27c0-1.69-.92-2.73-2.37-2.73a2.75,2.75,0,0,0-2.6,2.92v4.69h-.78V57h.78v1.45A3,3,0,0,1,204,56.83a2.92,2.92,0,0,1,2.74,1.75,3.22,3.22,0,0,1,2.93-1.75,3.06,3.06,0,0,1,3.13,3.39v4.93Z"/><path class="cls-1" d="M219.08,64.6a3.64,3.64,0,0,0,2.79-1.27l.54.48a4.28,4.28,0,0,1-3.36,1.53,4,4,0,0,1-4-4.24v0a4,4,0,0,1,3.86-4.24c2.28,0,3.73,1.85,3.73,4.25v0a1.46,1.46,0,0,1,0,.29h-6.74A3.22,3.22,0,0,0,219.08,64.6Zm2.72-3.9c-.11-1.64-1.05-3.16-2.91-3.16a3.17,3.17,0,0,0-3,3.16Z"/><path class="cls-1" d="M229.23,57.75c-1.88,0-3.52,1.42-3.52,4.06v3.34h-.78V57h.78v2.31a3.85,3.85,0,0,1,3.6-2.44v.86Z"/><path class="cls-1" d="M231.32,54.9V53.83h1V54.9Zm.1,10.25V57h.78v8.13Z"/><path class="cls-1" d="M238.86,65.34a4.19,4.19,0,0,1-4.14-4.23v0a4.21,4.21,0,0,1,4.14-4.25,4.27,4.27,0,0,1,3.25,1.49l-.56.58a3.64,3.64,0,0,0-2.71-1.34,3.36,3.36,0,0,0-3.28,3.49v0a3.42,3.42,0,0,0,3.35,3.52,3.62,3.62,0,0,0,2.72-1.35l.55.48A4.2,4.2,0,0,1,238.86,65.34Z"/><path class="cls-1" d="M247,65.31a5.57,5.57,0,0,1-3.33-1.18l.46-.63a4.73,4.73,0,0,0,2.91,1.07c1.1,0,2-.6,2-1.54v0c0-1-1-1.3-2.15-1.62-1.32-.38-2.79-.78-2.79-2.23v0a2.39,2.39,0,0,1,2.68-2.25,5.55,5.55,0,0,1,2.89.89l-.42.65a4.7,4.7,0,0,0-2.5-.81c-1.12,0-1.85.61-1.85,1.42v0c0,.91,1.1,1.25,2.26,1.58,1.31.37,2.68.84,2.68,2.28v0A2.52,2.52,0,0,1,247,65.31Z"/><path class="cls-1" d="M174.4,12.61a10,10,0,0,1,3,.45A9.85,9.85,0,0,1,180,14.3,10.38,10.38,0,0,1,183.38,18a10,10,0,0,1,1.23,4.9v22.3H180V22.86a5.46,5.46,0,0,0-.44-2.19,5.77,5.77,0,0,0-3-3,5.35,5.35,0,0,0-2.18-.45h0a5.4,5.4,0,0,0-2.19.45,5.68,5.68,0,0,0-1.8,1.22,5.55,5.55,0,0,0-1.22,1.82,5.47,5.47,0,0,0-.45,2.19v22.3h-4.57V22.86a10,10,0,0,1,1.23-4.9,10.38,10.38,0,0,1,3.34-3.66,10.29,10.29,0,0,1,5.64-1.69,10.2,10.2,0,0,1,3,.45"/><path class="cls-1" d="M204.58,34.91h-8.92a7.19,7.19,0,0,0,.91,2.24,7,7,0,0,0,1.57,1.8,7.29,7.29,0,0,0,2.09,1.18,7.07,7.07,0,0,0,2.44.42,6.93,6.93,0,0,0,2.9-.62A7.4,7.4,0,0,0,208,38.2h5.37a7.51,7.51,0,0,1-.65,1.26c-.25.4-.52.79-.82,1.18a11.67,11.67,0,0,1-4,3.26,11.78,11.78,0,0,1-9.76.31A11.74,11.74,0,0,1,191.86,38a11.93,11.93,0,0,1,0-9.14,11.72,11.72,0,0,1,6.24-6.24,11.61,11.61,0,0,1,4.57-.91,11.33,11.33,0,0,1,5.19,1.22,11.58,11.58,0,0,1,4,3.31,11.41,11.41,0,0,1,2.53,7.19,8,8,0,0,1-.13,1.5h-9.67Zm-1.91-8.65a7,7,0,0,0-3.88,1.12,7.29,7.29,0,0,0-2.6,3h13c-.15-.23-.29-.46-.43-.7a7.39,7.39,0,0,0-.42-.66,7.26,7.26,0,0,0-2.48-2A6.94,6.94,0,0,0,202.67,26.26Z"/><path class="cls-1" d="M231.07,33.58,238.75,45h-5.46l-5-7.37L223.39,45h-5.45l7.67-11.45-8-11.93h5.45l5.24,7.85,5.28-7.85h5.46Z"/><path class="cls-1" d="M245.4,12.61H250v9h4.26v4.57H250v19H245.4Z"/><path class="cls-1" d="M27.15,12.56a15.87,15.87,0,0,1,6.37,1.29A16.42,16.42,0,0,1,43.45,29a16,16,0,0,1-1.27,6.37,16.61,16.61,0,0,1-3.47,5.21,16.41,16.41,0,0,1-5.19,3.51,15.71,15.71,0,0,1-6.37,1.3,15.54,15.54,0,0,1-6.34-1.3,16.39,16.39,0,0,1-5.16-3.51,16.64,16.64,0,0,1-3.48-5.21A16.21,16.21,0,0,1,10.9,29a16.47,16.47,0,0,1,4.75-11.66,16.25,16.25,0,0,1,5.16-3.52A15.69,15.69,0,0,1,27.15,12.56Zm0,28.27a10.58,10.58,0,0,0,4.39-.93,11.65,11.65,0,0,0,3.61-2.53,12.23,12.23,0,0,0,2.42-12.95,12,12,0,0,0-2.42-3.79,11.57,11.57,0,0,0-3.61-2.56,10.58,10.58,0,0,0-4.39-.93,10.44,10.44,0,0,0-4.36.93,11.56,11.56,0,0,0-3.58,2.56,11.85,11.85,0,0,0-2.43,3.79A12.09,12.09,0,0,0,15.89,29a11.92,11.92,0,0,0,.89,4.59,11.7,11.7,0,0,0,6,6.28A10.44,10.44,0,0,0,27.15,40.83Z"/></svg>