<svg id="Calque_1" data-name="Calque 1" xmlns="http://www.w3.org/2000/svg" viewBox="0 0 125.64 100.63"><defs><style>.cls-1{fill:#fff;}</style></defs><title>ON-logo-01-blanc</title><path class="cls-1" d="M111.81,20.67l-4.28-3.09a.11.11,0,0,0-.16,0l-4,6a7.22,7.22,0,0,1-11.57.81,39.07,39.07,0,0,0-7.69-6.8,39.48,39.48,0,0,0-13.83-5.76,38.13,38.13,0,0,0-15.49,0,37.44,37.44,0,0,0-14.19,6,39.25,39.25,0,0,0-16,40.31,9.1,9.1,0,0,1-1.33,6.91L13.8,79.54a.12.12,0,0,0,0,.16l4.25,3.15a.12.12,0,0,0,.16,0L22.06,77a7.2,7.2,0,0,1,5.57-3.3l.49,0a7.22,7.22,0,0,1,5.49,2.52A38.85,38.85,0,0,0,41.32,83,39.27,39.27,0,0,0,55.1,88.79a37.6,37.6,0,0,0,15.42,0,38,38,0,0,0,14.26-6.05,38.88,38.88,0,0,0,16.13-24.58,38.55,38.55,0,0,0-.08-15.5,9.7,9.7,0,0,1,1.41-7.33l9.6-14.51A.11.11,0,0,0,111.81,20.67ZM32.91,46.24a5.82,5.82,0,0,1-1.82-5.94c.22-.92.42-1.61.59-2.11a34.69,34.69,0,0,1,3.33-7h0a33.28,33.28,0,0,1,8.75-9.38,30.8,30.8,0,0,1,12.05-5.26A31.31,31.31,0,0,1,69,16.68a33.26,33.26,0,0,1,11.79,5.2,35.44,35.44,0,0,1,9.1,9.36l0,.06a11.3,11.3,0,0,1-1.31,14.05,18.67,18.67,0,0,1-3.11,2.56,19.28,19.28,0,0,1-6.86,2.85,19.48,19.48,0,0,1-3.88.38,20.42,20.42,0,0,1-3.47-.3A18.75,18.75,0,0,1,64.24,48a24.44,24.44,0,0,0-6.63-3.11A24.44,24.44,0,0,0,39,46.81,5.48,5.48,0,0,1,32.91,46.24ZM95.17,57.58a34.64,34.64,0,0,1-4.7,11.9,33.73,33.73,0,0,1-8.83,9.32,31.35,31.35,0,0,1-12.08,5.26,31.67,31.67,0,0,1-6.32.64,30.09,30.09,0,0,1-6.82-.77,33.82,33.82,0,0,1-11.7-5.13,34.92,34.92,0,0,1-9.08-9.25c-.5-.74-1-1.52-1.42-2.31a8.77,8.77,0,0,1,.37-9.15A19,19,0,0,1,40,52.69a19.52,19.52,0,0,1,6.86-2.84,19.74,19.74,0,0,1,7.35-.08,18.58,18.58,0,0,1,7.05,2.84,24.74,24.74,0,0,0,6.63,3.11,23.77,23.77,0,0,0,7,1A25.44,25.44,0,0,0,86.48,53.8c.61-.32,1.21-.68,1.79-1.06a4.58,4.58,0,0,1,5.63.52A4.7,4.7,0,0,1,95.17,57.58Z"/></svg>