<?xml version="1.0" encoding="UTF-8" standalone="no"?>
<svg
   xmlns:dc="http://purl.org/dc/elements/1.1/"
   xmlns:cc="http://creativecommons.org/ns#"
   xmlns:rdf="http://www.w3.org/1999/02/22-rdf-syntax-ns#"
   xmlns:svg="http://www.w3.org/2000/svg"
   xmlns="http://www.w3.org/2000/svg"
   viewBox="0 0 244.03226 212.32812"
   height="212.32812"
   width="244.03226"
   xml:space="preserve"
   version="1.1"
   id="svg2"><metadata
     id="metadata8"><rdf:RDF><cc:Work
         rdf:about=""><dc:format>image/svg+xml</dc:format><dc:type
           rdf:resource="http://purl.org/dc/dcmitype/StillImage" /><dc:title></dc:title></cc:Work></rdf:RDF></metadata><defs
     id="defs6"><clipPath
       id="clipPath16"
       clipPathUnits="userSpaceOnUse"><path
         id="path18"
         d="m 0,841.89 595.28,0 L 595.28,0 0,0 0,841.89 Z" /></clipPath></defs><g
     transform="matrix(1.25,0,0,-1.25,-250.03363,632.34525)"
     id="g10"><g
       id="g12"><g
         clip-path="url(#clipPath16)"
         id="g14"><g
           transform="translate(322.6025,411.7592)"
           id="g20"><path
             id="path22"
             style="fill:#165096;fill-opacity:1;fill-rule:nonzero;stroke:none"
             d="m 0,0 c -13.421,0.195 -28.375,11.81 -28.375,30.894 l 0,63.223 -4.458,0 0,-33.685 c -19.345,-4.197 -33.749,-20.225 -33.749,-39.416 0,-22.345 19.561,-40.466 43.74,-40.466 18.376,0 34.06,10.532 40.541,25.434 C 13.561,2.389 6.451,-0.082 0,0" /></g><g
           transform="translate(300.0371,473.2509)"
           id="g24"><path
             id="path26"
             style="fill:#165096;fill-opacity:1;fill-rule:nonzero;stroke:none"
             d="M 0,0 C 1.848,0.222 24.264,-0.074 37.354,-19.898 41.768,-26.575 37.468,-34.914 24.187,-35.362 19.452,-35.509 2.515,-31.212 0,0" /></g><g
           transform="translate(271.3896,380.225)"
           id="g28"><path
             id="path30"
             style="fill:#165096;fill-opacity:1;fill-rule:nonzero;stroke:none"
             d="m 0,0 c -11.311,0 -22.75,-4.668 -22.75,-21.47 l 0,-22.741 10.103,0 0,22.583 c 0,11.334 7.313,13.95 12.647,13.95 5.332,0 12.643,-2.616 12.643,-13.95 l 0,-22.583 10.101,0 0,22.741 C 22.744,-4.668 11.307,0 0,0" /></g><g
           transform="translate(200.0269,357.5101)"
           id="g32"><path
             id="path34"
             style="fill:#165096;fill-opacity:1;fill-rule:nonzero;stroke:none"
             d="m 0,0 c 0,-10.685 4.668,-21.496 21.468,-21.496 l 20.555,0 0,7.541 -17.929,0 c -11.338,0 -13.571,8.74 -13.571,13.955 0,5.205 2.233,14.077 13.571,14.077 l 17.929,0 0,7.416 -20.555,0 C 4.668,21.493 0,10.683 0,0" /></g><g
           transform="translate(310.9248,354.0277)"
           id="g36"><path
             id="path38"
             style="fill:#165096;fill-opacity:1;fill-rule:nonzero;stroke:none"
             d="m 0,0 35.175,0 c 0.02,1.206 0,3.191 0,3.191 0,19.142 -12.552,23.006 -23.952,23.006 -16.039,0 -21.978,-11.47 -21.978,-22.104 l -0.01,-0.611 c 0,-10.684 4.675,-21.496 21.476,-21.496 l 23.2,0 0,7.541 -20.574,0 C 3.919,-10.473 0.789,-5.042 0,0 m 24.39,6.505 -24.378,0 c 0,3.675 0.257,13.12 12.074,13.12 14.04,0 12.304,-13.12 12.304,-13.12" /></g><g
           transform="translate(377.5967,360.8676)"
           id="g40"><path
             id="path42"
             style="fill:#165096;fill-opacity:1;fill-rule:nonzero;stroke:none"
             d="m 0,0 -5.675,0 c -5.322,0 -8.638,1.693 -8.638,5.488 0,3.683 2.597,5.178 8.001,5.232 l 22.321,0 0,7.416 -22.237,0 c -9.033,0 -19.271,-1.509 -19.271,-12.65 0,-12.17 13.629,-11.983 17.656,-11.983 l 5.671,0 c 5.324,0 8.639,-1.692 8.639,-5.49 0,-3.678 -2.601,-5.174 -8.006,-5.227 l -22.315,0 0,-7.418 22.237,0 c 9.037,0 19.273,1.508 19.273,12.649 C 17.656,0.193 4.025,0 0,0" /></g><g
           transform="translate(322.6025,411.7592)"
           id="g44"><path
             id="path46"
             style="fill:#165096;fill-opacity:1;fill-rule:nonzero;stroke:none"
             d="m 0,0 c -13.421,0.195 -28.375,11.81 -28.375,30.894 l 0,63.223 -4.458,0 0,-33.685 c -19.345,-4.197 -33.749,-20.225 -33.749,-39.416 0,-22.345 19.561,-40.466 43.74,-40.466 18.376,0 34.06,10.532 40.541,25.434 C 13.561,2.389 6.451,-0.082 0,0" /></g><g
           transform="translate(300.0371,473.2509)"
           id="g48"><path
             id="path50"
             style="fill:#165096;fill-opacity:1;fill-rule:nonzero;stroke:none"
             d="M 0,0 C 1.848,0.222 24.264,-0.074 37.354,-19.898 41.768,-26.575 37.468,-34.914 24.187,-35.362 19.452,-35.509 2.515,-31.212 0,0" /></g><g
           transform="translate(271.3896,380.225)"
           id="g52"><path
             id="path54"
             style="fill:#165096;fill-opacity:1;fill-rule:nonzero;stroke:none"
             d="m 0,0 c -11.311,0 -22.75,-4.668 -22.75,-21.47 l 0,-22.741 10.103,0 0,22.583 c 0,11.334 7.313,13.95 12.647,13.95 5.332,0 12.643,-2.616 12.643,-13.95 l 0,-22.583 10.101,0 0,22.741 C 22.744,-4.668 11.307,0 0,0" /></g><g
           transform="translate(200.0269,357.5101)"
           id="g56"><path
             id="path58"
             style="fill:#165096;fill-opacity:1;fill-rule:nonzero;stroke:none"
             d="m 0,0 c 0,-10.685 4.668,-21.496 21.468,-21.496 l 20.555,0 0,7.541 -17.929,0 c -11.338,0 -13.571,8.74 -13.571,13.955 0,5.205 2.233,14.077 13.571,14.077 l 17.929,0 0,7.416 -20.555,0 C 4.668,21.493 0,10.683 0,0" /></g><g
           transform="translate(310.9248,354.0277)"
           id="g60"><path
             id="path62"
             style="fill:#165096;fill-opacity:1;fill-rule:nonzero;stroke:none"
             d="m 0,0 35.175,0 c 0.02,1.206 0,3.191 0,3.191 0,19.142 -12.552,23.006 -23.952,23.006 -16.039,0 -21.978,-11.47 -21.978,-22.104 l -0.01,-0.611 c 0,-10.684 4.675,-21.496 21.476,-21.496 l 23.2,0 0,7.541 -20.574,0 C 3.919,-10.473 0.789,-5.042 0,0 m 24.39,6.505 -24.378,0 c 0,3.675 0.257,13.12 12.074,13.12 14.04,0 12.304,-13.12 12.304,-13.12" /></g><g
           transform="translate(377.5967,360.8676)"
           id="g64"><path
             id="path66"
             style="fill:#165096;fill-opacity:1;fill-rule:nonzero;stroke:none"
             d="m 0,0 -5.675,0 c -5.322,0 -8.638,1.693 -8.638,5.488 0,3.683 2.597,5.178 8.001,5.232 l 22.321,0 0,7.416 -22.237,0 c -9.033,0 -19.271,-1.509 -19.271,-12.65 0,-12.17 13.629,-11.983 17.656,-11.983 l 5.671,0 c 5.324,0 8.639,-1.692 8.639,-5.49 0,-3.678 -2.601,-5.174 -8.006,-5.227 l -22.315,0 0,-7.418 22.237,0 c 9.037,0 19.273,1.508 19.273,12.649 C 17.656,0.193 4.025,0 0,0" /></g></g></g></g></svg>