<?xml version="1.0" encoding="UTF-8" standalone="no"?>
<svg
   xmlns:dc="http://purl.org/dc/elements/1.1/"
   xmlns:cc="http://creativecommons.org/ns#"
   xmlns:rdf="http://www.w3.org/1999/02/22-rdf-syntax-ns#"
   xmlns:svg="http://www.w3.org/2000/svg"
   xmlns="http://www.w3.org/2000/svg"
   xmlns:xlink="http://www.w3.org/1999/xlink"
   xmlns:sodipodi="http://sodipodi.sourceforge.net/DTD/sodipodi-0.dtd"
   xmlns:inkscape="http://www.inkscape.org/namespaces/inkscape"
   width="373.73438pt"
   height="264.82031pt"
   viewBox="0 0 373.73437 264.82031"
   version="1.2"
   id="svg400"
   sodipodi:docname="Mercator_Ocean.svg"
   inkscape:version="0.92.3 (unknown)">
  <metadata
     id="metadata404">
    <rdf:RDF>
      <cc:Work
         rdf:about="">
        <dc:format>image/svg+xml</dc:format>
        <dc:type
           rdf:resource="http://purl.org/dc/dcmitype/StillImage" />
        <dc:title></dc:title>
      </cc:Work>
    </rdf:RDF>
  </metadata>
  <sodipodi:namedview
     pagecolor="#bcbcbc"
     bordercolor="#666666"
     borderopacity="1"
     objecttolerance="10"
     gridtolerance="10"
     guidetolerance="10"
     inkscape:pageopacity="0"
     inkscape:pageshadow="2"
     inkscape:window-width="1792"
     inkscape:window-height="1001"
     id="namedview402"
     showgrid="false"
     fit-margin-top="8"
     fit-margin-left="8"
     fit-margin-right="8"
     fit-margin-bottom="8"
     inkscape:zoom="1.77"
     inkscape:cx="278.29964"
     inkscape:cy="192.87986"
     inkscape:window-x="0"
     inkscape:window-y="0"
     inkscape:window-maximized="0"
     inkscape:current-layer="svg400" />
  <defs
     id="defs309">
    <filter
       id="alpha"
       filterUnits="objectBoundingBox"
       x="0"
       y="0"
       width="1"
       height="1">
      <feColorMatrix
         type="matrix"
         in="SourceGraphic"
         values="0 0 0 0 1 0 0 0 0 1 0 0 0 0 1 0 0 0 1 0"
         id="feColorMatrix2" />
    </filter>
    <mask
       id="mask0">
      <g
         id="g7"
         style="filter:url(#alpha)">
        <rect
           x="0"
           y="0"
           width="400"
           height="400"
           style="fill:#000000;fill-opacity:0.75;stroke:none"
           id="rect5" />
      </g>
    </mask>
    <clipPath
       id="clip2">
      <path
         d="m 0.128906,0.71875 h 21.09375 V 15.789062 H 0.128906 Z m 0,0"
         id="path10"
         inkscape:connector-curvature="0" />
    </clipPath>
    <clipPath
       id="clip1">
      <rect
         width="22"
         height="16"
         id="rect13"
         x="0"
         y="0" />
    </clipPath>
    <g
       id="surface633"
       clip-path="url(#clip1)">
      <g
         clip-path="url(#clip2)"
         id="g18"
         style="clip-rule:nonzero">
        <path
           style="fill:#283068;fill-opacity:1;fill-rule:nonzero;stroke:none"
           d="m 0.882812,4.605469 7.828126,1.027343 4.953124,-4.914062 -0.148437,5.542969 7.707031,1.011719 -7.804687,2.542968 -0.160157,5.972656 -4.816406,-4.351562 -8.3125,2.707031 5.390625,-5.34375 z m 0,0"
           id="path16"
           inkscape:connector-curvature="0" />
      </g>
    </g>
    <mask
       id="mask1">
      <g
         id="g23"
         style="filter:url(#alpha)">
        <rect
           x="0"
           y="0"
           width="400"
           height="400"
           style="fill:#000000;fill-opacity:0.5;stroke:none"
           id="rect21" />
      </g>
    </mask>
    <clipPath
       id="clip4">
      <path
         d="M 0.0664062,0.984375 H 18.167969 V 13.605469 H 0.0664062 Z m 0,0"
         id="path26"
         inkscape:connector-curvature="0" />
    </clipPath>
    <clipPath
       id="clip3">
      <rect
         width="19"
         height="14"
         id="rect29"
         x="0"
         y="0" />
    </clipPath>
    <g
       id="surface636"
       clip-path="url(#clip3)">
      <g
         clip-path="url(#clip4)"
         id="g34"
         style="clip-rule:nonzero">
        <path
           style="fill:#283068;fill-opacity:1;fill-rule:nonzero;stroke:none"
           d="M 11.859375,13.605469 7.28125,9.882812 0.234375,11.988281 4.496094,7.625 0.0664062,4.023438 7.03125,5.027344 l 3.945312,-4.042969 0.328126,4.660156 6.863281,0.992188 -6.65625,1.984375 z m 0,0"
           id="path32"
           inkscape:connector-curvature="0" />
      </g>
    </g>
    <mask
       id="mask2">
      <g
         id="g39"
         style="filter:url(#alpha)">
        <rect
           x="0"
           y="0"
           width="400"
           height="400"
           style="fill:#000000;fill-opacity:0.25;stroke:none"
           id="rect37" />
      </g>
    </mask>
    <clipPath
       id="clip6">
      <path
         d="M 0.210938,0.589844 H 16.839844 V 12.023438 H 0.210938 Z m 0,0"
         id="path42"
         inkscape:connector-curvature="0" />
    </clipPath>
    <clipPath
       id="clip5">
      <rect
         width="17"
         height="13"
         id="rect45"
         x="0"
         y="0" />
    </clipPath>
    <g
       id="surface639"
       clip-path="url(#clip5)">
      <g
         clip-path="url(#clip6)"
         id="g50"
         style="clip-rule:nonzero">
        <path
           style="fill:#283068;fill-opacity:1;fill-rule:nonzero;stroke:none"
           d="M 11.929688,12.023438 7.386719,8.625 1.285156,10.464844 4.621094,6.554688 0.210938,3.261719 6.605469,4.226562 9.710938,0.589844 10.53125,4.820312 16.839844,5.773438 11.054688,7.515625 Z m 0,0"
           id="path48"
           inkscape:connector-curvature="0" />
      </g>
    </g>
    <mask
       id="mask3">
      <g
         id="g55"
         style="filter:url(#alpha)">
        <rect
           x="0"
           y="0"
           width="400"
           height="400"
           style="fill:#000000;fill-opacity:0.60000598;stroke:none"
           id="rect53" />
      </g>
    </mask>
    <clipPath
       id="clip8">
      <path
         d="M 0.132812,0.683594 H 9.839844 V 14.410156 H 0.132812 Z m 0,0"
         id="path58"
         inkscape:connector-curvature="0" />
    </clipPath>
    <clipPath
       id="clip7">
      <rect
         width="10"
         height="15"
         id="rect61"
         x="0"
         y="0" />
    </clipPath>
    <g
       id="surface642"
       clip-path="url(#clip7)">
      <g
         clip-path="url(#clip8)"
         id="g66"
         style="clip-rule:nonzero">
        <path
           style="fill:#4c4f57;fill-opacity:1;fill-rule:nonzero;stroke:none"
           d="m 7.792969,7.546875 c 0,-0.679687 -0.011719,-1.25 -0.027344,-1.695313 C 7.742188,5.402344 7.707031,5.023438 7.648438,4.710938 7.589844,4.402344 7.511719,4.144531 7.402344,3.933594 7.292969,3.726562 7.160156,3.53125 6.996094,3.355469 6.753906,3.105469 6.460938,2.898438 6.113281,2.75 5.765625,2.597656 5.390625,2.523438 4.988281,2.523438 4.578125,2.523438 4.207031,2.597656 3.855469,2.75 3.507812,2.898438 3.214844,3.105469 2.972656,3.355469 2.8125,3.53125 2.675781,3.726562 2.566406,3.933594 2.457031,4.144531 2.378906,4.402344 2.320312,4.710938 2.265625,5.023438 2.226562,5.402344 2.207031,5.851562 2.1875,6.296875 2.175781,6.867188 2.175781,7.546875 c 0,0.683594 0.011719,1.246094 0.03125,1.699219 0.019531,0.445312 0.058594,0.828125 0.113281,1.132812 0.058594,0.3125 0.136719,0.574219 0.246094,0.78125 0.109375,0.207032 0.246094,0.398438 0.40625,0.578125 0.242188,0.253907 0.535156,0.453125 0.882813,0.605469 0.351562,0.152344 0.722656,0.226562 1.132812,0.226562 0.402344,0 0.777344,-0.07422 1.125,-0.226562 0.347657,-0.152344 0.640625,-0.351562 0.882813,-0.605469 0.164062,-0.179687 0.296875,-0.371093 0.40625,-0.578125 0.109375,-0.207031 0.1875,-0.46875 0.246094,-0.78125 0.058593,-0.304687 0.09375,-0.6875 0.117187,-1.132812 C 7.78125,8.792969 7.792969,8.230469 7.792969,7.546875 m 2.042969,0 c 0,0.644531 -0.00391,1.230469 -0.015626,1.753906 -0.011718,0.523438 -0.054687,1.003907 -0.132812,1.433594 -0.074219,0.425781 -0.203125,0.824219 -0.378906,1.191406 -0.179688,0.367188 -0.429688,0.714844 -0.757813,1.042969 -0.46875,0.472656 -1,0.824219 -1.59375,1.074219 -0.59375,0.246093 -1.25,0.367187 -1.96875,0.367187 -0.722656,0 -1.378906,-0.121094 -1.964843,-0.367187 C 2.433594,13.792969 1.90625,13.441406 1.441406,12.96875 1.109375,12.640625 0.855469,12.292969 0.679688,11.925781 0.5,11.558594 0.371094,11.160156 0.292969,10.734375 0.207031,10.304688 0.164062,9.824219 0.148438,9.300781 0.136719,8.777344 0.132812,8.191406 0.132812,7.546875 c 0,-0.644531 0.003907,-1.230469 0.015626,-1.753906 0.015624,-0.527344 0.058593,-1 0.144531,-1.429688 C 0.371094,3.929688 0.5,3.53125 0.679688,3.164062 0.855469,2.800781 1.109375,2.453125 1.441406,2.125 1.90625,1.65625 2.433594,1.296875 3.023438,1.050781 3.609375,0.808594 4.265625,0.683594 4.988281,0.683594 c 0.71875,0 1.375,0.125 1.96875,0.367187 0.59375,0.246094 1.125,0.605469 1.59375,1.074219 C 8.878906,2.453125 9.128906,2.800781 9.308594,3.164062 9.484375,3.53125 9.613281,3.929688 9.6875,4.363281 9.765625,4.792969 9.808594,5.265625 9.820312,5.792969 9.832031,6.316406 9.835938,6.902344 9.835938,7.546875"
           id="path64"
           inkscape:connector-curvature="0" />
      </g>
    </g>
    <mask
       id="mask4">
      <g
         id="g71"
         style="filter:url(#alpha)">
        <rect
           x="0"
           y="0"
           width="400"
           height="400"
           style="fill:#000000;fill-opacity:0.60000598;stroke:none"
           id="rect69" />
      </g>
    </mask>
    <clipPath
       id="clip10">
      <path
         d="m 0.808594,0.683594 h 9.671875 V 14.410156 H 0.808594 Z m 0,0"
         id="path74"
         inkscape:connector-curvature="0" />
    </clipPath>
    <clipPath
       id="clip9">
      <rect
         width="11"
         height="15"
         id="rect77"
         x="0"
         y="0" />
    </clipPath>
    <g
       id="surface645"
       clip-path="url(#clip9)">
      <g
         clip-path="url(#clip10)"
         id="g82"
         style="clip-rule:nonzero">
        <path
           style="fill:#4c4f57;fill-opacity:1;fill-rule:nonzero;stroke:none"
           d="m 9.882812,12.042969 c -0.285156,0.515625 -0.636718,0.953125 -1.066406,1.308593 -0.421875,0.351563 -0.898437,0.617188 -1.4375,0.792969 -0.539062,0.179688 -1.109375,0.265625 -1.714844,0.265625 -0.710937,0 -1.359374,-0.121094 -1.953124,-0.367187 -0.597657,-0.25 -1.125,-0.605469 -1.59375,-1.074219 C 1.789062,12.640625 1.535156,12.292969 1.359375,11.925781 1.179688,11.558594 1.050781,11.160156 0.96875,10.730469 0.886719,10.304688 0.839844,9.824219 0.828125,9.300781 0.816406,8.777344 0.808594,8.191406 0.808594,7.546875 c 0,-0.644531 0.007812,-1.230469 0.019531,-1.753906 0.011719,-0.527344 0.058594,-1 0.140625,-1.429688 C 1.050781,3.929688 1.179688,3.53125 1.359375,3.164062 1.535156,2.800781 1.789062,2.453125 2.117188,2.125 2.585938,1.65625 3.113281,1.296875 3.710938,1.050781 4.304688,0.808594 4.953125,0.683594 5.664062,0.683594 c 1.25,0 2.304688,0.351562 3.167969,1.0625 0.855469,0.707031 1.40625,1.738281 1.648438,3.089844 H 8.390625 C 8.230469,4.152344 7.921875,3.597656 7.472656,3.164062 7.023438,2.738281 6.421875,2.523438 5.664062,2.523438 5.257812,2.523438 4.886719,2.59375 4.542969,2.738281 4.203125,2.882812 3.910156,3.085938 3.671875,3.339844 3.507812,3.515625 3.371094,3.707031 3.261719,3.914062 3.15625,4.125 3.074219,4.382812 3.015625,4.695312 2.960938,5 2.921875,5.382812 2.894531,5.839844 2.867188,6.292969 2.855469,6.867188 2.855469,7.546875 c 0,0.683594 0.011719,1.25 0.039062,1.707031 0.027344,0.453125 0.066407,0.835938 0.121094,1.144532 0.058594,0.3125 0.140625,0.570312 0.246094,0.777343 0.109375,0.210938 0.246093,0.402344 0.410156,0.582031 0.238281,0.253907 0.53125,0.449219 0.871094,0.59375 0.34375,0.148438 0.714843,0.222657 1.121093,0.222657 0.757813,0 1.363282,-0.21875 1.816407,-0.648438 C 7.9375,11.5 8.246094,10.941406 8.410156,10.257812 h 2.070313 c -0.117188,0.667969 -0.3125,1.265626 -0.597657,1.785157"
           id="path80"
           inkscape:connector-curvature="0" />
      </g>
    </g>
    <mask
       id="mask5">
      <g
         id="g87"
         style="filter:url(#alpha)">
        <rect
           x="0"
           y="0"
           width="400"
           height="400"
           style="fill:#000000;fill-opacity:0.60000598;stroke:none"
           id="rect85" />
      </g>
    </mask>
    <clipPath
       id="clip12">
      <path
         d="m 0.636719,0.796875 h 8.628906 v 13.5 H 0.636719 Z m 0,0"
         id="path90"
         inkscape:connector-curvature="0" />
    </clipPath>
    <clipPath
       id="clip11">
      <rect
         width="10"
         height="15"
         id="rect93"
         x="0"
         y="0" />
    </clipPath>
    <g
       id="surface648"
       clip-path="url(#clip11)">
      <g
         clip-path="url(#clip12)"
         id="g98"
         style="clip-rule:nonzero">
        <path
           style="fill:#4c4f57;fill-opacity:1;fill-rule:nonzero;stroke:none"
           d="m 0.636719,14.296875 v -13.5 H 9.265625 V 2.632812 H 2.683594 V 6.578125 H 8.296875 V 8.398438 H 2.683594 v 4.058593 h 6.582031 v 1.839844 z m 0,0"
           id="path96"
           inkscape:connector-curvature="0" />
      </g>
    </g>
    <mask
       id="mask6">
      <g
         id="g103"
         style="filter:url(#alpha)">
        <rect
           x="0"
           y="0"
           width="400"
           height="400"
           style="fill:#000000;fill-opacity:0.60000598;stroke:none"
           id="rect101" />
      </g>
    </mask>
    <clipPath
       id="clip14">
      <path
         d="m 0.890625,0.796875 h 11.550781 v 13.5 H 0.890625 Z m 0,0"
         id="path106"
         inkscape:connector-curvature="0" />
    </clipPath>
    <clipPath
       id="clip13">
      <rect
         width="13"
         height="15"
         id="rect109"
         x="0"
         y="0" />
    </clipPath>
    <g
       id="surface651"
       clip-path="url(#clip13)">
      <g
         clip-path="url(#clip14)"
         id="g114"
         style="clip-rule:nonzero">
        <path
           style="fill:#4c4f57;fill-opacity:1;fill-rule:nonzero;stroke:none"
           d="M 6.710938,3.867188 4.605469,9.859375 h 4.15625 z M 10.257812,14.296875 9.328125,11.585938 H 4 L 3.074219,14.296875 H 0.890625 L 5.839844,0.792969 h 1.648437 l 4.953125,13.503906 z m 0,0"
           id="path112"
           inkscape:connector-curvature="0" />
      </g>
    </g>
    <mask
       id="mask7">
      <g
         id="g119"
         style="filter:url(#alpha)">
        <rect
           x="0"
           y="0"
           width="400"
           height="400"
           style="fill:#000000;fill-opacity:0.60000598;stroke:none"
           id="rect117" />
      </g>
    </mask>
    <clipPath
       id="clip16">
      <path
         d="m 0.78125,0.796875 h 10.167969 v 13.5 H 0.78125 Z m 0,0"
         id="path122"
         inkscape:connector-curvature="0" />
    </clipPath>
    <clipPath
       id="clip15">
      <rect
         width="11"
         height="15"
         id="rect125"
         x="0"
         y="0" />
    </clipPath>
    <g
       id="surface654"
       clip-path="url(#clip15)">
      <g
         clip-path="url(#clip16)"
         id="g130"
         style="clip-rule:nonzero">
        <path
           style="fill:#4c4f57;fill-opacity:1;fill-rule:nonzero;stroke:none"
           d="m 9.070312,14.296875 -6.238281,-9.5 v 9.5 H 0.78125 v -13.5 h 1.878906 l 6.238282,9.480469 V 0.796875 h 2.050781 v 13.5 z m 0,0"
           id="path128"
           inkscape:connector-curvature="0" />
      </g>
    </g>
    <mask
       id="mask8">
      <g
         id="g135"
         style="filter:url(#alpha)">
        <rect
           x="0"
           y="0"
           width="400"
           height="400"
           style="fill:#000000;fill-opacity:0.60000598;stroke:none"
           id="rect133" />
      </g>
    </mask>
    <clipPath
       id="clip18">
      <path
         d="m 0.878906,0.796875 h 8.628906 v 13.5 H 0.878906 Z m 0,0"
         id="path138"
         inkscape:connector-curvature="0" />
    </clipPath>
    <clipPath
       id="clip17">
      <rect
         width="10"
         height="15"
         id="rect141"
         x="0"
         y="0" />
    </clipPath>
    <g
       id="surface657"
       clip-path="url(#clip17)">
      <g
         clip-path="url(#clip18)"
         id="g146"
         style="clip-rule:nonzero">
        <path
           style="fill:#4c4f57;fill-opacity:1;fill-rule:nonzero;stroke:none"
           d="M 2.929688,2.632812 V 6.75 H 8.542969 V 8.589844 H 2.929688 v 5.707031 H 0.878906 v -13.5 h 8.628906 v 1.835937 z m 0,0"
           id="path144"
           inkscape:connector-curvature="0" />
      </g>
    </g>
    <mask
       id="mask9">
      <g
         id="g151"
         style="filter:url(#alpha)">
        <rect
           x="0"
           y="0"
           width="400"
           height="400"
           style="fill:#000000;fill-opacity:0.60000598;stroke:none"
           id="rect149" />
      </g>
    </mask>
    <clipPath
       id="clip20">
      <path
         d="m 0.527344,0.683594 h 9.707031 V 14.410156 H 0.527344 Z m 0,0"
         id="path154"
         inkscape:connector-curvature="0" />
    </clipPath>
    <clipPath
       id="clip19">
      <rect
         width="11"
         height="15"
         id="rect157"
         x="0"
         y="0" />
    </clipPath>
    <g
       id="surface660"
       clip-path="url(#clip19)">
      <g
         clip-path="url(#clip20)"
         id="g162"
         style="clip-rule:nonzero">
        <path
           style="fill:#4c4f57;fill-opacity:1;fill-rule:nonzero;stroke:none"
           d="m 8.1875,7.546875 c 0,-0.679687 -0.00781,-1.25 -0.027344,-1.695313 C 8.140625,5.402344 8.101562,5.023438 8.046875,4.710938 7.988281,4.402344 7.910156,4.144531 7.800781,3.933594 7.691406,3.726562 7.554688,3.53125 7.394531,3.355469 7.152344,3.105469 6.859375,2.898438 6.511719,2.75 6.160156,2.597656 5.789062,2.523438 5.382812,2.523438 4.976562,2.523438 4.601562,2.597656 4.253906,2.75 3.90625,2.898438 3.613281,3.105469 3.371094,3.355469 3.207031,3.53125 3.074219,3.726562 2.964844,3.933594 2.855469,4.144531 2.777344,4.402344 2.71875,4.710938 2.660156,5.023438 2.625,5.402344 2.601562,5.851562 2.585938,6.296875 2.574219,6.867188 2.574219,7.546875 c 0,0.683594 0.011719,1.246094 0.027343,1.699219 0.023438,0.445312 0.058594,0.828125 0.117188,1.132812 0.058594,0.3125 0.136719,0.574219 0.246094,0.78125 0.109375,0.207032 0.242187,0.398438 0.40625,0.578125 0.242187,0.253907 0.535156,0.453125 0.882812,0.605469 0.347656,0.152344 0.722656,0.226562 1.128906,0.226562 0.40625,0 0.777344,-0.07422 1.128907,-0.226562 0.347656,-0.152344 0.640625,-0.351562 0.882812,-0.605469 0.160157,-0.179687 0.296875,-0.371093 0.40625,-0.578125 0.109375,-0.207031 0.1875,-0.46875 0.246094,-0.78125 0.054687,-0.304687 0.09375,-0.6875 0.113281,-1.132812 C 8.179688,8.792969 8.1875,8.230469 8.1875,7.546875 m 2.046875,0 c 0,0.644531 -0.0039,1.230469 -0.01563,1.753906 -0.01563,0.523438 -0.05859,1.003907 -0.132812,1.433594 -0.07422,0.425781 -0.203126,0.824219 -0.382813,1.191406 -0.175781,0.367188 -0.425781,0.714844 -0.753906,1.042969 -0.46875,0.472656 -1,0.824219 -1.597657,1.074219 -0.589843,0.246093 -1.25,0.367187 -1.96875,0.367187 -0.722656,0 -1.375,-0.121094 -1.960937,-0.367187 C 2.832031,13.792969 2.304688,13.441406 1.835938,12.96875 1.507812,12.640625 1.253906,12.292969 1.078125,11.925781 0.898438,11.558594 0.769531,11.160156 0.6875,10.734375 0.605469,10.304688 0.558594,9.824219 0.546875,9.300781 0.535156,8.777344 0.53125,8.191406 0.53125,7.546875 c 0,-0.644531 0.003906,-1.230469 0.015625,-1.753906 0.011719,-0.527344 0.058594,-1 0.140625,-1.429688 C 0.769531,3.929688 0.898438,3.53125 1.078125,3.164062 1.253906,2.800781 1.507812,2.453125 1.835938,2.125 2.304688,1.65625 2.832031,1.296875 3.421875,1.050781 4.007812,0.808594 4.660156,0.683594 5.382812,0.683594 c 0.71875,0 1.378907,0.125 1.96875,0.367187 0.597657,0.246094 1.128907,0.605469 1.597657,1.074219 0.328125,0.328125 0.578125,0.675781 0.753906,1.039062 0.179687,0.367188 0.308594,0.765626 0.382813,1.199219 0.07422,0.429688 0.117187,0.902344 0.132812,1.429688 0.01172,0.523437 0.01563,1.109375 0.01563,1.753906"
           id="path160"
           inkscape:connector-curvature="0" />
      </g>
    </g>
    <mask
       id="mask10">
      <g
         id="g167"
         style="filter:url(#alpha)">
        <rect
           x="0"
           y="0"
           width="400"
           height="400"
           style="fill:#000000;fill-opacity:0.60000598;stroke:none"
           id="rect165" />
      </g>
    </mask>
    <clipPath
       id="clip22">
      <path
         d="m 0.699219,0.796875 h 9.84375 v 13.5 h -9.84375 z m 0,0"
         id="path170"
         inkscape:connector-curvature="0" />
    </clipPath>
    <clipPath
       id="clip21">
      <rect
         width="11"
         height="15"
         id="rect173"
         x="0"
         y="0" />
    </clipPath>
    <g
       id="surface663"
       clip-path="url(#clip21)">
      <g
         clip-path="url(#clip22)"
         id="g178"
         style="clip-rule:nonzero">
        <path
           style="fill:#4c4f57;fill-opacity:1;fill-rule:nonzero;stroke:none"
           d="M 8.078125,4.761719 C 8.078125,4.089844 7.867188,3.570312 7.445312,3.195312 7.019531,2.824219 6.464844,2.636719 5.785156,2.636719 H 2.75 v 4.230469 h 3.035156 c 0.679688,0 1.234375,-0.1875 1.660156,-0.554688 C 7.867188,5.949219 8.078125,5.429688 8.078125,4.761719 M 8.15625,14.296875 5.308594,8.609375 H 2.75 v 5.6875 H 0.703125 V 0.792969 h 5.230469 c 0.648437,0 1.222656,0.101562 1.738281,0.296875 0.511719,0.195312 0.949219,0.46875 1.316406,0.816406 0.367188,0.347656 0.648438,0.765625 0.84375,1.25 C 10.027344,3.644531 10.125,4.171875 10.125,4.738281 10.125,5.714844 9.867188,6.5 9.347656,7.101562 8.832031,7.703125 8.191406,8.109375 7.433594,8.324219 l 3.109375,5.972656 z m 0,0"
           id="path176"
           inkscape:connector-curvature="0" />
      </g>
    </g>
    <mask
       id="mask11">
      <g
         id="g183"
         style="filter:url(#alpha)">
        <rect
           x="0"
           y="0"
           width="400"
           height="400"
           style="fill:#000000;fill-opacity:0.60000598;stroke:none"
           id="rect181" />
      </g>
    </mask>
    <clipPath
       id="clip24">
      <path
         d="m 0.550781,0.796875 h 8.628907 v 13.5 H 0.550781 Z m 0,0"
         id="path186"
         inkscape:connector-curvature="0" />
    </clipPath>
    <clipPath
       id="clip23">
      <rect
         width="10"
         height="15"
         id="rect189"
         x="0"
         y="0" />
    </clipPath>
    <g
       id="surface666"
       clip-path="url(#clip23)">
      <g
         clip-path="url(#clip24)"
         id="g194"
         style="clip-rule:nonzero">
        <path
           style="fill:#4c4f57;fill-opacity:1;fill-rule:nonzero;stroke:none"
           d="m 0.546875,14.296875 v -13.5 H 9.179688 V 2.632812 H 2.597656 V 6.578125 H 8.210938 V 8.398438 H 2.597656 v 4.058593 h 6.582032 v 1.839844 z m 0,0"
           id="path192"
           inkscape:connector-curvature="0" />
      </g>
    </g>
    <mask
       id="mask12">
      <g
         id="g199"
         style="filter:url(#alpha)">
        <rect
           x="0"
           y="0"
           width="400"
           height="400"
           style="fill:#000000;fill-opacity:0.60000598;stroke:none"
           id="rect197" />
      </g>
    </mask>
    <clipPath
       id="clip26">
      <path
         d="m 0.921875,0.683594 h 9.667969 V 14.410156 H 0.921875 Z m 0,0"
         id="path202"
         inkscape:connector-curvature="0" />
    </clipPath>
    <clipPath
       id="clip25">
      <rect
         width="11"
         height="15"
         id="rect205"
         x="0"
         y="0" />
    </clipPath>
    <g
       id="surface669"
       clip-path="url(#clip25)">
      <g
         clip-path="url(#clip26)"
         id="g210"
         style="clip-rule:nonzero">
        <path
           style="fill:#4c4f57;fill-opacity:1;fill-rule:nonzero;stroke:none"
           d="m 9.996094,12.042969 c -0.289063,0.515625 -0.640625,0.953125 -1.066406,1.308593 -0.421876,0.351563 -0.902344,0.617188 -1.4375,0.792969 -0.539063,0.179688 -1.109376,0.265625 -1.714844,0.265625 -0.710938,0 -1.363282,-0.121094 -1.957032,-0.367187 -0.59375,-0.25 -1.125,-0.605469 -1.589843,-1.074219 C 1.898438,12.640625 1.648438,12.292969 1.472656,11.925781 1.292969,11.558594 1.160156,11.160156 1.082031,10.730469 0.996094,10.304688 0.953125,9.824219 0.941406,9.300781 0.929688,8.777344 0.921875,8.191406 0.921875,7.546875 c 0,-0.644531 0.007813,-1.230469 0.019531,-1.753906 0.011719,-0.527344 0.054688,-1 0.140625,-1.429688 C 1.160156,3.929688 1.292969,3.53125 1.472656,3.164062 1.648438,2.800781 1.898438,2.453125 2.230469,2.125 2.695312,1.65625 3.226562,1.296875 3.820312,1.050781 4.414062,0.808594 5.066406,0.683594 5.777344,0.683594 c 1.25,0 2.304687,0.351562 3.164062,1.0625 0.859375,0.707031 1.410156,1.738281 1.648438,3.089844 H 8.503906 C 8.339844,4.152344 8.035156,3.597656 7.585938,3.164062 7.136719,2.738281 6.53125,2.523438 5.777344,2.523438 5.367188,2.523438 4.996094,2.59375 4.65625,2.738281 4.3125,2.882812 4.023438,3.085938 3.78125,3.339844 3.617188,3.515625 3.484375,3.707031 3.375,3.914062 3.265625,4.125 3.1875,4.382812 3.128906,4.695312 3.070312,5 3.03125,5.382812 3.003906,5.839844 2.980469,6.292969 2.96875,6.867188 2.96875,7.546875 c 0,0.683594 0.011719,1.25 0.035156,1.707031 0.027344,0.453125 0.066406,0.835938 0.125,1.144532 0.058594,0.3125 0.136719,0.570312 0.246094,0.777343 0.109375,0.210938 0.242188,0.402344 0.40625,0.582031 0.242188,0.253907 0.53125,0.449219 0.875,0.59375 0.339844,0.148438 0.710938,0.222657 1.121094,0.222657 0.753906,0 1.363281,-0.21875 1.816406,-0.648438 C 8.050781,11.5 8.359375,10.941406 8.523438,10.257812 h 2.066406 c -0.113282,0.667969 -0.3125,1.265626 -0.59375,1.785157"
           id="path208"
           inkscape:connector-curvature="0" />
      </g>
    </g>
    <mask
       id="mask13">
      <g
         id="g215"
         style="filter:url(#alpha)">
        <rect
           x="0"
           y="0"
           width="400"
           height="400"
           style="fill:#000000;fill-opacity:0.60000598;stroke:none"
           id="rect213" />
      </g>
    </mask>
    <clipPath
       id="clip28">
      <path
         d="m 0.949219,0.796875 h 11.546875 v 13.5 H 0.949219 Z m 0,0"
         id="path218"
         inkscape:connector-curvature="0" />
    </clipPath>
    <clipPath
       id="clip27">
      <rect
         width="13"
         height="15"
         id="rect221"
         x="0"
         y="0" />
    </clipPath>
    <g
       id="surface672"
       clip-path="url(#clip27)">
      <g
         clip-path="url(#clip28)"
         id="g226"
         style="clip-rule:nonzero">
        <path
           style="fill:#4c4f57;fill-opacity:1;fill-rule:nonzero;stroke:none"
           d="M 6.769531,3.867188 4.664062,9.859375 H 8.816406 Z M 10.316406,14.296875 9.386719,11.585938 H 4.058594 L 3.128906,14.296875 H 0.949219 L 5.898438,0.792969 h 1.648437 l 4.949219,13.503906 z m 0,0"
           id="path224"
           inkscape:connector-curvature="0" />
      </g>
    </g>
    <mask
       id="mask14">
      <g
         id="g231"
         style="filter:url(#alpha)">
        <rect
           x="0"
           y="0"
           width="400"
           height="400"
           style="fill:#000000;fill-opacity:0.60000598;stroke:none"
           id="rect229" />
      </g>
    </mask>
    <clipPath
       id="clip30">
      <path
         d="m 0.644531,0.683594 h 9.632813 V 14.410156 H 0.644531 Z m 0,0"
         id="path234"
         inkscape:connector-curvature="0" />
    </clipPath>
    <clipPath
       id="clip29">
      <rect
         width="11"
         height="15"
         id="rect237"
         x="0"
         y="0" />
    </clipPath>
    <g
       id="surface675"
       clip-path="url(#clip29)">
      <g
         clip-path="url(#clip30)"
         id="g242"
         style="clip-rule:nonzero">
        <path
           style="fill:#4c4f57;fill-opacity:1;fill-rule:nonzero;stroke:none"
           d="m 10.277344,10.449219 c 0,0.621093 -0.121094,1.175781 -0.359375,1.667969 -0.238281,0.492187 -0.574219,0.910156 -1.003907,1.25 C 8.484375,13.710938 7.972656,13.96875 7.375,14.144531 6.78125,14.320312 6.132812,14.410156 5.425781,14.410156 4.402344,14.410156 3.507812,14.277344 2.75,14.015625 1.992188,13.746094 1.289062,13.285156 0.644531,12.628906 L 2.011719,11.28125 c 0.492187,0.496094 1.015625,0.832031 1.574219,1.015625 0.554687,0.183594 1.183593,0.273437 1.875,0.273437 0.886718,0 1.570312,-0.175781 2.058593,-0.539062 C 8.007812,11.671875 8.25,11.160156 8.25,10.503906 8.25,9.886719 8.074219,9.417969 7.71875,9.101562 7.542969,8.9375 7.351562,8.816406 7.152344,8.742188 6.945312,8.664062 6.644531,8.597656 6.238281,8.53125 L 4.648438,8.304688 C 3.546875,8.152344 2.695312,7.792969 2.085938,7.222656 1.429688,6.605469 1.101562,5.746094 1.101562,4.648438 1.101562,4.0625 1.207031,3.53125 1.414062,3.042969 1.621094,2.558594 1.917969,2.136719 2.304688,1.78125 2.691406,1.429688 3.160156,1.15625 3.71875,0.96875 4.273438,0.777344 4.90625,0.683594 5.613281,0.683594 c 0.898438,0 1.675781,0.121094 2.332031,0.359375 C 8.605469,1.28125 9.222656,1.675781 9.804688,2.21875 L 8.496094,3.507812 C 8.078125,3.105469 7.625,2.828125 7.140625,2.683594 6.652344,2.539062 6.125,2.464844 5.558594,2.464844 4.761719,2.464844 4.152344,2.664062 3.726562,3.0625 3.300781,3.460938 3.09375,3.964844 3.09375,4.570312 c 0,0.253907 0.039062,0.484376 0.121094,0.691407 0.082031,0.210937 0.210937,0.394531 0.390625,0.5625 0.351562,0.3125 0.855469,0.523437 1.515625,0.621093 L 6.65625,6.675781 C 7.289062,6.777344 7.796875,6.90625 8.171875,7.0625 8.550781,7.222656 8.886719,7.429688 9.179688,7.679688 9.546875,8.007812 9.820312,8.40625 10,8.875 c 0.1875,0.464844 0.277344,0.992188 0.277344,1.574219"
           id="path240"
           inkscape:connector-curvature="0" />
      </g>
    </g>
    <mask
       id="mask15">
      <g
         id="g247"
         style="filter:url(#alpha)">
        <rect
           x="0"
           y="0"
           width="400"
           height="400"
           style="fill:#000000;fill-opacity:0.60000598;stroke:none"
           id="rect245" />
      </g>
    </mask>
    <clipPath
       id="clip32">
      <path
         d="m 0.265625,0.796875 h 9.480469 v 13.5 H 0.265625 Z m 0,0"
         id="path250"
         inkscape:connector-curvature="0" />
    </clipPath>
    <clipPath
       id="clip31">
      <rect
         width="10"
         height="15"
         id="rect253"
         x="0"
         y="0" />
    </clipPath>
    <g
       id="surface678"
       clip-path="url(#clip31)">
      <g
         clip-path="url(#clip32)"
         id="g258"
         style="clip-rule:nonzero">
        <path
           style="fill:#4c4f57;fill-opacity:1;fill-rule:nonzero;stroke:none"
           d="M 6.03125,2.632812 V 14.296875 H 3.984375 V 2.632812 H 0.265625 V 0.796875 h 9.480469 v 1.835937 z m 0,0"
           id="path256"
           inkscape:connector-curvature="0" />
      </g>
    </g>
    <mask
       id="mask16">
      <g
         id="g263"
         style="filter:url(#alpha)">
        <rect
           x="0"
           y="0"
           width="400"
           height="400"
           style="fill:#000000;fill-opacity:0.60000598;stroke:none"
           id="rect261" />
      </g>
    </mask>
    <clipPath
       id="clip34">
      <path
         d="m 0.507812,0.796875 h 8.628907 v 13.5 H 0.507812 Z m 0,0"
         id="path266"
         inkscape:connector-curvature="0" />
    </clipPath>
    <clipPath
       id="clip33">
      <rect
         width="10"
         height="15"
         id="rect269"
         x="0"
         y="0" />
    </clipPath>
    <g
       id="surface681"
       clip-path="url(#clip33)">
      <g
         clip-path="url(#clip34)"
         id="g274"
         style="clip-rule:nonzero">
        <path
           style="fill:#4c4f57;fill-opacity:1;fill-rule:nonzero;stroke:none"
           d="m 0.507812,14.296875 v -13.5 H 9.136719 V 2.632812 H 2.554688 V 6.578125 H 8.167969 V 8.398438 H 2.554688 v 4.058593 h 6.582031 v 1.839844 z m 0,0"
           id="path272"
           inkscape:connector-curvature="0" />
      </g>
    </g>
    <mask
       id="mask17">
      <g
         id="g279"
         style="filter:url(#alpha)">
        <rect
           x="0"
           y="0"
           width="400"
           height="400"
           style="fill:#000000;fill-opacity:0.60000598;stroke:none"
           id="rect277" />
      </g>
    </mask>
    <clipPath
       id="clip36">
      <path
         d="m 0.371094,0.796875 h 9.839844 v 13.5 H 0.371094 Z m 0,0"
         id="path282"
         inkscape:connector-curvature="0" />
    </clipPath>
    <clipPath
       id="clip35">
      <rect
         width="11"
         height="15"
         id="rect285"
         x="0"
         y="0" />
    </clipPath>
    <g
       id="surface684"
       clip-path="url(#clip35)">
      <g
         clip-path="url(#clip36)"
         id="g290"
         style="clip-rule:nonzero">
        <path
           style="fill:#4c4f57;fill-opacity:1;fill-rule:nonzero;stroke:none"
           d="M 7.746094,4.761719 C 7.746094,4.089844 7.535156,3.570312 7.113281,3.195312 6.6875,2.824219 6.136719,2.636719 5.453125,2.636719 H 2.417969 v 4.230469 h 3.035156 c 0.683594,0 1.234375,-0.1875 1.660156,-0.554688 C 7.535156,5.949219 7.746094,5.429688 7.746094,4.761719 m 0.078125,9.535156 -2.847657,-5.6875 H 2.417969 v 5.6875 H 0.371094 V 0.792969 h 5.234375 c 0.644531,0 1.222656,0.101562 1.734375,0.296875 0.511718,0.195312 0.949218,0.46875 1.316406,0.816406 0.367188,0.347656 0.648438,0.765625 0.847656,1.25 C 9.699219,3.644531 9.796875,4.171875 9.796875,4.738281 9.796875,5.714844 9.535156,6.5 9.019531,7.101562 8.5,7.703125 7.859375,8.109375 7.105469,8.324219 l 3.105469,5.972656 z m 0,0"
           id="path288"
           inkscape:connector-curvature="0" />
      </g>
    </g>
    <mask
       id="mask18">
      <g
         id="g295"
         style="filter:url(#alpha)">
        <rect
           x="0"
           y="0"
           width="400"
           height="400"
           style="fill:#000000;fill-opacity:0.60000598;stroke:none"
           id="rect293" />
      </g>
    </mask>
    <clipPath
       id="clip38">
      <path
         d="M 0.0234375,0.683594 H 9.65625 V 14.410156 H 0.0234375 Z m 0,0"
         id="path298"
         inkscape:connector-curvature="0" />
    </clipPath>
    <clipPath
       id="clip37">
      <rect
         width="10"
         height="15"
         id="rect301"
         x="0"
         y="0" />
    </clipPath>
    <g
       id="surface683"
       clip-path="url(#clip37)">
      <g
         clip-path="url(#clip38)"
         id="g306"
         style="clip-rule:nonzero">
        <path
           style="fill:#4c4f57;fill-opacity:1;fill-rule:nonzero;stroke:none"
           d="m 9.65625,10.449219 c 0,0.621093 -0.121094,1.175781 -0.359375,1.667969 -0.238281,0.492187 -0.574219,0.910156 -1.003906,1.25 -0.429688,0.34375 -0.941407,0.601562 -1.539063,0.777343 -0.59375,0.175781 -1.242187,0.265625 -1.949218,0.265625 -1.023438,0 -1.917969,-0.132812 -2.675782,-0.394531 C 1.371094,13.746094 0.667969,13.285156 0.0234375,12.628906 L 1.390625,11.28125 c 0.492187,0.496094 1.015625,0.832031 1.574219,1.015625 0.554687,0.183594 1.183594,0.273437 1.875,0.273437 0.886718,0 1.570312,-0.175781 2.058594,-0.539062 0.484374,-0.359375 0.730468,-0.871094 0.730468,-1.527344 0,-0.617187 -0.175781,-1.085937 -0.53125,-1.402344 C 6.921875,8.9375 6.730469,8.816406 6.53125,8.742188 6.324219,8.664062 6.023438,8.597656 5.617188,8.53125 L 4.027344,8.304688 C 2.925781,8.152344 2.074219,7.792969 1.464844,7.222656 0.808594,6.605469 0.480469,5.746094 0.480469,4.648438 0.480469,4.0625 0.585938,3.53125 0.792969,3.042969 1,2.558594 1.296875,2.136719 1.683594,1.78125 2.070312,1.429688 2.539062,1.15625 3.097656,0.96875 3.652344,0.777344 4.285156,0.683594 4.992188,0.683594 c 0.898437,0 1.675781,0.121094 2.332031,0.359375 C 7.984375,1.28125 8.601562,1.675781 9.183594,2.21875 L 7.875,3.507812 C 7.457031,3.105469 7.003906,2.828125 6.519531,2.683594 6.03125,2.539062 5.503906,2.464844 4.9375,2.464844 4.140625,2.464844 3.53125,2.664062 3.105469,3.0625 2.679688,3.460938 2.472656,3.964844 2.472656,4.570312 c 0,0.253907 0.039063,0.484376 0.121094,0.691407 0.082031,0.210937 0.210938,0.394531 0.390625,0.5625 C 3.335938,6.136719 3.839844,6.347656 4.5,6.445312 L 6.035156,6.675781 C 6.667969,6.777344 7.175781,6.90625 7.550781,7.0625 7.929688,7.222656 8.265625,7.429688 8.558594,7.679688 8.925781,8.007812 9.199219,8.40625 9.378906,8.875 9.566406,9.339844 9.65625,9.867188 9.65625,10.449219"
           id="path304"
           inkscape:connector-curvature="0" />
      </g>
    </g>
  </defs>
  <g
     id="surface627"
     transform="translate(-13.132812,-65.589844)">
    <path
       style="fill:#283068;fill-opacity:1;fill-rule:nonzero;stroke:none"
       d="m 149.27344,197.15234 c 43.80468,-6.44531 68.74609,-50.21484 114.14062,-58.17578 4.75781,-0.83594 8.96875,-0.95312 12.71094,-0.49219 -1.69922,-9.35156 -5.14063,-18.54296 -10.48828,-27.08984 -0.58985,-0.9414 -1.20313,-1.85547 -1.82422,-2.75781 -42.21875,13.84375 -62.50781,58.09375 -104.40625,68.82422 -13.59375,3.48047 -24.85938,0.71875 -31.57031,1.10937 0.89453,2.45703 1.92187,4.88281 3.07812,7.27344 0.0234,0.0508 0.043,0.0977 0.0664,0.14453 0.52344,1.07422 1.08203,2.13672 1.66015,3.19531 0.0781,0.14453 0.14844,0.29297 0.23047,0.4375 0.65625,1.1875 1.34766,2.35938 2.07422,3.52344 0.97266,1.55469 2.00781,3.04688 3.07422,4.51172 3.48438,0.17187 7.24219,0.0859 11.25391,-0.50391"
       id="path311"
       inkscape:connector-curvature="0" />
    <path
       style="fill:#283068;fill-opacity:1;fill-rule:nonzero;stroke:none"
       d="m 262.01953,156.33594 c 5.80469,-1.53125 10.875,-2.25 15.32422,-2.33594 0.0937,-4.03125 -0.13672,-8.07813 -0.67969,-12.11328 -4.58594,-0.875 -9.92578,-0.76563 -16.14453,0.625 -44.97656,10.05469 -67.86328,54.9375 -111.32031,63.40234 -1.25,0.2461 -2.47266,0.4336 -3.67578,0.58203 0.6289,0.63672 1.25781,1.27344 1.90625,1.88672 3.71484,-0.42578 7.71875,-1.0664 11.95312,-2.11328 41.38281,-10.19922 59.91797,-38.63281 102.63672,-49.93359"
       id="path313"
       inkscape:connector-curvature="0" />
    <path
       style="fill:#283068;fill-opacity:1;fill-rule:nonzero;stroke:none"
       d="m 259.67578,158.76562 c -42.05469,12.42188 -58.47656,41.16797 -99.26953,52.45704 -2.62891,0.73046 -5.18359,1.29687 -7.64063,1.75 24.82422,19.43359 60.13282,22.32812 88.40625,4.64062 22.23438,-13.90625 34.91016,-37.29687 36.09766,-61.64844 -5.03125,-0.0234 -10.84375,0.8086 -17.59375,2.80078"
       id="path315"
       inkscape:connector-curvature="0" />
    <use
       xlink:href="#surface633"
       transform="translate(136,96)"
       mask="url(#mask0)"
       id="use317"
       x="0"
       y="0"
       width="100%"
       height="100%" />
    <path
       style="fill:#283068;fill-opacity:1;fill-rule:nonzero;stroke:none"
       d="m 124.34766,127.86719 8.85937,1.0039 5.86328,-6.26953 -0.4414,6.88281 8.69921,0.98829 -8.98437,3.44531 -0.48047,7.48828 -5.26953,-5.28125 -9.64453,3.70312 6.45703,-6.89453 z m 0,0"
       id="path319"
       inkscape:connector-curvature="0" />
    <use
       xlink:href="#surface636"
       transform="translate(161,79)"
       mask="url(#mask1)"
       id="use321"
       x="0"
       y="0"
       width="100%"
       height="100%" />
    <use
       xlink:href="#surface639"
       transform="translate(189,73)"
       mask="url(#mask2)"
       id="use323"
       x="0"
       y="0"
       width="100%"
       height="100%" />
    <path
       style="fill:#4a7ac7;fill-opacity:1;fill-rule:nonzero;stroke:none"
       d="M 110.56641,255.39062 H 65.847656 v -7.4414 h 44.718754 z m 0,0"
       id="path325"
       inkscape:connector-curvature="0" />
    <path
       style="fill:#4cc2bd;fill-opacity:1;fill-rule:nonzero;stroke:none"
       d="m 155.28125,255.39062 h -44.71484 v -7.4414 h 44.71484 z m 0,0"
       id="path327"
       inkscape:connector-curvature="0" />
    <path
       style="fill:#3a4fab;fill-opacity:1;fill-rule:nonzero;stroke:none"
       d="M 65.847656,255.39062 H 21.132812 v -7.4414 h 44.714844 z m 0,0"
       id="path329"
       inkscape:connector-curvature="0" />
    <path
       style="fill:#4cbf85;fill-opacity:1;fill-rule:nonzero;stroke:none"
       d="m 200,255.39062 h -44.71875 v -7.4414 H 200 Z m 0,0"
       id="path331"
       inkscape:connector-curvature="0" />
    <path
       style="fill:#8acf3a;fill-opacity:1;fill-rule:nonzero;stroke:none"
       d="M 244.71875,255.39062 H 200 v -7.4414 h 44.71875 z m 0,0"
       id="path333"
       inkscape:connector-curvature="0" />
    <path
       style="fill:#d9dc2e;fill-opacity:1;fill-rule:nonzero;stroke:none"
       d="m 289.43359,255.39062 h -44.71484 v -7.4414 h 44.71484 z m 0,0"
       id="path335"
       inkscape:connector-curvature="0" />
    <path
       style="fill:#f37028;fill-opacity:1;fill-rule:nonzero;stroke:none"
       d="m 334.15234,255.39062 h -44.71875 v -7.4414 h 44.71875 z m 0,0"
       id="path337"
       inkscape:connector-curvature="0" />
    <path
       style="fill:#eb2321;fill-opacity:1;fill-rule:nonzero;stroke:none"
       d="m 378.86719,255.39062 h -44.71485 v -7.4414 h 44.71485 z m 0,0"
       id="path339"
       inkscape:connector-curvature="0" />
    <use
       xlink:href="#surface642"
       transform="translate(21,308)"
       mask="url(#mask3)"
       id="use341"
       x="0"
       y="0"
       width="100%"
       height="100%" />
    <use
       xlink:href="#surface645"
       transform="translate(43,308)"
       mask="url(#mask4)"
       id="use343"
       x="0"
       y="0"
       width="100%"
       height="100%" />
    <use
       xlink:href="#surface648"
       transform="translate(66,308)"
       mask="url(#mask5)"
       id="use345"
       x="0"
       y="0"
       width="100%"
       height="100%" />
    <use
       xlink:href="#surface651"
       transform="translate(86,308)"
       mask="url(#mask6)"
       id="use347"
       x="0"
       y="0"
       width="100%"
       height="100%" />
    <use
       xlink:href="#surface654"
       transform="translate(110,308)"
       mask="url(#mask7)"
       id="use349"
       x="0"
       y="0"
       width="100%"
       height="100%" />
    <use
       xlink:href="#surface657"
       transform="translate(149,308)"
       mask="url(#mask8)"
       id="use351"
       x="0"
       y="0"
       width="100%"
       height="100%" />
    <use
       xlink:href="#surface660"
       transform="translate(170,308)"
       mask="url(#mask9)"
       id="use353"
       x="0"
       y="0"
       width="100%"
       height="100%" />
    <use
       xlink:href="#surface663"
       transform="translate(193,308)"
       mask="url(#mask10)"
       id="use355"
       x="0"
       y="0"
       width="100%"
       height="100%" />
    <use
       xlink:href="#surface666"
       transform="translate(216,308)"
       mask="url(#mask11)"
       id="use357"
       x="0"
       y="0"
       width="100%"
       height="100%" />
    <use
       xlink:href="#surface669"
       transform="translate(237,308)"
       mask="url(#mask12)"
       id="use359"
       x="0"
       y="0"
       width="100%"
       height="100%" />
    <use
       xlink:href="#surface672"
       transform="translate(258,308)"
       mask="url(#mask13)"
       id="use361"
       x="0"
       y="0"
       width="100%"
       height="100%" />
    <use
       xlink:href="#surface675"
       transform="translate(281,308)"
       mask="url(#mask14)"
       id="use363"
       x="0"
       y="0"
       width="100%"
       height="100%" />
    <use
       xlink:href="#surface678"
       transform="translate(303,308)"
       mask="url(#mask15)"
       id="use365"
       x="0"
       y="0"
       width="100%"
       height="100%" />
    <use
       xlink:href="#surface681"
       transform="translate(325,308)"
       mask="url(#mask16)"
       id="use367"
       x="0"
       y="0"
       width="100%"
       height="100%" />
    <use
       xlink:href="#surface684"
       transform="translate(347,308)"
       mask="url(#mask17)"
       id="use369"
       x="0"
       y="0"
       width="100%"
       height="100%" />
    <use
       xlink:href="#surface683"
       transform="translate(369,308)"
       mask="url(#mask18)"
       id="use371"
       x="0"
       y="0"
       width="100%"
       height="100%" />
    <path
       style="fill:#4c4f57;fill-opacity:1;fill-rule:nonzero;stroke:none"
       d="m 40.601562,297.68359 v -15.97265 l -5.230468,10.39453 H 31.75 l -5.269531,-10.39453 v 15.97265 h -5.347657 v -27.39843 h 5.269532 l 7.15625,14.8164 7.121094,-14.8164 h 5.273437 v 27.39843 z m 0,0"
       id="path373"
       inkscape:connector-curvature="0" />
    <path
       style="fill:#4c4f57;fill-opacity:1;fill-rule:nonzero;stroke:none"
       d="m 54.800781,297.68359 v -27.39843 h 18.046875 v 4.76953 H 60.152344 v 6.42578 h 10.8125 v 4.77344 h -10.8125 v 6.65625 h 12.695312 v 4.77343 z m 0,0"
       id="path375"
       inkscape:connector-curvature="0" />
    <path
       style="fill:#4c4f57;fill-opacity:1;fill-rule:nonzero;stroke:none"
       d="m 94.824219,278.67187 c 0,-1.07421 -0.355469,-1.94921 -1.058594,-2.61328 -0.703125,-0.66797 -1.648437,-1.0039 -2.828125,-1.0039 h -5.039062 v 7.23828 H 90.9375 c 1.179688,0 2.125,-0.33594 2.828125,-1.00391 0.703125,-0.66406 1.058594,-1.53906 1.058594,-2.61719 m 0.269531,19.01172 -5.347656,-10.92968 h -3.847656 v 10.92968 h -5.351563 v -27.40234 h 10.738281 c 1.382813,0 2.628906,0.23047 3.730469,0.67969 1.101563,0.44531 2.039063,1.05078 2.808594,1.80468 0.769531,0.75782 1.355469,1.64063 1.753906,2.65625 0.394531,1.01172 0.593755,2.09375 0.593755,3.25 0,0.97657 -0.13282,1.84766 -0.402349,2.61719 -0.273437,0.76953 -0.636719,1.45703 -1.097656,2.0586 -0.460937,0.60156 -0.996094,1.11718 -1.59375,1.53906 -0.605469,0.42578 -1.242187,0.7539 -1.910156,0.98437 l 6.121091,11.8125 z m 0,0"
       id="path377"
       inkscape:connector-curvature="0" />
    <path
       style="fill:#4c4f57;fill-opacity:1;fill-rule:nonzero;stroke:none"
       d="m 126.16797,293.02734 c -0.60156,1.07813 -1.34766,1.98438 -2.23047,2.71485 -0.88672,0.73047 -1.89453,1.27343 -3.02344,1.63281 -1.1289,0.35937 -2.32031,0.53906 -3.57812,0.53906 -1.51563,0 -2.87891,-0.2539 -4.09766,-0.76953 -1.21875,-0.51172 -2.3164,-1.25391 -3.28906,-2.23047 -0.69531,-0.69531 -1.22656,-1.42969 -1.59766,-2.21094 -0.375,-0.78515 -0.63672,-1.625 -0.78906,-2.52343 -0.15625,-0.89844 -0.24609,-1.86328 -0.26953,-2.88672 -0.0273,-1.02735 -0.0391,-2.12891 -0.0391,-3.3086 0,-1.17968 0.0117,-2.28515 0.0391,-3.30859 0.0234,-1.02734 0.11328,-1.98828 0.26953,-2.88672 0.15234,-0.89844 0.41406,-1.73828 0.78906,-2.51953 0.3711,-0.78125 0.90235,-1.52344 1.59766,-2.21484 0.97266,-0.97266 2.07031,-1.71485 3.28906,-2.23047 1.21875,-0.51563 2.58203,-0.76953 4.09766,-0.76953 1.28125,0 2.48437,0.17578 3.59765,0.53906 1.11329,0.35937 2.11719,0.90234 3.00391,1.63672 0.88281,0.73047 1.62891,1.63281 2.23047,2.71094 0.60156,1.07421 1.01953,2.33203 1.25,3.76953 h -5.42578 c -0.28125,-1.10157 -0.78125,-2.02735 -1.5,-2.76953 -0.71875,-0.7461 -1.75781,-1.11329 -3.11719,-1.11329 -0.74609,0 -1.40625,0.125 -1.98047,0.38282 -0.57812,0.2539 -1.05859,0.60156 -1.44531,1.03515 -0.25391,0.28516 -0.47266,0.59766 -0.65234,0.94532 -0.1836,0.34765 -0.32032,0.80078 -0.42579,1.36718 -0.10156,0.56641 -0.17187,1.28516 -0.21093,2.15235 -0.0391,0.875 -0.0586,1.96484 -0.0586,3.27343 0,1.3086 0.0195,2.39844 0.0586,3.26954 0.0391,0.875 0.10937,1.59375 0.21093,2.15625 0.10547,0.5625 0.24219,1.01953 0.42579,1.36718 0.17968,0.34375 0.39843,0.66016 0.65234,0.94141 0.38672,0.4375 0.86719,0.78125 1.44531,1.03906 0.57422,0.25391 1.23438,0.38672 1.98047,0.38672 1.35938,0 2.39844,-0.375 3.11719,-1.12109 0.71875,-0.74219 1.21875,-1.66407 1.5,-2.76953 h 5.42578 c -0.23047,1.4375 -0.64844,2.69531 -1.25,3.77343"
       id="path379"
       inkscape:connector-curvature="0" />
    <path
       style="fill:#4c4f57;fill-opacity:1;fill-rule:nonzero;stroke:none"
       d="m 143.3125,278.36719 -3.46484,9.96484 h 6.80859 z m 6.38672,19.3164 -1.61719,-4.84765 h -9.73437 l -1.65625,4.84765 h -5.58204 l 9.96875,-27.40234 h 4.19532 l 10.00781,27.40234 z m 0,0"
       id="path381"
       inkscape:connector-curvature="0" />
    <path
       style="fill:#4c4f57;fill-opacity:1;fill-rule:nonzero;stroke:none"
       d="m 169.28906,275.05469 v 22.6289 h -5.35156 v -22.6289 h -7.15625 v -4.76953 h 19.66016 v 4.76953 z m 0,0"
       id="path383"
       inkscape:connector-curvature="0" />
    <path
       style="fill:#4c4f57;fill-opacity:1;fill-rule:nonzero;stroke:none"
       d="m 196.45312,283.98437 c 0,-1.30859 -0.0156,-2.39453 -0.0586,-3.25 -0.0391,-0.86328 -0.10547,-1.57421 -0.21094,-2.13671 -0.10156,-0.56641 -0.24218,-1.01954 -0.42187,-1.36719 -0.17969,-0.34766 -0.39844,-0.66016 -0.65235,-0.94531 -0.38671,-0.4336 -0.86718,-0.78516 -1.4414,-1.05469 -0.58203,-0.26953 -1.24219,-0.40625 -1.98438,-0.40625 -0.74609,0 -1.41406,0.13672 -2.0039,0.40625 -0.58594,0.26953 -1.07422,0.62109 -1.46094,1.05469 -0.25781,0.28515 -0.46875,0.59765 -0.63672,0.94531 -0.16406,0.34765 -0.30078,0.80078 -0.40234,1.36719 -0.10157,0.5625 -0.17188,1.27343 -0.21094,2.13671 -0.0391,0.85547 -0.0586,1.94141 -0.0586,3.25 0,1.30469 0.0195,2.39063 0.0586,3.25391 0.0391,0.85547 0.10937,1.57031 0.21094,2.13281 0.10156,0.56641 0.23828,1.01953 0.40234,1.36719 0.16797,0.34375 0.37891,0.66016 0.63672,0.94141 0.38672,0.4375 0.875,0.78906 1.46094,1.05859 0.58984,0.26953 1.25781,0.40625 2.0039,0.40625 0.74219,0 1.40235,-0.13672 1.98438,-0.40625 0.57422,-0.26953 1.05469,-0.62109 1.4414,-1.05859 0.25391,-0.28125 0.47266,-0.59766 0.65235,-0.94141 0.17969,-0.34766 0.32031,-0.80078 0.42187,-1.36719 0.10547,-0.5625 0.17188,-1.27734 0.21094,-2.13281 0.043,-0.86328 0.0586,-1.94922 0.0586,-3.25391 m 5.35157,0 c 0,1.17969 -0.0117,2.28125 -0.0391,3.3086 -0.0273,1.02734 -0.125,1.98828 -0.28906,2.88672 -0.16797,0.89843 -0.4375,1.73828 -0.80469,2.51953 -0.375,0.78515 -0.91015,1.51953 -1.60156,2.21484 -0.97265,0.97656 -2.05859,1.71875 -3.25,2.23047 -1.1914,0.51563 -2.57031,0.76953 -4.13672,0.76953 -1.5664,0 -2.95312,-0.2539 -4.15625,-0.76953 -1.20703,-0.51172 -2.29687,-1.25391 -3.26953,-2.23047 -0.69531,-0.69531 -1.22656,-1.42969 -1.59765,-2.21484 -0.375,-0.78125 -0.63672,-1.6211 -0.78907,-2.51953 -0.15625,-0.89844 -0.24609,-1.85938 -0.26953,-2.88672 -0.0273,-1.02735 -0.0391,-2.12891 -0.0391,-3.3086 0,-1.17968 0.0117,-2.28515 0.0391,-3.30859 0.0234,-1.02734 0.11328,-1.98828 0.26953,-2.89062 0.15235,-0.89454 0.41407,-1.73438 0.78907,-2.51563 0.37109,-0.78125 0.90234,-1.52344 1.59765,-2.21094 0.97266,-0.97656 2.0625,-1.72265 3.26953,-2.23437 1.20313,-0.51172 2.58985,-0.76953 4.15625,-0.76953 1.56641,0 2.94532,0.25781 4.13672,0.76953 1.19141,0.51172 2.27735,1.25781 3.25,2.23437 0.69141,0.6875 1.22656,1.42969 1.60156,2.21094 0.36719,0.78125 0.63672,1.62109 0.80469,2.51563 0.16406,0.90234 0.26172,1.86328 0.28906,2.89062 0.0273,1.02344 0.0391,2.12891 0.0391,3.30859"
       id="path385"
       inkscape:connector-curvature="0" />
    <path
       style="fill:#4c4f57;fill-opacity:1;fill-rule:nonzero;stroke:none"
       d="m 224.00781,278.67187 c 0,-1.07421 -0.35547,-1.94921 -1.05859,-2.61328 -0.70313,-0.66797 -1.64453,-1.0039 -2.82813,-1.0039 h -5.03906 v 7.23828 h 5.03906 c 1.1836,0 2.125,-0.33594 2.82813,-1.00391 0.70312,-0.66406 1.05859,-1.53906 1.05859,-2.61719 m 0.26953,19.01172 -5.34765,-10.92968 h -3.84766 v 10.92968 h -5.35156 v -27.40234 h 10.73828 c 1.38672,0 2.62891,0.23047 3.73047,0.67969 1.10547,0.44531 2.03906,1.05078 2.80859,1.80468 0.76953,0.75782 1.35547,1.64063 1.75391,2.65625 0.39453,1.01172 0.59765,2.09375 0.59765,3.25 0,0.97657 -0.13671,1.84766 -0.40625,2.61719 -0.26953,0.76953 -0.63281,1.45703 -1.09765,2.0586 -0.46094,0.60156 -0.9961,1.11718 -1.59375,1.53906 -0.60547,0.42578 -1.24219,0.7539 -1.90625,0.98437 l 6.11719,11.8125 z m 0,0"
       id="path387"
       inkscape:connector-curvature="0" />
    <path
       style="fill:#4c4f57;fill-opacity:1;fill-rule:nonzero;stroke:none"
       d="m 268.35156,283.98437 c 0,-1.46484 -0.0195,-2.71484 -0.0586,-3.75 -0.0391,-1.03906 -0.12891,-1.9375 -0.26953,-2.69531 -0.14063,-0.75781 -0.35157,-1.41406 -0.63282,-1.96484 -0.28515,-0.55078 -0.66796,-1.07031 -1.15625,-1.5586 -0.6914,-0.6914 -1.48437,-1.21875 -2.38671,-1.57812 -0.89844,-0.35547 -1.83204,-0.53516 -2.8086,-0.53516 -0.97265,0 -1.91015,0.17969 -2.80859,0.53516 -0.89844,0.35937 -1.69141,0.88672 -2.38672,1.57812 -0.48828,0.48829 -0.87109,1.00782 -1.15625,1.5586 -0.28125,0.55078 -0.49219,1.20703 -0.63281,1.96484 -0.14063,0.75781 -0.23047,1.65625 -0.26953,2.69531 -0.0391,1.03516 -0.0586,2.28516 -0.0586,3.75 0,1.46094 0.0195,2.71094 0.0586,3.75391 0.0391,1.03906 0.1289,1.93359 0.26953,2.69141 0.14062,0.75781 0.35156,1.41015 0.63281,1.96093 0.28516,0.55469 0.66797,1.07422 1.15625,1.5586 0.69531,0.69531 1.48828,1.21875 2.38672,1.57812 0.89844,0.36328 1.83594,0.53907 2.80859,0.53907 0.97656,0 1.91016,-0.17579 2.8086,-0.53907 0.90234,-0.35937 1.69531,-0.88281 2.38671,-1.57812 0.48829,-0.48438 0.8711,-1.00391 1.15625,-1.5586 0.28125,-0.55078 0.49219,-1.20312 0.63282,-1.96093 0.14062,-0.75782 0.23047,-1.65235 0.26953,-2.69141 0.0391,-1.04297 0.0586,-2.29297 0.0586,-3.75391 m 2.07813,0 c 0,1.53907 -0.0156,2.86719 -0.0391,3.98438 -0.0273,1.11328 -0.12109,2.09375 -0.28906,2.94141 -0.16406,0.84765 -0.42187,1.60156 -0.76953,2.26953 -0.34766,0.67187 -0.82422,1.30859 -1.44141,1.92578 -0.90234,0.89844 -1.9414,1.58984 -3.11718,2.07812 -1.17969,0.48828 -2.42578,0.73047 -3.73438,0.73047 -1.30859,0 -2.55469,-0.24219 -3.73047,-0.73047 -1.18359,-0.48828 -2.22265,-1.17968 -3.12109,-2.07812 -0.61328,-0.61719 -1.09375,-1.25391 -1.44141,-1.92578 -0.34375,-0.66797 -0.60156,-1.42188 -0.76953,-2.26953 -0.16797,-0.84766 -0.26172,-1.82813 -0.28906,-2.94141 -0.0273,-1.11719 -0.0391,-2.44531 -0.0391,-3.98438 0,-1.53906 0.0117,-2.86718 0.0391,-3.98437 0.0273,-1.11719 0.12109,-2.09766 0.28906,-2.94141 0.16797,-0.84765 0.42578,-1.60547 0.76953,-2.27343 0.34766,-0.66407 0.82813,-1.3086 1.44141,-1.92188 0.89844,-0.89844 1.9375,-1.59375 3.12109,-2.07812 1.17578,-0.48829 2.42188,-0.73047 3.73047,-0.73047 1.3086,0 2.55469,0.24218 3.73438,0.73047 1.17578,0.48437 2.21484,1.17968 3.11718,2.07812 0.61719,0.61328 1.09375,1.25781 1.44141,1.92188 0.34766,0.66796 0.60547,1.42578 0.76953,2.27343 0.16797,0.84375 0.26172,1.82422 0.28906,2.94141 0.0234,1.11719 0.0391,2.44531 0.0391,3.98437"
       id="path389"
       inkscape:connector-curvature="0" />
    <path
       style="fill:#4c4f57;fill-opacity:1;fill-rule:nonzero;stroke:none"
       d="m 296.75,293.23828 c -0.53516,0.98828 -1.21094,1.83203 -2.01563,2.51953 -0.8125,0.69531 -1.73437,1.22656 -2.77343,1.59766 -1.03907,0.37109 -2.16016,0.55859 -3.36719,0.55859 -1.30859,0 -2.55078,-0.24219 -3.73047,-0.73047 -1.18359,-0.48828 -2.22266,-1.17968 -3.12109,-2.07812 -0.61328,-0.61719 -1.09766,-1.25781 -1.44141,-1.92578 -0.34375,-0.66797 -0.60156,-1.42188 -0.76953,-2.26953 -0.16797,-0.84766 -0.26563,-1.82813 -0.28906,-2.94141 -0.0274,-1.11719 -0.0391,-2.44531 -0.0391,-3.98438 0,-1.53906 0.0117,-2.86718 0.0391,-3.98437 0.0234,-1.11719 0.12109,-2.09766 0.28906,-2.94531 0.16797,-0.84375 0.42578,-1.60157 0.76953,-2.26953 0.34375,-0.66407 0.82813,-1.3086 1.44141,-1.92188 0.89843,-0.89844 1.9375,-1.59375 3.12109,-2.07812 1.17969,-0.48829 2.42188,-0.73047 3.73047,-0.73047 2.48828,0 4.54687,0.71093 6.17578,2.13281 1.62891,1.42578 2.67578,3.38281 3.13672,5.87109 h -2.11719 c -0.41015,-1.92578 -1.25,-3.43359 -2.51953,-4.52343 -1.26953,-1.08594 -2.82812,-1.63282 -4.67578,-1.63282 -0.97266,0 -1.91016,0.17969 -2.80859,0.53516 -0.89844,0.35937 -1.69141,0.88672 -2.38672,1.57812 -0.48828,0.48829 -0.875,1.00782 -1.15625,1.5586 -0.28125,0.55078 -0.49219,1.20703 -0.63282,1.96484 -0.14062,0.75781 -0.23046,1.65625 -0.26953,2.69531 -0.0391,1.03516 -0.0547,2.28516 -0.0547,3.75 0,1.46094 0.0156,2.71485 0.0547,3.75391 0.0391,1.03906 0.12891,1.93359 0.26953,2.69141 0.14063,0.7539 0.35157,1.41015 0.63282,1.96093 0.28125,0.55469 0.66797,1.07422 1.15625,1.5586 0.69531,0.69531 1.48828,1.21875 2.38672,1.57812 0.89843,0.36328 1.83593,0.54297 2.80859,0.54297 1.84766,0 3.41797,-0.54687 4.71484,-1.64062 1.29297,-1.08985 2.14844,-2.59375 2.5586,-4.51953 h 2.03906 c -0.23047,1.23046 -0.61719,2.34375 -1.15625,3.32812"
       id="path391"
       inkscape:connector-curvature="0" />
    <path
       style="fill:#4c4f57;fill-opacity:1;fill-rule:nonzero;stroke:none"
       d="m 307.52734,270.28516 h 16.625 v 1.84765 h -14.54687 v 10.8125 h 12.39062 v 1.84766 h -12.39062 v 11.04297 h 14.54687 v 1.84765 h -16.625 z m 0,0"
       id="path393"
       inkscape:connector-curvature="0" />
    <path
       style="fill:#4c4f57;fill-opacity:1;fill-rule:nonzero;stroke:none"
       d="m 334.61719,289.17969 h 11.46875 l -5.73438,-16.125 z m 12.12109,1.84765 h -12.77734 l -2.38672,6.65625 h -2.23047 l 10.08203,-27.39843 h 1.84766 l 10.08203,27.39843 H 349.125 Z m 0,0"
       id="path395"
       inkscape:connector-curvature="0" />
    <path
       style="fill:#4c4f57;fill-opacity:1;fill-rule:nonzero;stroke:none"
       d="m 360.70703,273.86328 v 23.82031 h -2.07422 v -27.39843 h 2.07422 l 15.81641,23.74218 v -23.74218 h 2.07812 v 27.39843 h -2.07812 z m 0,0"
       id="path397"
       inkscape:connector-curvature="0" />
  </g>
</svg>
