<?xml version="1.0" encoding="UTF-8" standalone="no"?>
<svg
   xmlns:dc="http://purl.org/dc/elements/1.1/"
   xmlns:cc="http://creativecommons.org/ns#"
   xmlns:rdf="http://www.w3.org/1999/02/22-rdf-syntax-ns#"
   xmlns:svg="http://www.w3.org/2000/svg"
   xmlns="http://www.w3.org/2000/svg"
   xmlns:sodipodi="http://sodipodi.sourceforge.net/DTD/sodipodi-0.dtd"
   xmlns:inkscape="http://www.inkscape.org/namespaces/inkscape"
   id="Calque_1"
   data-name="Calque 1"
   viewBox="0 0 524.00002 123.51709"
   version="1.1"
   sodipodi:docname="logo_03_white_big.svg"
   width="524"
   height="123.5171"
   inkscape:version="0.92.3 (2405546, 2018-03-11)">
  <metadata
     id="metadata79">
    <rdf:RDF>
      <cc:Work
         rdf:about="">
        <dc:format>image/svg+xml</dc:format>
        <dc:type
           rdf:resource="http://purl.org/dc/dcmitype/StillImage" />
        <dc:title>ON-logo-03-blue</dc:title>
      </cc:Work>
    </rdf:RDF>
  </metadata>
  <sodipodi:namedview
     pagecolor="#9f9f9f"
     bordercolor="#666666"
     borderopacity="1"
     objecttolerance="10"
     gridtolerance="10"
     guidetolerance="10"
     inkscape:pageopacity="0"
     inkscape:pageshadow="2"
     inkscape:window-width="2488"
     inkscape:window-height="1361"
     id="namedview77"
     showgrid="false"
     fit-margin-left="2"
     fit-margin-top="2"
     fit-margin-right="2"
     fit-margin-bottom="2"
     inkscape:zoom="2.515148"
     inkscape:cx="239.77723"
     inkscape:cy="-0.40477716"
     inkscape:window-x="72"
     inkscape:window-y="0"
     inkscape:window-maximized="1"
     inkscape:current-layer="Calque_1" />
  <defs
     id="defs4">
    <style
       id="style2">.cls-1{fill:#0789b8;}</style>
  </defs>
  <title
     id="title6">ON-logo-03-blue</title>
  <g
     id="g923"
     transform="matrix(2.0523613,0,0,2.0523613,-11.490789,-19.629299)">
    <path
       style="fill:#ffffff"
       inkscape:connector-curvature="0"
       id="path8"
       d="m 119.82,46.310001 a 4.89,4.89 0 0 0 2.31,-0.55 5.2,5.2 0 0 0 1.77,-1.44 l 2.6,2 a 8.59,8.59 0 0 1 -2.89,2.38 8.43,8.43 0 0 1 -7.06,0.24 8.67,8.67 0 0 1 -2.71,-1.82 8.38,8.38 0 0 1 -1.83,-2.7 8.41,8.41 0 0 1 0,-6.58 8.45,8.45 0 0 1 1.83,-2.69 8.67,8.67 0 0 1 2.71,-1.82 8.17,8.17 0 0 1 3.27,-0.66 8.3,8.3 0 0 1 6.68,3.33 l -2.6,2 a 5,5 0 0 0 -1.77,-1.46 5.13,5.13 0 0 0 -2.31,-0.53 5.26,5.26 0 0 0 -2,0.4 5.12,5.12 0 0 0 -2.76,2.75 5.15,5.15 0 0 0 0,4 5.21,5.21 0 0 0 1.11,1.65 5.38,5.38 0 0 0 1.65,1.11 4.93,4.93 0 0 0 2,0.39 z"
       class="cls-1" />
    <path
       style="fill:#ffffff"
       inkscape:connector-curvature="0"
       id="path10"
       d="m 141.39,42.260001 h -6.45 a 5.22,5.22 0 0 0 0.66,1.62 4.92,4.92 0 0 0 1.14,1.3 5.24,5.24 0 0 0 1.51,0.86 5.18,5.18 0 0 0 1.77,0.3 5,5 0 0 0 2.1,-0.45 5.55,5.55 0 0 0 1.72,-1.25 h 3.88 a 5.23,5.23 0 0 1 -0.47,0.91 9.91,9.91 0 0 1 -0.59,0.85 8.33,8.33 0 0 1 -2.89,2.36 8.16,8.16 0 0 1 -3.75,0.89 8.42,8.42 0 0 1 -6,-2.48 8.44,8.44 0 0 1 -1.81,-2.69 8.63,8.63 0 0 1 0,-6.62 8.48,8.48 0 0 1 4.51,-4.51 8.32,8.32 0 0 1 3.31,-0.66 8.16,8.16 0 0 1 3.75,0.89 8.3,8.3 0 0 1 2.88,2.42 8.28,8.28 0 0 1 1.83,5.2 5.45,5.45 0 0 1 -0.1,1.09 h -7 z m -1.39,-6.26 a 5,5 0 0 0 -2.81,0.81 5.18,5.18 0 0 0 -1.86,2.19 h 9.37 a 5.09,5.09 0 0 1 -0.3,-0.5 5.66,5.66 0 0 0 -0.31,-0.48 5.27,5.27 0 0 0 -1.8,-1.44 5,5 0 0 0 -2.29,-0.58 z"
       class="cls-1" />
    <path
       style="fill:#ffffff"
       inkscape:connector-curvature="0"
       id="path12"
       d="m 161.64,32.690001 a 8.2,8.2 0 0 1 3.31,0.68 8.85,8.85 0 0 1 2.73,1.83 8.48,8.48 0 0 1 1.84,2.73 8.37,8.37 0 0 1 0.67,3.34 v 8.31 h -3.3 v -1.58 a 9.18,9.18 0 0 1 -2.41,1.3 8.51,8.51 0 0 1 -6.15,-0.2 8.59,8.59 0 0 1 -4.54,-4.54 8.29,8.29 0 0 1 -0.68,-3.32 8.38,8.38 0 0 1 0.68,-3.34 8.48,8.48 0 0 1 4.53,-4.56 8.25,8.25 0 0 1 3.32,-0.65 z m 0,13.81 a 5,5 0 0 0 2,-0.42 5.61,5.61 0 0 0 1.71,-1.08 5.46,5.46 0 0 0 1.12,-1.66 5.14,5.14 0 0 0 0,-4.07 5.5,5.5 0 0 0 -1.12,-1.67 5.61,5.61 0 0 0 -1.66,-1.13 5.14,5.14 0 0 0 -4.07,0 5.37,5.37 0 0 0 -1.62,1.08 5.5,5.5 0 0 0 -1.12,1.67 5.14,5.14 0 0 0 0,4.07 5.46,5.46 0 0 0 1.12,1.71 5.37,5.37 0 0 0 1.66,1.13 5,5 0 0 0 1.99,0.37 z"
       class="cls-1" />
    <path
       style="fill:#ffffff"
       inkscape:connector-curvature="0"
       id="path14"
       d="m 182.48,32.690001 a 7.24,7.24 0 0 1 2.18,0.33 7,7 0 0 1 1.92,0.9 7.57,7.57 0 0 1 2.42,2.66 7.32,7.32 0 0 1 0.89,3.56 v 9.48 h -3.32 v -9.48 a 3.9,3.9 0 0 0 -0.33,-1.59 4,4 0 0 0 -0.89,-1.33 4.08,4.08 0 0 0 -1.31,-0.88 3.82,3.82 0 0 0 -1.58,-0.33 v 0 a 3.9,3.9 0 0 0 -1.59,0.33 4.31,4.31 0 0 0 -1.31,0.88 4.2,4.2 0 0 0 -0.89,1.33 4.07,4.07 0 0 0 -0.32,1.59 v 9.48 H 175 v -9.48 a 7.32,7.32 0 0 1 0.89,-3.56 7.57,7.57 0 0 1 2.43,-2.66 7,7 0 0 1 1.92,-0.9 7.2,7.2 0 0 1 2.18,-0.33 7.37,7.37 0 0 1 2.2,0.33"
       class="cls-1" />
    <path
       style="fill:#ffffff"
       inkscape:connector-curvature="0"
       id="path16"
       d="m 92,64.140001 v -3.8 h -5.15 v 3.8 h -0.6 v -8.14 h 0.6 v 3.75 H 92 v -3.75 h 0.6 v 8.1 z"
       class="cls-1" />
    <path
       style="fill:#ffffff"
       inkscape:connector-curvature="0"
       id="path18"
       d="m 97.61,64.350001 c -0.52,1.24 -1.12,1.68 -2,1.68 a 2.54,2.54 0 0 1 -1.17,-0.26 l 0.19,-0.49 a 2.09,2.09 0 0 0 1,0.22 c 0.61,0 1,-0.36 1.46,-1.39 l -2.79,-5.87 H 95 l 2.46,5.28 2.13,-5.28 h 0.62 z"
       class="cls-1" />
    <path
       style="fill:#ffffff"
       inkscape:connector-curvature="0"
       id="path20"
       d="m 106.37,64.140001 v -1.32 a 2.84,2.84 0 0 1 -2.43,1.46 2.93,2.93 0 0 1 -2.87,-3.07 v 0 a 3,3 0 0 1 2.87,-3.09 2.84,2.84 0 0 1 2.43,1.41 v -3.84 h 0.57 v 8.45 z m 0,-3 a 2.47,2.47 0 0 0 -2.4,-2.54 2.31,2.31 0 0 0 -2.32,2.53 v 0 a 2.38,2.38 0 0 0 2.35,2.61 2.47,2.47 0 0 0 2.4,-2.54 z"
       class="cls-1" />
    <path
       style="fill:#ffffff"
       inkscape:connector-curvature="0"
       id="path22"
       d="m 112.22,58.770001 c -1.37,0 -2.56,1 -2.56,2.95 v 2.42 h -0.57 v -5.9 h 0.57 v 1.67 a 2.81,2.81 0 0 1 2.62,-1.77 v 0.63 z"
       class="cls-1" />
    <path
       style="fill:#ffffff"
       inkscape:connector-curvature="0"
       id="path24"
       d="m 116.05,64.280001 a 3,3 0 0 1 -3,-3.07 v 0 a 3.035,3.035 0 1 1 6.07,0 v 0 a 3.06,3.06 0 0 1 -3.07,3.07 z m 2.43,-3.09 a 2.47,2.47 0 0 0 -2.43,-2.56 2.44,2.44 0 0 0 -2.41,2.54 v 0 a 2.48,2.48 0 0 0 2.44,2.56 2.43,2.43 0 0 0 2.4,-2.54 z"
       class="cls-1" />
    <path
       style="fill:#ffffff"
       inkscape:connector-curvature="0"
       id="path26"
       d="m 122.76,64.260001 a 4,4 0 0 1 -2.42,-0.86 l 0.33,-0.45 a 3.46,3.46 0 0 0 2.12,0.77 c 0.8,0 1.43,-0.44 1.43,-1.12 v 0 c 0,-0.7 -0.74,-0.95 -1.57,-1.18 -0.83,-0.23 -2,-0.57 -2,-1.62 v 0 a 1.73,1.73 0 0 1 1.94,-1.63 3.94,3.94 0 0 1 2.1,0.65 l -0.3,0.47 a 3.42,3.42 0 0 0 -1.82,-0.59 c -0.81,0 -1.34,0.44 -1.34,1 v 0 c 0,0.66 0.8,0.9 1.64,1.14 0.84,0.24 2,0.62 2,1.66 v 0 a 1.84,1.84 0 0 1 -2.11,1.76 z"
       class="cls-1" />
    <path
       style="fill:#ffffff"
       inkscape:connector-curvature="0"
       id="path28"
       d="m 129.6,64.280001 a 2.84,2.84 0 0 1 -2.43,-1.41 v 3.13 h -0.57 v -7.76 h 0.57 v 1.32 a 2.84,2.84 0 0 1 2.43,-1.46 2.92,2.92 0 0 1 2.87,3.07 v 0 a 3,3 0 0 1 -2.87,3.11 z m 2.26,-3.09 a 2.38,2.38 0 0 0 -2.31,-2.55 2.47,2.47 0 0 0 -2.41,2.54 v 0 a 2.47,2.47 0 0 0 2.41,2.54 2.31,2.31 0 0 0 2.31,-2.53 z"
       class="cls-1" />
    <path
       style="fill:#ffffff"
       inkscape:connector-curvature="0"
       id="path30"
       d="m 138.74,64.140001 v -3.51 a 1.8,1.8 0 0 0 -1.88,-2 2,2 0 0 0 -2.05,2.11 v 3.41 h -0.56 v -8.46 h 0.56 v 3.65 a 2.32,2.32 0 0 1 2.19,-1.24 2.25,2.25 0 0 1 2.36,2.43 v 3.61 z"
       class="cls-1" />
    <path
       style="fill:#ffffff"
       inkscape:connector-curvature="0"
       id="path32"
       d="m 143.86,63.750001 a 2.68,2.68 0 0 0 2,-0.93 l 0.39,0.35 a 3.1,3.1 0 0 1 -2.44,1.11 2.94,2.94 0 0 1 -2.9,-3.08 v 0 a 2.91,2.91 0 0 1 2.8,-3.08 2.79,2.79 0 0 1 2.71,3.09 v 0 a 1.55,1.55 0 0 1 0,0.21 h -4.9 a 2.35,2.35 0 0 0 2.34,2.33 z m 2,-2.84 a 2.19,2.19 0 0 0 -2.12,-2.29 2.3,2.3 0 0 0 -2.18,2.29 z"
       class="cls-1" />
    <path
       style="fill:#ffffff"
       inkscape:connector-curvature="0"
       id="path34"
       d="m 151.24,58.770001 c -1.37,0 -2.56,1 -2.56,2.95 v 2.42 h -0.57 v -5.9 h 0.57 v 1.67 a 2.81,2.81 0 0 1 2.62,-1.77 v 0.63 z"
       class="cls-1" />
    <path
       style="fill:#ffffff"
       inkscape:connector-curvature="0"
       id="path36"
       d="m 155,63.750001 a 2.64,2.64 0 0 0 2,-0.93 l 0.4,0.35 a 3.12,3.12 0 0 1 -2.45,1.11 2.93,2.93 0 0 1 -2.89,-3.08 v 0 a 2.9,2.9 0 0 1 2.8,-3.08 2.79,2.79 0 0 1 2.71,3.09 v 0 a 1.55,1.55 0 0 1 0,0.21 h -4.9 a 2.35,2.35 0 0 0 2.33,2.33 z m 2,-2.84 a 2.19,2.19 0 0 0 -2.12,-2.29 2.3,2.3 0 0 0 -2.18,2.29 z"
       class="cls-1" />
    <path
       style="fill:#ffffff"
       inkscape:connector-curvature="0"
       id="path38"
       d="m 165.52,64.140001 h -2.7 v -8.14 h 2.7 a 4,4 0 0 1 4.31,4 v 0 a 4.06,4.06 0 0 1 -4.31,4.14 z m 3.68,-4 a 3.46,3.46 0 0 0 -3.68,-3.5 h -2.1 v 7 h 2.1 a 3.44,3.44 0 0 0 3.68,-3.48 z"
       class="cls-1" />
    <path
       style="fill:#ffffff"
       inkscape:connector-curvature="0"
       id="path40"
       d="m 175.8,64.140001 v -1 a 2.69,2.69 0 0 1 -2.26,1.12 2.05,2.05 0 0 1 -2.28,-1.85 v 0 c 0,-1.22 1.06,-1.92 2.59,-1.92 a 7.08,7.08 0 0 1 2,0.26 v -0.26 a 1.69,1.69 0 0 0 -1.94,-1.8 4,4 0 0 0 -1.86,0.47 l -0.2,-0.5 a 4.71,4.71 0 0 1 2.09,-0.51 2.18,2.18 0 0 1 2.47,2.32 v 3.68 z m 0,-2.88 a 7.58,7.58 0 0 0 -2,-0.27 c -1.25,0 -1.94,0.56 -1.94,1.38 v 0 c 0,0.86 0.81,1.36 1.71,1.36 a 2,2 0 0 0 2.23,-1.82 z"
       class="cls-1" />
    <path
       style="fill:#ffffff"
       inkscape:connector-curvature="0"
       id="path42"
       d="m 180.31,64.250001 a 1.51,1.51 0 0 1 -1.66,-1.63 v -3.86 h -0.85 v -0.52 h 0.85 v -1.89 h 0.57 v 1.89 h 2.07 v 0.52 h -2.07 v 3.81 a 1,1 0 0 0 1.18,1.14 1.87,1.87 0 0 0 0.87,-0.21 v 0.5 a 2.15,2.15 0 0 1 -0.96,0.25 z"
       class="cls-1" />
    <path
       style="fill:#ffffff"
       inkscape:connector-curvature="0"
       id="path44"
       d="m 187,64.140001 v -1 a 2.72,2.72 0 0 1 -2.26,1.12 2.05,2.05 0 0 1 -2.28,-1.85 v 0 c 0,-1.22 1,-1.92 2.58,-1.92 a 7.16,7.16 0 0 1 2,0.26 v -0.26 c 0,-1.19 -0.73,-1.8 -1.95,-1.8 a 3.9,3.9 0 0 0 -1.85,0.47 l -0.21,-0.5 a 4.74,4.74 0 0 1 2.09,-0.51 2.18,2.18 0 0 1 2.47,2.32 v 3.68 z m 0,-2.88 a 7.73,7.73 0 0 0 -2,-0.27 c -1.25,0 -1.94,0.56 -1.94,1.38 v 0 c 0,0.86 0.81,1.36 1.71,1.36 a 2,2 0 0 0 2.23,-1.8 z"
       class="cls-1" />
    <path
       style="fill:#ffffff"
       inkscape:connector-curvature="0"
       id="path46"
       d="m 199.22,64.300001 -1.4,-1.44 a 3.54,3.54 0 0 1 -2.75,1.4 2.29,2.29 0 0 1 -2.48,-2.26 c 0,-1.1 0.77,-1.9 2.09,-2.39 a 2.67,2.67 0 0 1 -0.9,-1.86 1.88,1.88 0 0 1 2,-1.85 1.8,1.8 0 0 1 1.87,1.77 c 0,1 -0.75,1.68 -2,2.11 l 2.16,2.22 a 10.3,10.3 0 0 0 1.05,-2 l 0.55,0.22 a 11.35,11.35 0 0 1 -1.21,2.15 l 1.49,1.54 z m -4.22,-4.3 c -1.28,0.44 -1.85,1.2 -1.85,2 a 1.79,1.79 0 0 0 1.9,1.76 3.11,3.11 0 0 0 2.35,-1.28 z m 0.74,-3.57 a 1.33,1.33 0 0 0 -1.4,1.32 c 0,0.52 0.22,0.91 0.94,1.68 1.16,-0.37 1.75,-0.93 1.75,-1.72 a 1.26,1.26 0 0 0 -1.25,-1.3 z"
       class="cls-1" />
    <path
       style="fill:#ffffff"
       inkscape:connector-curvature="0"
       id="path48"
       d="m 211.05,64.140001 -5.71,-7.2 v 7.2 h -0.58 v -8.14 h 0.56 l 5.6,7.05 v -7.05 h 0.58 v 8.1 z"
       class="cls-1" />
    <path
       style="fill:#ffffff"
       inkscape:connector-curvature="0"
       id="path50"
       d="m 218.16,64.140001 v -1.14 a 2.32,2.32 0 0 1 -2.16,1.28 2.25,2.25 0 0 1 -2.37,-2.43 v -3.61 h 0.57 v 3.5 a 1.8,1.8 0 0 0 1.88,2 2,2 0 0 0 2,-2.11 v -3.39 h 0.56 v 5.9 z"
       class="cls-1" />
    <path
       style="fill:#ffffff"
       inkscape:connector-curvature="0"
       id="path52"
       d="m 229.24,64.140001 v -3.51 c 0,-1.27 -0.66,-2 -1.75,-2 a 1.9,1.9 0 0 0 -1.86,2.08 v 3.44 h -0.57 v -3.55 c 0,-1.23 -0.67,-2 -1.73,-2 a 2,2 0 0 0 -1.88,2.12 v 3.4 h -0.57 v -5.9 h 0.57 v 1 a 2.17,2.17 0 0 1 2,-1.19 2.13,2.13 0 0 1 2,1.27 2.34,2.34 0 0 1 2.13,-1.27 2.22,2.22 0 0 1 2.27,2.46 v 3.58 z"
       class="cls-1" />
    <path
       style="fill:#ffffff"
       inkscape:connector-curvature="0"
       id="path54"
       d="m 234.41,63.750001 a 2.64,2.64 0 0 0 2,-0.93 l 0.4,0.35 a 3.12,3.12 0 0 1 -2.45,1.11 2.93,2.93 0 0 1 -2.89,-3.08 v 0 a 2.9,2.9 0 0 1 2.8,-3.08 2.79,2.79 0 0 1 2.73,3.07 v 0 a 1.55,1.55 0 0 1 0,0.21 h -4.9 a 2.34,2.34 0 0 0 2.31,2.35 z m 2,-2.84 a 2.19,2.19 0 0 0 -2.12,-2.29 2.3,2.3 0 0 0 -2.18,2.29 z"
       class="cls-1" />
    <path
       style="fill:#ffffff"
       inkscape:connector-curvature="0"
       id="path56"
       d="m 241.78,58.770001 a 2.64,2.64 0 0 0 -2.56,2.95 v 2.42 h -0.56 v -5.9 h 0.56 v 1.67 a 2.82,2.82 0 0 1 2.62,-1.77 v 0.63 z"
       class="cls-1" />
    <path
       style="fill:#ffffff"
       inkscape:connector-curvature="0"
       id="path58"
       d="m 243.3,56.700001 v -0.78 h 0.7 v 0.78 z m 0.07,7.44 v -5.9 h 0.57 v 5.9 z"
       class="cls-1" />
    <path
       style="fill:#ffffff"
       inkscape:connector-curvature="0"
       id="path60"
       d="m 248.78,64.280001 a 3,3 0 0 1 -3,-3.07 v 0 a 3,3 0 0 1 5.37,-2 l -0.4,0.41 a 2.67,2.67 0 0 0 -2,-1 2.44,2.44 0 0 0 -2.39,2.54 v 0 a 2.49,2.49 0 0 0 2.43,2.56 2.61,2.61 0 0 0 2,-1 l 0.4,0.35 a 3,3 0 0 1 -2.41,1.21 z"
       class="cls-1" />
    <path
       style="fill:#ffffff"
       inkscape:connector-curvature="0"
       id="path62"
       d="m 254.7,64.260001 a 4,4 0 0 1 -2.42,-0.86 l 0.33,-0.45 a 3.46,3.46 0 0 0 2.12,0.77 c 0.8,0 1.43,-0.44 1.43,-1.12 v 0 c 0,-0.7 -0.74,-0.95 -1.57,-1.18 -0.83,-0.23 -2,-0.57 -2,-1.62 v 0 a 1.73,1.73 0 0 1 1.94,-1.63 3.94,3.94 0 0 1 2.1,0.65 l -0.3,0.47 a 3.42,3.42 0 0 0 -1.82,-0.59 c -0.81,0 -1.34,0.44 -1.34,1 v 0 c 0,0.66 0.79,0.9 1.64,1.14 0.85,0.24 2,0.62 2,1.66 v 0 a 1.84,1.84 0 0 1 -2.11,1.76 z"
       class="cls-1" />
    <path
       style="fill:#ffffff"
       inkscape:connector-curvature="0"
       id="path64"
       d="m 202,26.000001 a 7.24,7.24 0 0 1 2.18,0.32 7,7 0 0 1 1.92,0.9 7.45,7.45 0 0 1 2.42,2.66 7.24,7.24 0 0 1 0.9,3.56 v 16.2 h -3.32 v -16.22 a 3.9,3.9 0 0 0 -0.33,-1.59 4,4 0 0 0 -0.89,-1.33 4.19,4.19 0 0 0 -1.31,-0.88 3.82,3.82 0 0 0 -1.58,-0.32 v 0 a 3.9,3.9 0 0 0 -1.59,0.32 4.11,4.11 0 0 0 -2.2,2.21 3.9,3.9 0 0 0 -0.32,1.59 v 16.2 h -3.32 v -16.2 a 7.24,7.24 0 0 1 0.89,-3.56 7.48,7.48 0 0 1 2.43,-2.66 7,7 0 0 1 1.92,-0.9 7.17,7.17 0 0 1 2.17,-0.32 7.39,7.39 0 0 1 2.21,0.32"
       class="cls-1" />
    <path
       style="fill:#ffffff"
       inkscape:connector-curvature="0"
       id="path66"
       d="m 223.87,42.180001 h -6.48 a 5.22,5.22 0 0 0 0.66,1.62 5.21,5.21 0 0 0 4.43,2.47 5,5 0 0 0 2.12,-0.45 5.31,5.31 0 0 0 1.72,-1.26 h 3.9 a 5.32,5.32 0 0 1 -0.47,0.92 c -0.18,0.29 -0.38,0.58 -0.59,0.86 a 8.69,8.69 0 0 1 -2.9,2.36 8.1,8.1 0 0 1 -3.78,0.89 8.37,8.37 0 0 1 -3.32,-0.66 8.51,8.51 0 0 1 -2.7,-1.82 8.59,8.59 0 0 1 -1.83,-9.35 8.56,8.56 0 0 1 4.53,-4.53 8.37,8.37 0 0 1 3.32,-0.66 8.22,8.22 0 0 1 3.78,0.89 8.45,8.45 0 0 1 2.9,2.4 8.05,8.05 0 0 1 1.54,3 7.83,7.83 0 0 1 0.29,2.19 6.45,6.45 0 0 1 -0.09,1.1 h -7 z m -1.39,-6.29 a 5.06,5.06 0 0 0 -2.82,0.81 5.31,5.31 0 0 0 -1.88,2.16 h 9.41 c -0.11,-0.17 -0.21,-0.34 -0.31,-0.51 a 3.88,3.88 0 0 0 -0.3,-0.48 5.31,5.31 0 0 0 -1.81,-1.45 5.1,5.1 0 0 0 -2.29,-0.53 z"
       class="cls-1" />
    <path
       style="fill:#ffffff"
       inkscape:connector-curvature="0"
       id="path68"
       d="m 243.12,41.210001 5.58,8.32 h -4 l -3.61,-5.35 -3.58,5.35 h -4 l 5.57,-8.32 -5.8,-8.67 h 4 l 3.8,5.7 3.84,-5.7 h 4 z"
       class="cls-1" />
    <path
       style="fill:#ffffff"
       inkscape:connector-curvature="0"
       id="path70"
       d="m 253.53,26.000001 h 3.32 v 6.49 h 3.09 v 3.32 h -3.09 v 13.8 h -3.32 z"
       class="cls-1" />
    <path
       style="fill:#ffffff"
       inkscape:connector-curvature="0"
       id="path72"
       d="m 95,25.930001 a 11.61,11.61 0 0 1 4.63,0.94 12,12 0 0 1 3.77,2.56 12,12 0 0 1 3.44,8.47 11.63,11.63 0 0 1 -0.92,4.63 11.85,11.85 0 0 1 -6.29,6.34 11.61,11.61 0 0 1 -4.63,0.94 11.47,11.47 0 0 1 -4.6,-0.94 11.88,11.88 0 0 1 -6.28,-6.34 11.63,11.63 0 0 1 -0.92,-4.63 11.76,11.76 0 0 1 0.92,-4.67 11.83,11.83 0 0 1 6.28,-6.36 11.47,11.47 0 0 1 4.6,-0.94 z m 0,20.54 a 7.67,7.67 0 0 0 3.19,-0.67 8.38,8.38 0 0 0 2.58,-1.8 8.5,8.5 0 0 0 1.76,-2.72 8.91,8.91 0 0 0 -1.76,-9.44 8.13,8.13 0 0 0 -2.62,-1.86 7.88,7.88 0 0 0 -6.36,0 8.15,8.15 0 0 0 -2.6,1.86 8.89,8.89 0 0 0 -2.41,6.1 8.75,8.75 0 0 0 2.41,6.06 8.41,8.41 0 0 0 2.6,1.84 7.61,7.61 0 0 0 3.21,0.63 z"
       class="cls-1" />
    <path
       style="fill:#ffffff"
       inkscape:connector-curvature="0"
       id="path74"
       d="m 79.25,17.660001 -3.17,-2.29 a 0.08,0.08 0 0 0 -0.12,0 l -2.96,4.45 a 5.36,5.36 0 0 1 -8.57,0.6 28.39,28.39 0 0 0 -5.7,-5 29,29 0 0 0 -10.23,-4.31 28.8,28.8 0 0 0 -22,4.48 29.12,29.12 0 0 0 -11.83,29.88 6.75,6.75 0 0 1 -1,5.12 l -7.07,10.72 a 0.07,0.07 0 0 0 0,0.11 l 3.15,2.33 a 0.08,0.08 0 0 0 0.12,0 l 2.83,-4.29 a 5.31,5.31 0 0 1 4.15,-2.46 h 0.36 a 5.36,5.36 0 0 1 4.07,1.87 28.69,28.69 0 0 0 15.93,9.31 27.85,27.85 0 0 0 11.43,0 28.35,28.35 0 0 0 10.57,-4.48 28.76,28.76 0 0 0 11.95,-18.25 28.51,28.51 0 0 0 0,-11.49 7.13,7.13 0 0 1 1,-5.43 l 7.11,-10.75 a 0.11,0.11 0 0 0 -0.02,-0.12 z m -58.49,19 a 4.3,4.3 0 0 1 -1.35,-4.4 c 0.17,-0.69 0.31,-1.2 0.44,-1.57 a 25.83,25.83 0 0 1 2.46,-5.17 v 0 a 24.53,24.53 0 0 1 6.48,-6.95 22.91,22.91 0 0 1 8.93,-3.9 23.14,23.14 0 0 1 9.77,0.08 24.67,24.67 0 0 1 8.75,3.85 26.22,26.22 0 0 1 6.76,6.9 v 0 a 8.38,8.38 0 0 1 -1,10.42 14.07,14.07 0 0 1 -2.31,1.9 14.4,14.4 0 0 1 -5.03,2.18 14.62,14.62 0 0 1 -2.87,0.28 15,15 0 0 1 -2.58,-0.28 13.87,13.87 0 0 1 -5.21,-2.08 18.31,18.31 0 0 0 -4.91,-2.3 18.07,18.07 0 0 0 -13.81,1.38 4.08,4.08 0 0 1 -4.52,-0.38 z m 46.15,8.34 a 25.76,25.76 0 0 1 -3.48,8.81 25,25 0 0 1 -6.54,6.91 23.17,23.17 0 0 1 -9,3.9 23.41,23.41 0 0 1 -4.69,0.48 22.6,22.6 0 0 1 -5.05,-0.57 25.16,25.16 0 0 1 -8.67,-3.8 25.86,25.86 0 0 1 -6.73,-6.86 c -0.37,-0.55 -0.73,-1.13 -1.06,-1.72 a 6.5,6.5 0 0 1 0.31,-6.75 14.08,14.08 0 0 1 4,-4 14.35,14.35 0 0 1 10.53,-2.16 13.72,13.72 0 0 1 5.23,2.1 18.07,18.07 0 0 0 4.92,2.3 17.44,17.44 0 0 0 5.16,0.76 18.79,18.79 0 0 0 8.63,-2.18 c 0.45,-0.24 0.9,-0.5 1.33,-0.78 a 3.37,3.37 0 0 1 4.17,0.39 3.48,3.48 0 0 1 0.94,3.17 z"
       class="cls-1" />
  </g>
</svg>
