<svg id="Calque_1" data-name="Calque 1" xmlns="http://www.w3.org/2000/svg" viewBox="0 0 266.52 79.28"><defs><style>.cls-1{fill:#feeb17;}.cls-2{fill:#fff;}</style></defs><title>ON-logo-03-blanc+jaune</title><path class="cls-1" d="M119.82,46.31a4.89,4.89,0,0,0,2.31-.55,5.2,5.2,0,0,0,1.77-1.44l2.6,2a8.59,8.59,0,0,1-2.89,2.38,8.43,8.43,0,0,1-7.06.24,8.67,8.67,0,0,1-2.71-1.82,8.38,8.38,0,0,1-1.83-2.7,8.41,8.41,0,0,1,0-6.58,8.45,8.45,0,0,1,1.83-2.69,8.67,8.67,0,0,1,2.71-1.82,8.17,8.17,0,0,1,3.27-.66A8.3,8.3,0,0,1,126.5,36l-2.6,2a5,5,0,0,0-1.77-1.46,5.13,5.13,0,0,0-2.31-.53,5.26,5.26,0,0,0-2,.4,5.12,5.12,0,0,0-2.76,2.75,5.15,5.15,0,0,0,0,4,5.21,5.21,0,0,0,1.11,1.65,5.38,5.38,0,0,0,1.65,1.11A4.93,4.93,0,0,0,119.82,46.31Z"/><path class="cls-1" d="M141.39,42.26h-6.45a5.22,5.22,0,0,0,.66,1.62,4.92,4.92,0,0,0,1.14,1.3,5.24,5.24,0,0,0,1.51.86,5.18,5.18,0,0,0,1.77.3,5,5,0,0,0,2.1-.45,5.55,5.55,0,0,0,1.72-1.25h3.88a5.23,5.23,0,0,1-.47.91,9.91,9.91,0,0,1-.59.85,8.33,8.33,0,0,1-2.89,2.36,8.16,8.16,0,0,1-3.75.89,8.42,8.42,0,0,1-6-2.48,8.44,8.44,0,0,1-1.81-2.69,8.63,8.63,0,0,1,0-6.62,8.48,8.48,0,0,1,4.51-4.51,8.32,8.32,0,0,1,3.31-.66,8.16,8.16,0,0,1,3.75.89A8.3,8.3,0,0,1,146.66,36a8.28,8.28,0,0,1,1.83,5.2,5.45,5.45,0,0,1-.1,1.09h-7ZM140,36a5,5,0,0,0-2.81.81A5.18,5.18,0,0,0,135.33,39h9.37a5.09,5.09,0,0,1-.3-.5,5.66,5.66,0,0,0-.31-.48,5.41,5.41,0,0,0-1.8-1.45A5.14,5.14,0,0,0,140,36Z"/><path class="cls-1" d="M161.64,32.69a8.2,8.2,0,0,1,3.31.68,8.85,8.85,0,0,1,2.73,1.83,8.48,8.48,0,0,1,1.84,2.73,8.37,8.37,0,0,1,.67,3.34v8.31h-3.3V48a9.18,9.18,0,0,1-2.41,1.3,8.51,8.51,0,0,1-6.15-.2,8.59,8.59,0,0,1-4.54-4.54,8.29,8.29,0,0,1-.68-3.32,8.38,8.38,0,0,1,.68-3.34,8.48,8.48,0,0,1,4.53-4.56A8.25,8.25,0,0,1,161.64,32.69Zm0,13.81a5,5,0,0,0,2-.42A5.61,5.61,0,0,0,165.35,45a5.46,5.46,0,0,0,1.12-1.66,5.14,5.14,0,0,0,0-4.07,5.5,5.5,0,0,0-1.12-1.67,5.61,5.61,0,0,0-1.66-1.13,5.14,5.14,0,0,0-4.07,0A5.37,5.37,0,0,0,158,37.55a5.5,5.5,0,0,0-1.12,1.67,5.14,5.14,0,0,0,0,4.07A5.46,5.46,0,0,0,158,45a5.37,5.37,0,0,0,1.66,1.13A5,5,0,0,0,161.65,46.5Z"/><path class="cls-1" d="M182.48,32.69a7.24,7.24,0,0,1,2.18.33,7,7,0,0,1,1.92.9A7.57,7.57,0,0,1,189,36.58a7.32,7.32,0,0,1,.89,3.56v9.48h-3.32V40.14a3.9,3.9,0,0,0-.33-1.59,4,4,0,0,0-.89-1.33,4.08,4.08,0,0,0-1.31-.88,3.82,3.82,0,0,0-1.58-.33h0a3.9,3.9,0,0,0-1.59.33,4.31,4.31,0,0,0-1.31.88,4.2,4.2,0,0,0-.89,1.33,4.07,4.07,0,0,0-.32,1.59v9.48H175V40.14a7.32,7.32,0,0,1,.89-3.56,7.57,7.57,0,0,1,2.43-2.66,7,7,0,0,1,1.92-.9,7.2,7.2,0,0,1,2.18-.33,7.37,7.37,0,0,1,2.2.33"/><path class="cls-2" d="M92,64.14v-3.8H86.85v3.8h-.6V56h.6v3.75H92V56h.6v8.1Z"/><path class="cls-2" d="M97.61,64.35c-.52,1.24-1.12,1.68-2,1.68a2.54,2.54,0,0,1-1.17-.26l.19-.49a2.09,2.09,0,0,0,1,.22c.61,0,1-.36,1.46-1.39L94.3,58.24H95l2.46,5.28,2.13-5.28h.62Z"/><path class="cls-2" d="M106.37,64.14V62.82a2.84,2.84,0,0,1-2.43,1.46,2.93,2.93,0,0,1-2.87-3.07v0a3,3,0,0,1,2.87-3.09,2.84,2.84,0,0,1,2.43,1.41V55.69h.57v8.45Zm0-3a2.47,2.47,0,0,0-2.4-2.54,2.31,2.31,0,0,0-2.32,2.53v0A2.38,2.38,0,0,0,104,63.74a2.47,2.47,0,0,0,2.4-2.54Z"/><path class="cls-2" d="M112.22,58.77c-1.37,0-2.56,1-2.56,2.95v2.42h-.57v-5.9h.57v1.67a2.81,2.81,0,0,1,2.62-1.77v.63Z"/><path class="cls-2" d="M116.05,64.28a3,3,0,0,1-3-3.07v0a3,3,0,1,1,6.07,0v0A3.06,3.06,0,0,1,116.05,64.28Zm2.43-3.09a2.47,2.47,0,0,0-2.43-2.56,2.44,2.44,0,0,0-2.41,2.54v0a2.48,2.48,0,0,0,2.44,2.56,2.43,2.43,0,0,0,2.4-2.54Z"/><path class="cls-2" d="M122.76,64.26a4,4,0,0,1-2.42-.86l.33-.45a3.46,3.46,0,0,0,2.12.77c.8,0,1.43-.44,1.43-1.12v0c0-.7-.74-.95-1.57-1.18s-2-.57-2-1.62v0a1.73,1.73,0,0,1,1.94-1.63,3.94,3.94,0,0,1,2.1.65l-.3.47a3.42,3.42,0,0,0-1.82-.59c-.81,0-1.34.44-1.34,1v0c0,.66.8.9,1.64,1.14s2,.62,2,1.66v0A1.84,1.84,0,0,1,122.76,64.26Z"/><path class="cls-2" d="M129.6,64.28a2.84,2.84,0,0,1-2.43-1.41V66h-.57V58.24h.57v1.32a2.84,2.84,0,0,1,2.43-1.46,2.92,2.92,0,0,1,2.87,3.07v0A3,3,0,0,1,129.6,64.28Zm2.26-3.09a2.38,2.38,0,0,0-2.31-2.55,2.47,2.47,0,0,0-2.41,2.54v0a2.47,2.47,0,0,0,2.41,2.54,2.31,2.31,0,0,0,2.31-2.53Z"/><path class="cls-2" d="M138.74,64.14V60.63a1.8,1.8,0,0,0-1.88-2,2,2,0,0,0-2.05,2.11v3.41h-.56V55.69h.56v3.65A2.32,2.32,0,0,1,137,58.1a2.25,2.25,0,0,1,2.36,2.43v3.61Z"/><path class="cls-2" d="M143.86,63.75a2.68,2.68,0,0,0,2-.93l.39.35a3.1,3.1,0,0,1-2.44,1.11,2.94,2.94,0,0,1-2.9-3.08v0a2.91,2.91,0,0,1,2.8-3.08,2.79,2.79,0,0,1,2.71,3.09v0a1.55,1.55,0,0,1,0,.21h-4.9A2.35,2.35,0,0,0,143.86,63.75Zm2-2.84a2.19,2.19,0,0,0-2.12-2.29,2.3,2.3,0,0,0-2.18,2.29Z"/><path class="cls-2" d="M151.24,58.77c-1.37,0-2.56,1-2.56,2.95v2.42h-.57v-5.9h.57v1.67a2.81,2.81,0,0,1,2.62-1.77v.63Z"/><path class="cls-2" d="M155,63.75a2.64,2.64,0,0,0,2-.93l.4.35a3.12,3.12,0,0,1-2.45,1.11,2.93,2.93,0,0,1-2.89-3.08v0a2.9,2.9,0,0,1,2.8-3.08,2.79,2.79,0,0,1,2.71,3.09v0a1.55,1.55,0,0,1,0,.21h-4.9A2.35,2.35,0,0,0,155,63.75Zm2-2.84a2.19,2.19,0,0,0-2.12-2.29,2.3,2.3,0,0,0-2.18,2.29Z"/><path class="cls-2" d="M165.52,64.14h-2.7V56h2.7a4,4,0,0,1,4.31,4v0A4.06,4.06,0,0,1,165.52,64.14Zm3.68-4a3.46,3.46,0,0,0-3.68-3.5h-2.1v7h2.1a3.44,3.44,0,0,0,3.68-3.48Z"/><path class="cls-2" d="M175.8,64.14v-1a2.69,2.69,0,0,1-2.26,1.12,2.05,2.05,0,0,1-2.28-1.85v0c0-1.22,1.06-1.92,2.59-1.92a7.08,7.08,0,0,1,2,.26v-.26a1.69,1.69,0,0,0-1.94-1.8,4,4,0,0,0-1.86.47l-.2-.5a4.71,4.71,0,0,1,2.09-.51,2.18,2.18,0,0,1,2.47,2.32v3.68Zm0-2.88a7.58,7.58,0,0,0-2-.27c-1.25,0-1.94.56-1.94,1.38v0c0,.86.81,1.36,1.71,1.36a2,2,0,0,0,2.23-1.82Z"/><path class="cls-2" d="M180.31,64.25a1.51,1.51,0,0,1-1.66-1.63V58.76h-.85v-.52h.85V56.35h.57v1.89h2.07v.52h-2.07v3.81a1,1,0,0,0,1.18,1.14,1.87,1.87,0,0,0,.87-.21V64A2.15,2.15,0,0,1,180.31,64.25Z"/><path class="cls-2" d="M187,64.14v-1a2.72,2.72,0,0,1-2.26,1.12,2.05,2.05,0,0,1-2.28-1.85v0c0-1.22,1-1.92,2.58-1.92a7.16,7.16,0,0,1,2,.26v-.26c0-1.19-.73-1.8-1.95-1.8a3.9,3.9,0,0,0-1.85.47l-.21-.5a4.74,4.74,0,0,1,2.09-.51,2.18,2.18,0,0,1,2.47,2.32v3.68Zm0-2.88a7.73,7.73,0,0,0-2-.27c-1.25,0-1.94.56-1.94,1.38v0c0,.86.81,1.36,1.71,1.36A2,2,0,0,0,187,61.93Z"/><path class="cls-2" d="M199.22,64.3l-1.4-1.44a3.54,3.54,0,0,1-2.75,1.4A2.29,2.29,0,0,1,192.59,62c0-1.1.77-1.9,2.09-2.39a2.67,2.67,0,0,1-.9-1.86,1.88,1.88,0,0,1,2-1.85,1.8,1.8,0,0,1,1.87,1.77c0,1-.75,1.68-2,2.11L197.81,62a10.3,10.3,0,0,0,1.05-2l.55.22a11.35,11.35,0,0,1-1.21,2.15l1.49,1.54ZM195,60c-1.28.44-1.85,1.2-1.85,2a1.79,1.79,0,0,0,1.9,1.76,3.11,3.11,0,0,0,2.35-1.28Zm.74-3.57a1.33,1.33,0,0,0-1.4,1.32c0,.52.22.91.94,1.68,1.16-.37,1.75-.93,1.75-1.72A1.26,1.26,0,0,0,195.78,56.41Z"/><path class="cls-2" d="M211.05,64.14l-5.71-7.2v7.2h-.58V56h.56l5.6,7.05V56h.58v8.1Z"/><path class="cls-2" d="M218.16,64.14V63A2.32,2.32,0,0,1,216,64.28a2.25,2.25,0,0,1-2.37-2.43V58.24h.57v3.5a1.8,1.8,0,0,0,1.88,2,2,2,0,0,0,2-2.11V58.24h.56v5.9Z"/><path class="cls-2" d="M229.24,64.14V60.63c0-1.27-.66-2-1.75-2a1.9,1.9,0,0,0-1.86,2.08v3.44h-.57V60.6c0-1.23-.67-2-1.73-2a2,2,0,0,0-1.88,2.12v3.4h-.57v-5.9h.57v1a2.17,2.17,0,0,1,2-1.19,2.13,2.13,0,0,1,2,1.27,2.34,2.34,0,0,1,2.13-1.27,2.22,2.22,0,0,1,2.27,2.46v3.58Z"/><path class="cls-2" d="M234.41,63.75a2.64,2.64,0,0,0,2-.93l.4.35a3.12,3.12,0,0,1-2.45,1.11,2.93,2.93,0,0,1-2.89-3.08v0a2.9,2.9,0,0,1,2.8-3.08A2.79,2.79,0,0,1,237,61.19v0a1.55,1.55,0,0,1,0,.21h-4.9A2.34,2.34,0,0,0,234.41,63.75Zm2-2.84a2.19,2.19,0,0,0-2.12-2.29,2.3,2.3,0,0,0-2.18,2.29Z"/><path class="cls-2" d="M241.78,58.77a2.64,2.64,0,0,0-2.56,2.95v2.42h-.56v-5.9h.56v1.67a2.82,2.82,0,0,1,2.62-1.77v.63Z"/><path class="cls-2" d="M243.3,56.7v-.78H244v.78Zm.07,7.44v-5.9h.57v5.9Z"/><path class="cls-2" d="M248.78,64.28a3,3,0,0,1-3-3.07v0a3,3,0,0,1,5.37-2l-.4.41a2.67,2.67,0,0,0-2-1,2.44,2.44,0,0,0-2.39,2.54v0a2.49,2.49,0,0,0,2.43,2.56,2.61,2.61,0,0,0,2-1l.4.35A3,3,0,0,1,248.78,64.28Z"/><path class="cls-2" d="M254.7,64.26a4,4,0,0,1-2.42-.86l.33-.45a3.46,3.46,0,0,0,2.12.77c.8,0,1.43-.44,1.43-1.12v0c0-.7-.74-.95-1.57-1.18s-2-.57-2-1.62v0a1.73,1.73,0,0,1,1.94-1.63,3.94,3.94,0,0,1,2.1.65l-.3.47a3.42,3.42,0,0,0-1.82-.59c-.81,0-1.34.44-1.34,1v0c0,.66.79.9,1.64,1.14s2,.62,2,1.66v0A1.84,1.84,0,0,1,254.7,64.26Z"/><path class="cls-2" d="M202,26a7.24,7.24,0,0,1,2.18.33,7,7,0,0,1,1.92.9,7.45,7.45,0,0,1,2.42,2.66,7.22,7.22,0,0,1,.9,3.56v16.2h-3.32V33.42a3.9,3.9,0,0,0-.33-1.59,4,4,0,0,0-.89-1.33,4.19,4.19,0,0,0-1.31-.88,3.82,3.82,0,0,0-1.58-.32h0a3.9,3.9,0,0,0-1.59.32,4.11,4.11,0,0,0-2.2,2.21,3.9,3.9,0,0,0-.32,1.59v16.2h-3.32V33.42a7.21,7.21,0,0,1,.89-3.56,7.48,7.48,0,0,1,2.43-2.66,7,7,0,0,1,1.92-.9,7.18,7.18,0,0,1,2.17-.33,7.39,7.39,0,0,1,2.21.33"/><path class="cls-2" d="M223.87,42.18h-6.48a5.22,5.22,0,0,0,.66,1.62,5.21,5.21,0,0,0,4.43,2.47,5,5,0,0,0,2.12-.45,5.31,5.31,0,0,0,1.72-1.26h3.9a5.32,5.32,0,0,1-.47.92c-.18.29-.38.58-.59.86a8.69,8.69,0,0,1-2.9,2.36,8.1,8.1,0,0,1-3.78.89,8.37,8.37,0,0,1-3.32-.66,8.51,8.51,0,0,1-2.7-1.82,8.59,8.59,0,0,1-1.83-9.35,8.56,8.56,0,0,1,4.53-4.53,8.37,8.37,0,0,1,3.32-.66,8.22,8.22,0,0,1,3.78.89,8.45,8.45,0,0,1,2.9,2.4,8.05,8.05,0,0,1,1.54,3,7.83,7.83,0,0,1,.29,2.19,6.45,6.45,0,0,1-.09,1.1h-7Zm-1.39-6.29a5.06,5.06,0,0,0-2.82.81,5.31,5.31,0,0,0-1.88,2.16h9.41c-.11-.17-.21-.34-.31-.51a3.88,3.88,0,0,0-.3-.48,5.31,5.31,0,0,0-1.81-1.45A5.1,5.1,0,0,0,222.48,35.89Z"/><path class="cls-2" d="M243.12,41.21l5.58,8.32h-4l-3.61-5.35-3.58,5.35h-4l5.57-8.32-5.8-8.67h4l3.8,5.7,3.84-5.7h4Z"/><path class="cls-2" d="M253.53,26h3.32v6.5h3.09v3.32h-3.09v13.8h-3.32Z"/><path class="cls-1" d="M95,25.93a11.61,11.61,0,0,1,4.63.94,12,12,0,0,1,3.77,2.56,12,12,0,0,1,3.44,8.47,11.63,11.63,0,0,1-.92,4.63,11.85,11.85,0,0,1-6.29,6.34,11.61,11.61,0,0,1-4.63.94,11.47,11.47,0,0,1-4.6-.94,11.88,11.88,0,0,1-6.28-6.34,11.63,11.63,0,0,1-.92-4.63,11.76,11.76,0,0,1,.92-4.67,11.83,11.83,0,0,1,6.28-6.36A11.47,11.47,0,0,1,95,25.93Zm0,20.54a7.67,7.67,0,0,0,3.19-.67A8.38,8.38,0,0,0,100.77,44a8.5,8.5,0,0,0,1.76-2.72,8.93,8.93,0,0,0,0-6.69,8.8,8.8,0,0,0-1.76-2.76,8.25,8.25,0,0,0-2.62-1.85,7.88,7.88,0,0,0-6.36,0,8.28,8.28,0,0,0-2.6,1.85,9,9,0,0,0-1.76,2.76,8.93,8.93,0,0,0,0,6.69A8.67,8.67,0,0,0,89.19,44a8.41,8.41,0,0,0,2.6,1.84A7.61,7.61,0,0,0,95,46.47Z"/><path class="cls-2" d="M79.25,17.66l-3.17-2.29a.08.08,0,0,0-.12,0L73,19.82a5.36,5.36,0,0,1-8.57.6,28.39,28.39,0,0,0-5.7-5A29,29,0,0,0,48.5,11.11a28.8,28.8,0,0,0-22,4.48A29.12,29.12,0,0,0,14.67,45.47a6.75,6.75,0,0,1-1,5.12L6.6,61.31a.07.07,0,0,0,0,.11l3.15,2.33a.08.08,0,0,0,.12,0l2.83-4.29A5.31,5.31,0,0,1,16.85,57l.36,0a5.36,5.36,0,0,1,4.07,1.87,28.69,28.69,0,0,0,15.93,9.31,27.85,27.85,0,0,0,11.43,0,28.35,28.35,0,0,0,10.57-4.48A28.76,28.76,0,0,0,71.16,45.45a28.51,28.51,0,0,0,0-11.49,7.13,7.13,0,0,1,1-5.43l7.11-10.75A.11.11,0,0,0,79.25,17.66Zm-58.49,19a4.3,4.3,0,0,1-1.35-4.4c.17-.69.31-1.2.44-1.57a25.83,25.83,0,0,1,2.46-5.17h0a24.53,24.53,0,0,1,6.48-6.95,22.91,22.91,0,0,1,8.93-3.9,23.14,23.14,0,0,1,9.77.08,24.67,24.67,0,0,1,8.75,3.85A26.22,26.22,0,0,1,63,25.5l0,0a8.38,8.38,0,0,1-1,10.42,14.07,14.07,0,0,1-2.31,1.9A14.4,14.4,0,0,1,54.66,40a14.62,14.62,0,0,1-2.87.28A15,15,0,0,1,49.21,40,13.87,13.87,0,0,1,44,37.92a18.31,18.31,0,0,0-4.91-2.3A18.07,18.07,0,0,0,25.28,37,4.08,4.08,0,0,1,20.76,36.62ZM66.91,45a25.76,25.76,0,0,1-3.48,8.81,25,25,0,0,1-6.54,6.91,23.17,23.17,0,0,1-9,3.9,23.41,23.41,0,0,1-4.69.48,22.6,22.6,0,0,1-5.05-.57,25.16,25.16,0,0,1-8.67-3.8,25.86,25.86,0,0,1-6.73-6.86c-.37-.55-.73-1.13-1.06-1.72A6.5,6.5,0,0,1,22,45.4a14.08,14.08,0,0,1,4-4,14.35,14.35,0,0,1,10.53-2.16,13.72,13.72,0,0,1,5.23,2.1,18.07,18.07,0,0,0,4.92,2.3,17.44,17.44,0,0,0,5.16.76,18.79,18.79,0,0,0,8.63-2.18c.45-.24.9-.5,1.33-.78a3.37,3.37,0,0,1,4.17.39A3.48,3.48,0,0,1,66.91,45Z"/></svg>