<svg id="Calque_1" data-name="Calque 1" xmlns="http://www.w3.org/2000/svg" viewBox="0 0 265.59 177.59"><defs><style>.cls-1{fill:#0789b8;}</style></defs><title>ON-logo-04-blue</title><path class="cls-1" d="M63,139.11a6.7,6.7,0,0,0,3.11-.74,7.13,7.13,0,0,0,2.39-2l3.5,2.73a11.53,11.53,0,0,1-3.89,3.22,11.45,11.45,0,0,1-9.53.31,11.69,11.69,0,0,1-3.65-2.44,11.33,11.33,0,0,1-2.47-3.65,11.38,11.38,0,0,1,0-8.87,11.28,11.28,0,0,1,2.47-3.64,11.54,11.54,0,0,1,3.65-2.45,11.15,11.15,0,0,1,4.42-.89,11.29,11.29,0,0,1,5.11,1.18A11,11,0,0,1,72,125.16l-3.5,2.73a6.82,6.82,0,0,0-5.5-2.68,6.92,6.92,0,0,0-4.94,2,7,7,0,0,0-1.5,2.22,6.95,6.95,0,0,0,0,5.37,7,7,0,0,0,1.5,2.22,7.2,7.2,0,0,0,2.23,1.51A6.71,6.71,0,0,0,63,139.11Z"/><path class="cls-1" d="M92.11,133.65h-8.7a7.19,7.19,0,0,0,.88,2.19,7,7,0,0,0,1.54,1.75,7.07,7.07,0,0,0,2,1.15,7,7,0,0,0,5.22-.2,7.08,7.08,0,0,0,2.31-1.68h5.24a7.87,7.87,0,0,1-.62,1.23c-.25.39-.52.77-.8,1.15a11.44,11.44,0,0,1-3.9,3.18,10.94,10.94,0,0,1-5.07,1.19,11.07,11.07,0,0,1-4.46-.89,11.33,11.33,0,0,1-7-10.54,11.23,11.23,0,0,1,.88-4.46,11.44,11.44,0,0,1,6.09-6.09,11.24,11.24,0,0,1,4.46-.89,11.07,11.07,0,0,1,5.07,1.19,11.35,11.35,0,0,1,3.9,3.23,11.18,11.18,0,0,1,2.46,7,7.66,7.66,0,0,1-.13,1.47H92.11Zm-1.86-8.44a6.73,6.73,0,0,0-3.79,1.09,7,7,0,0,0-2.54,2.89H96.57c-.14-.23-.28-.46-.41-.69a6,6,0,0,0-2.84-2.59A6.81,6.81,0,0,0,90.25,125.21Z"/><path class="cls-1" d="M119.42,120.74a11.16,11.16,0,0,1,4.47.91,12,12,0,0,1,3.68,2.47,11.62,11.62,0,0,1,2.49,3.68,11.46,11.46,0,0,1,.9,4.51v11.21H126.5v-2.09a12.29,12.29,0,0,1-3.25,1.76,11,11,0,0,1-3.81.64,11.25,11.25,0,0,1-4.48-.91,11.58,11.58,0,0,1-6.13-6.13,11.11,11.11,0,0,1-.91-4.48,11.29,11.29,0,0,1,.91-4.51,11.47,11.47,0,0,1,6.12-6.15A11.2,11.2,0,0,1,119.42,120.74Zm0,18.63a6.67,6.67,0,0,0,2.75-.57,7.29,7.29,0,0,0,3.75-3.77,6.76,6.76,0,0,0,.56-2.72,6.93,6.93,0,0,0-.56-2.77,7.29,7.29,0,0,0-3.75-3.77,7,7,0,0,0-5.5,0,7.38,7.38,0,0,0-2.23,1.53,7.45,7.45,0,0,0-1.52,2.24,6.93,6.93,0,0,0-.56,2.77,6.76,6.76,0,0,0,.56,2.72,7.33,7.33,0,0,0,1.52,2.24,7.2,7.2,0,0,0,2.23,1.53A6.67,6.67,0,0,0,119.44,139.37Z"/><path class="cls-1" d="M147.54,120.74a10,10,0,0,1,2.94.44,9.77,9.77,0,0,1,2.59,1.22,10,10,0,0,1,3.27,3.58,9.9,9.9,0,0,1,1.21,4.81v12.79h-4.48V130.79a5.44,5.44,0,0,0-.44-2.15,5.63,5.63,0,0,0-1.2-1.79,5.8,5.8,0,0,0-1.77-1.19,5.32,5.32,0,0,0-2.14-.44h0a5.32,5.32,0,0,0-2.14.44,5.65,5.65,0,0,0-3,3,5.43,5.43,0,0,0-.43,2.15v12.79H137.5V130.79a9.89,9.89,0,0,1,1.2-4.81A10.16,10.16,0,0,1,142,122.4a9.49,9.49,0,0,1,2.59-1.22,9.92,9.92,0,0,1,2.94-.44,10.22,10.22,0,0,1,3,.44"/><path class="cls-1" d="M25.53,163.17V158h-7v5.13h-.81V152.23h.81v5.06h7v-5.06h.81v10.94Z"/><path class="cls-1" d="M33.05,163.45c-.7,1.67-1.52,2.26-2.66,2.26a3.6,3.6,0,0,1-1.57-.34l.26-.67a2.82,2.82,0,0,0,1.36.29c.83,0,1.37-.48,2-1.87l-3.83-7.92h.89l3.31,7.12,2.88-7.12h.84Z"/><path class="cls-1" d="M44.86,163.17v-1.78a3.85,3.85,0,0,1-3.28,2,4,4,0,0,1-3.87-4.14v0A4,4,0,0,1,41.58,155a3.84,3.84,0,0,1,3.28,1.91v-5.16h.77v11.41Zm0-4a3.33,3.33,0,0,0-3.25-3.42,3.11,3.11,0,0,0-3.13,3.4v0a3.21,3.21,0,0,0,3.13,3.44,3.34,3.34,0,0,0,3.25-3.42Z"/><path class="cls-1" d="M52.75,155.92c-1.84,0-3.45,1.39-3.45,4v3.27h-.77v-8h.77v2.26a3.77,3.77,0,0,1,3.53-2.39v.85Z"/><path class="cls-1" d="M57.92,163.35a4.06,4.06,0,0,1-4.07-4.14v0a4.09,4.09,0,1,1,8.18,0v0A4.11,4.11,0,0,1,57.92,163.35Zm3.28-4.17a3.33,3.33,0,0,0-3.28-3.45,3.29,3.29,0,0,0-3.25,3.42v0A3.35,3.35,0,0,0,58,162.64a3.29,3.29,0,0,0,3.25-3.43Z"/><path class="cls-1" d="M67,163.32a5.52,5.52,0,0,1-3.27-1.15l.46-.61a4.66,4.66,0,0,0,2.86,1c1.07,0,1.92-.59,1.92-1.51v0c0-.94-1-1.28-2.11-1.6-1.3-.37-2.73-.76-2.73-2.18v0A2.34,2.34,0,0,1,66.72,155a5.42,5.42,0,0,1,2.83.88l-.41.64a4.52,4.52,0,0,0-2.45-.8c-1.09,0-1.81.6-1.81,1.39v0c0,.89,1.07,1.22,2.21,1.55s2.63.83,2.63,2.23v0A2.47,2.47,0,0,1,67,163.32Z"/><path class="cls-1" d="M76.2,163.35a3.84,3.84,0,0,1-3.28-1.9v4.22h-.76V155.2h.76V157a3.85,3.85,0,0,1,3.28-2,4,4,0,0,1,3.88,4.14v0A4,4,0,0,1,76.2,163.35Zm3-4.17a3.2,3.2,0,0,0-3.12-3.43,3.33,3.33,0,0,0-3.25,3.42v0a3.32,3.32,0,0,0,3.25,3.42,3.12,3.12,0,0,0,3.12-3.41Z"/><path class="cls-1" d="M88.53,163.17v-4.74A2.43,2.43,0,0,0,86,155.72a2.73,2.73,0,0,0-2.77,2.84v4.61h-.76V151.76h.76v4.92A3.15,3.15,0,0,1,86.11,155a3,3,0,0,1,3.19,3.28v4.88Z"/><path class="cls-1" d="M95.44,162.64a3.59,3.59,0,0,0,2.73-1.25l.53.46a4.16,4.16,0,0,1-3.29,1.5,4,4,0,0,1-3.91-4.15v0A3.93,3.93,0,0,1,95.28,155c2.23,0,3.66,1.81,3.66,4.17v0a1.52,1.52,0,0,1,0,.29H92.31A3.16,3.16,0,0,0,95.44,162.64Zm2.67-3.83c-.11-1.61-1-3.09-2.86-3.09a3.1,3.1,0,0,0-2.94,3.09Z"/><path class="cls-1" d="M105.39,155.92c-1.84,0-3.45,1.39-3.45,4v3.27h-.77v-8h.77v2.26a3.77,3.77,0,0,1,3.53-2.39v.85Z"/><path class="cls-1" d="M110.42,162.64a3.56,3.56,0,0,0,2.73-1.25l.54.46a4.19,4.19,0,0,1-3.3,1.5,4,4,0,0,1-3.91-4.15v0a3.94,3.94,0,0,1,3.78-4.16c2.24,0,3.66,1.81,3.66,4.17v0a1.52,1.52,0,0,1,0,.29h-6.6A3.16,3.16,0,0,0,110.42,162.64Zm2.67-3.83c-.11-1.61-1-3.09-2.86-3.09a3.1,3.1,0,0,0-2.93,3.09Z"/><path class="cls-1" d="M124.65,163.17H121V152.23h3.64c3.44,0,5.82,2.36,5.82,5.44v0A5.48,5.48,0,0,1,124.65,163.17Zm5-5.47a4.68,4.68,0,0,0-5-4.72h-2.82v9.44h2.82a4.64,4.64,0,0,0,5-4.69Z"/><path class="cls-1" d="M138.53,163.17v-1.33a3.64,3.64,0,0,1-3.05,1.51c-1.48,0-3.07-.84-3.07-2.5v0c0-1.65,1.42-2.59,3.48-2.59a9.74,9.74,0,0,1,2.64.34v-.34c0-1.61-1-2.44-2.63-2.44a5.37,5.37,0,0,0-2.49.64l-.29-.67a6.53,6.53,0,0,1,2.83-.69c2.05,0,3.33,1.07,3.33,3.13v5Zm0-3.89a10.61,10.61,0,0,0-2.7-.36c-1.68,0-2.62.75-2.62,1.86v0c0,1.15,1.09,1.83,2.31,1.83,1.62,0,3-1,3-2.46Z"/><path class="cls-1" d="M144.61,163.31a2,2,0,0,1-2.24-2.19V155.9h-1.15v-.7h1.15v-2.55h.77v2.55h2.8v.7h-2.8V161a1.4,1.4,0,0,0,1.59,1.55,2.69,2.69,0,0,0,1.17-.28V163A3,3,0,0,1,144.61,163.31Z"/><path class="cls-1" d="M153.67,163.17v-1.33a3.64,3.64,0,0,1-3,1.51c-1.48,0-3.07-.84-3.07-2.5v0c0-1.65,1.42-2.59,3.48-2.59a9.74,9.74,0,0,1,2.64.34v-.34c0-1.61-1-2.44-2.63-2.44a5.37,5.37,0,0,0-2.49.64l-.29-.67a6.53,6.53,0,0,1,2.83-.69c2,0,3.33,1.07,3.33,3.13v5Zm0-3.89a10.76,10.76,0,0,0-2.71-.36c-1.68,0-2.62.75-2.62,1.86v0c0,1.15,1.09,1.83,2.31,1.83,1.62,0,3-1,3-2.46Z"/><path class="cls-1" d="M170.12,163.38l-1.89-1.95a4.74,4.74,0,0,1-3.7,1.89,3.09,3.09,0,0,1-3.36-3c0-1.49,1.05-2.57,2.83-3.22a3.59,3.59,0,0,1-1.22-2.52,2.55,2.55,0,0,1,2.73-2.5,2.44,2.44,0,0,1,2.52,2.39c0,1.39-1,2.27-2.69,2.85l2.87,2.95a14.14,14.14,0,0,0,1.43-2.66l.73.3a15.46,15.46,0,0,1-1.62,2.91l2,2.07Zm-5.64-5.82c-1.73.59-2.5,1.61-2.5,2.69a2.4,2.4,0,0,0,2.56,2.37,4.23,4.23,0,0,0,3.18-1.72Zm1-4.83a1.79,1.79,0,0,0-1.89,1.78c0,.71.3,1.24,1.27,2.27,1.56-.5,2.36-1.25,2.36-2.31A1.7,1.7,0,0,0,165.48,152.73Z"/><path class="cls-1" d="M186.07,163.17l-7.7-9.72v9.72h-.78V152.23h.77l7.54,9.51v-9.51h.78v10.94Z"/><path class="cls-1" d="M195.67,163.17v-1.49a3.11,3.11,0,0,1-2.88,1.67,3,3,0,0,1-3.18-3.28V155.2h.76v4.73a2.43,2.43,0,0,0,2.53,2.72,2.74,2.74,0,0,0,2.77-2.84V155.2h.76v8Z"/><path class="cls-1" d="M210.62,163.17v-4.74c0-1.71-.89-2.71-2.36-2.71a2.57,2.57,0,0,0-2.52,2.81v4.64H205v-4.78c0-1.66-.91-2.67-2.33-2.67a2.68,2.68,0,0,0-2.54,2.85v4.6h-.77v-8h.77v1.42a2.92,2.92,0,0,1,2.65-1.61,2.87,2.87,0,0,1,2.69,1.72,3.15,3.15,0,0,1,2.87-1.72c1.89,0,3.06,1.33,3.06,3.33v4.83Z"/><path class="cls-1" d="M217.59,162.64a3.58,3.58,0,0,0,2.73-1.25l.53.46a4.16,4.16,0,0,1-3.29,1.5,4,4,0,0,1-3.91-4.15v0a3.94,3.94,0,0,1,3.78-4.16c2.24,0,3.66,1.81,3.66,4.17v0a1.52,1.52,0,0,1,0,.29h-6.61A3.17,3.17,0,0,0,217.59,162.64Zm2.67-3.83c-.11-1.61-1-3.09-2.86-3.09a3.1,3.1,0,0,0-2.94,3.09Z"/><path class="cls-1" d="M227.54,155.92c-1.84,0-3.45,1.39-3.45,4v3.27h-.77v-8h.77v2.26a3.77,3.77,0,0,1,3.53-2.39v.85Z"/><path class="cls-1" d="M229.59,153.12v-1h.95v1Zm.09,10v-8h.77v8Z"/><path class="cls-1" d="M237,163.35a4.09,4.09,0,0,1-4.06-4.14v0A4.14,4.14,0,0,1,237,155a4.19,4.19,0,0,1,3.19,1.47l-.55.56a3.61,3.61,0,0,0-2.66-1.31,3.3,3.3,0,0,0-3.22,3.42v0a3.36,3.36,0,0,0,3.29,3.46,3.56,3.56,0,0,0,2.67-1.33l.53.47A4.1,4.1,0,0,1,237,163.35Z"/><path class="cls-1" d="M245,163.32a5.49,5.49,0,0,1-3.26-1.15l.45-.61a4.68,4.68,0,0,0,2.86,1c1.08,0,1.92-.59,1.92-1.51v0c0-.94-1-1.28-2.11-1.6-1.29-.37-2.73-.76-2.73-2.18v0a2.35,2.35,0,0,1,2.62-2.21,5.39,5.39,0,0,1,2.83.88l-.41.64a4.5,4.5,0,0,0-2.45-.8c-1.09,0-1.81.6-1.81,1.39v0c0,.89,1.08,1.22,2.22,1.55s2.62.83,2.62,2.23v0A2.47,2.47,0,0,1,245,163.32Z"/><path class="cls-1" d="M173.8,111.68a9.92,9.92,0,0,1,5.53,1.65,10.07,10.07,0,0,1,3.27,3.59,9.72,9.72,0,0,1,1.21,4.8v21.86h-4.48V121.72a5.44,5.44,0,0,0-.44-2.15,5.59,5.59,0,0,0-1.2-1.78,5.66,5.66,0,0,0-1.77-1.2,5.28,5.28,0,0,0-2.14-.43h0a5.31,5.31,0,0,0-2.14.43,5.66,5.66,0,0,0-1.77,1.2,5.59,5.59,0,0,0-1.2,1.78,5.44,5.44,0,0,0-.44,2.15v21.86h-4.48V121.72a9.72,9.72,0,0,1,1.21-4.8,10.07,10.07,0,0,1,3.27-3.59,9.92,9.92,0,0,1,5.53-1.65,10.16,10.16,0,0,1,3,.43"/><path class="cls-1" d="M203.38,133.53h-8.75a7,7,0,0,0,.9,2.2,7,7,0,0,0,6,3.33,6.65,6.65,0,0,0,2.84-.61,7.22,7.22,0,0,0,2.33-1.7h5.26a6.88,6.88,0,0,1-.63,1.24,12.48,12.48,0,0,1-.8,1.15,11.56,11.56,0,0,1-3.92,3.2,11,11,0,0,1-5.08,1.2,11.34,11.34,0,0,1-4.48-.89,11.67,11.67,0,0,1-3.66-2.46,11.54,11.54,0,0,1-2.45-3.65,11.6,11.6,0,0,1,0-9,11.34,11.34,0,0,1,6.11-6.11,11.17,11.17,0,0,1,4.48-.9,11,11,0,0,1,5.08,1.2,11.44,11.44,0,0,1,3.92,3.24,11.09,11.09,0,0,1,2.09,4.09,10.91,10.91,0,0,1,.39,3,8.55,8.55,0,0,1-.13,1.47h-9.48Zm-1.87-8.48a6.8,6.8,0,0,0-3.81,1.1,7,7,0,0,0-2.54,2.91h12.69c-.14-.23-.28-.46-.41-.69s-.27-.45-.41-.65a7.27,7.27,0,0,0-2.44-2A6.86,6.86,0,0,0,201.51,125.05Z"/><path class="cls-1" d="M229.34,132.23l7.53,11.22h-5.35l-4.87-7.22-4.83,7.22h-5.35L224,132.23l-7.82-11.7h5.34l5.14,7.7,5.17-7.7h5.35Z"/><path class="cls-1" d="M243.38,111.68h4.48v8.76H252v4.48h-4.18v18.62h-4.48Z"/><path class="cls-1" d="M29.47,111.62a15.37,15.37,0,0,1,6.24,1.27,16.05,16.05,0,0,1,5.09,3.44,16.25,16.25,0,0,1,4.65,11.44A15.77,15.77,0,0,1,44.2,134a16.1,16.1,0,0,1-3.4,5.1,15.92,15.92,0,0,1-5.09,3.45,15.89,15.89,0,0,1-12.45,0,15.94,15.94,0,0,1-5.07-3.45,16.1,16.1,0,0,1-3.4-5.1,15.76,15.76,0,0,1-1.24-6.24,16.07,16.07,0,0,1,1.24-6.31,15.87,15.87,0,0,1,8.47-8.57A15.23,15.23,0,0,1,29.47,111.62Zm0,27.71a10.31,10.31,0,0,0,4.3-.91,11.36,11.36,0,0,0,3.54-2.48,11.91,11.91,0,0,0,2.38-3.67,12.12,12.12,0,0,0,0-9,12.15,12.15,0,0,0-2.38-3.72,11.1,11.1,0,0,0-3.54-2.5,10.31,10.31,0,0,0-4.3-.91,10.17,10.17,0,0,0-4.27.91,11.24,11.24,0,0,0-3.52,2.5,11.94,11.94,0,0,0-2.37,3.72,11.9,11.9,0,0,0,2.37,12.69,11.51,11.51,0,0,0,3.52,2.48A10.17,10.17,0,0,0,29.47,139.33Z"/><path class="cls-1" d="M181.82,21.51l-4.27-3.09a.1.1,0,0,0-.16,0l-4,6a7.21,7.21,0,0,1-11.56.8,38.52,38.52,0,0,0-21.53-12.55,38.89,38.89,0,0,0-29.68,6A38.88,38.88,0,0,0,94.6,43.34,39.26,39.26,0,0,0,94.7,59a9.09,9.09,0,0,1-1.33,6.91L83.81,80.39a.11.11,0,0,0,0,.15l4.25,3.15a.11.11,0,0,0,.16,0l3.82-5.79a7.2,7.2,0,0,1,5.57-3.3h.5a7.24,7.24,0,0,1,5.48,2.51,38.9,38.9,0,0,0,7.71,6.8,39.46,39.46,0,0,0,13.78,5.77,38.82,38.82,0,0,0,29.68-6.06A38.88,38.88,0,0,0,170.92,59a38.72,38.72,0,0,0-.07-15.5,9.61,9.61,0,0,1,1.41-7.33l9.59-14.51A.11.11,0,0,0,181.82,21.51Zm-78.9,25.57a5.82,5.82,0,0,1-1.82-5.94c.23-.92.42-1.61.59-2.11a34.69,34.69,0,0,1,3.33-7h0a33.56,33.56,0,0,1,8.75-9.38A31.52,31.52,0,0,1,139,17.53a33.18,33.18,0,0,1,11.8,5.19,35.56,35.56,0,0,1,9.09,9.36l0,.06a11.3,11.3,0,0,1-1.31,14,18.67,18.67,0,0,1-3.11,2.56,19.28,19.28,0,0,1-6.86,2.85,19.49,19.49,0,0,1-3.88.39,20.44,20.44,0,0,1-3.47-.31,18.75,18.75,0,0,1-7.05-2.84,24.74,24.74,0,0,0-6.63-3.11A24.44,24.44,0,0,0,109,47.65,5.48,5.48,0,0,1,102.92,47.08Zm62.26,11.35a34.67,34.67,0,0,1-4.7,11.89,33.71,33.71,0,0,1-8.82,9.32,31.16,31.16,0,0,1-12.09,5.26,31.61,31.61,0,0,1-6.32.65,30.1,30.1,0,0,1-6.82-.78,33.69,33.69,0,0,1-11.69-5.13,34.66,34.66,0,0,1-9.09-9.25c-.5-.74-1-1.52-1.42-2.31a8.77,8.77,0,0,1,.37-9.15A19.08,19.08,0,0,1,110,53.54a19.35,19.35,0,0,1,6.86-2.85,19.74,19.74,0,0,1,7.35-.08,18.6,18.6,0,0,1,7,2.85,25,25,0,0,0,6.63,3.1,23.77,23.77,0,0,0,7,1,25.31,25.31,0,0,0,11.64-2.94c.61-.32,1.21-.68,1.79-1a4.56,4.56,0,0,1,5.63.51A4.71,4.71,0,0,1,165.18,58.43Z"/></svg>