<?xml version="1.0" encoding="UTF-8" standalone="no"?>
<!-- Created with Inkscape (http://www.inkscape.org/) -->

<svg
   xmlns:dc="http://purl.org/dc/elements/1.1/"
   xmlns:cc="http://creativecommons.org/ns#"
   xmlns:rdf="http://www.w3.org/1999/02/22-rdf-syntax-ns#"
   xmlns:svg="http://www.w3.org/2000/svg"
   xmlns="http://www.w3.org/2000/svg"
   xmlns:sodipodi="http://sodipodi.sourceforge.net/DTD/sodipodi-0.dtd"
   xmlns:inkscape="http://www.inkscape.org/namespaces/inkscape"
   id="svg2"
   version="1.1"
   inkscape:version="0.91 r13725"
   xml:space="preserve"
   width="261.55975"
   height="288.13235"
   viewBox="0 0 261.55975 288.13235"
   sodipodi:docname="logo_IGE.svg"><metadata
     id="metadata8"><rdf:RDF><cc:Work
         rdf:about=""><dc:format>image/svg+xml</dc:format><dc:type
           rdf:resource="http://purl.org/dc/dcmitype/StillImage" /><dc:title></dc:title></cc:Work></rdf:RDF></metadata><defs
     id="defs6"><clipPath
       clipPathUnits="userSpaceOnUse"
       id="clipPath22"><path
         d="m 142.852,56.9688 2039.06,0 0,2251.84 -2039.06,0 0,-2251.84 z"
         id="path24"
         inkscape:connector-curvature="0" /></clipPath></defs><sodipodi:namedview
     pagecolor="#c6c6c6"
     bordercolor="#666666"
     borderopacity="1"
     objecttolerance="10"
     gridtolerance="10"
     guidetolerance="10"
     inkscape:pageopacity="0"
     inkscape:pageshadow="2"
     inkscape:window-width="1600"
     inkscape:window-height="839"
     id="namedview4"
     showgrid="false"
     fit-margin-top="4"
     fit-margin-left="4"
     fit-margin-bottom="4"
     fit-margin-right="4"
     inkscape:zoom="1.441901"
     inkscape:cx="203.60625"
     inkscape:cy="123.11243"
     inkscape:window-x="0"
     inkscape:window-y="0"
     inkscape:window-maximized="1"
     inkscape:current-layer="g10" /><g
     id="g10"
     inkscape:groupmode="layer"
     inkscape:label="ink_ext_XXXXXX"
     transform="matrix(1.25,0,0,-1.25,-13.8565,292.6011)"><g
       id="g18"
       transform="scale(0.1,0.1)"><g
         clip-path="url(#clipPath22)"
         id="g20"><path
           inkscape:connector-curvature="0"
           id="path26"
           style="fill:#231f20;fill-opacity:1;fill-rule:nonzero;stroke:none"
           d="m 1771.52,409.281 12.2305,0 0,101.051 -12.2305,0 0,-101.051 z" /><path
           inkscape:connector-curvature="0"
           id="path28"
           style="fill:#231f20;fill-opacity:1;fill-rule:nonzero;stroke:none"
           d="m 1800.59,484.43 10.31,0 0,-10.43 0.43,0 c 5.74,8.281 15.62,12.113 25.94,12.113 15.54,0 26.05,-5.902 26.05,-20.082 l 0,-56.758 -11.41,0 0,54.418 c 0,10.309 -5.78,15.352 -17.5,15.352 -13.36,0 -22.34,-7.621 -22.34,-19.262 l 0,-50.508 -11.48,0" /><path
           inkscape:connector-curvature="0"
           id="path30"
           style="fill:#231f20;fill-opacity:1;fill-rule:nonzero;stroke:none"
           d="m 1895.78,446.621 c -14.3,4.18 -19.49,10.391 -19.49,17.891 0,15.429 13.01,21.601 30.27,21.601 19.1,0 27.89,-7.191 27.89,-20.941 l 0,-2.149 -11.48,0 0,2.149 c 0,9.769 -6.09,13.871 -16.64,13.871 -13.44,0 -18.56,-5.203 -18.56,-12.742 0,-5.188 2.27,-9.289 13.79,-12.61 l 16.6,-4.648 c 13.79,-3.793 18.91,-10.863 18.91,-19.102 0,-12.89 -9.88,-22.308 -31.29,-22.308 -20.94,0 -31.25,6.289 -31.25,23.359 l 0,2.348 11.49,0 0,-1.957 c 0,-11.09 6.52,-16.68 19.57,-16.68 12.18,0 20.07,5.039 20.07,13.438 0,6.64 -3.67,10.859 -13.78,13.832" /><path
           inkscape:connector-curvature="0"
           id="path32"
           style="fill:#231f20;fill-opacity:1;fill-rule:nonzero;stroke:none"
           d="m 1952.58,477.402 -13.99,0 0,7.028 13.99,0 0,20.781 11.44,0 0,-20.781 18.01,0 0,-7.028 -18.01,0 0,-53.91 c 0,-5.941 3.48,-7.969 10.94,-7.969 2.31,0 4.57,0.278 7.07,0.899 l 0,-7.149 c -1.41,-0.543 -4.22,-0.82 -8.05,-0.82 -15.5,0 -21.4,3.129 -21.4,13.168" /><path
           inkscape:connector-curvature="0"
           id="path34"
           style="fill:#231f20;fill-opacity:1;fill-rule:nonzero;stroke:none"
           d="m 1989.45,484.43 11.49,0 0,-75.157 -11.49,0 0,75.157 z m 0,25.902 11.49,0 0,-14.379 -11.49,0 0,14.379 z" /><path
           inkscape:connector-curvature="0"
           id="path36"
           style="fill:#231f20;fill-opacity:1;fill-rule:nonzero;stroke:none"
           d="m 2022.34,477.402 -13.9,0 0,7.028 13.9,0 0,20.781 11.49,0 0,-20.781 17.97,0 0,-7.028 -17.97,0 0,-53.91 c 0,-5.941 3.47,-7.969 10.9,-7.969 2.26,0 4.61,0.278 7.07,0.899 l 0,-7.149 c -1.33,-0.543 -4.18,-0.82 -8.05,-0.82 -15.43,0 -21.41,3.129 -21.41,13.168" /><path
           inkscape:connector-curvature="0"
           id="path38"
           style="fill:#231f20;fill-opacity:1;fill-rule:nonzero;stroke:none"
           d="m 2058.52,484.43 11.4,0 0,-52.887 c 0,-12.191 5.55,-16.84 17.66,-16.84 12.97,0 22.19,7.617 22.19,19.258 l 0,50.469 11.4,0 0,-75.157 -10.31,0 0,10.547 -0.35,0 c -5.74,-8.398 -15.71,-12.187 -26.02,-12.187 -15.47,0 -25.97,5.898 -25.97,20.078" /><path
           inkscape:connector-curvature="0"
           id="path40"
           style="fill:#231f20;fill-opacity:1;fill-rule:nonzero;stroke:none"
           d="m 2141.84,477.402 -13.95,0 0,7.028 13.95,0 0,20.781 11.48,0 0,-20.781 17.93,0 0,-7.028 -17.93,0 0,-53.91 c 0,-5.941 3.48,-7.969 10.86,-7.969 2.38,0 4.65,0.278 7.07,0.899 l 0,-7.149 c -1.33,-0.543 -4.14,-0.82 -8.05,-0.82 -15.43,0 -21.36,3.129 -21.36,13.168" /><path
           inkscape:connector-curvature="0"
           id="path42"
           style="fill:#231f20;fill-opacity:1;fill-rule:nonzero;stroke:none"
           d="m 1172.58,244.742 c 11.68,0 22.22,4.418 22.22,32.27 0,27.769 -10.54,32.148 -22.22,32.148 -11.45,0 -22.19,-4.379 -22.19,-32.148 0,-27.852 10.74,-32.27 22.19,-32.27 m 23.32,7.028 -0.35,0 c -3.05,-8.547 -12.82,-14.098 -24.85,-14.098 -22.38,0 -32.58,13.281 -32.58,39.34 0,25.898 10.2,39.179 32.58,39.179 12.62,0 21.25,-5.121 23.68,-13.011 l 0.42,0 0,37.273 11.49,0 0,-101.14 -10.39,0" /><path
           inkscape:connector-curvature="0"
           id="path44"
           style="fill:#231f20;fill-opacity:1;fill-rule:nonzero;stroke:none"
           d="m 1272.81,283.652 c -0.43,18.711 -7.5,25.508 -21.64,25.508 -14.14,0 -21.25,-6.797 -21.6,-25.508 l 43.24,0 z m 11.25,-19.382 c -1.72,-16.008 -13.55,-26.598 -32.65,-26.598 -21.49,0 -34.11,10.98 -34.11,39.34 0,26.051 12.62,39.179 35.04,39.179 22.54,0 32.7,-11.488 32.7,-36.488 l 0,-3.121 -55.47,0 0,-3.519 c 0,-21.602 10.31,-28.282 21.6,-28.282 12.07,0 19.53,6.332 21.41,19.489" /><path
           inkscape:connector-curvature="0"
           id="path46"
           style="fill:#231f20;fill-opacity:1;fill-rule:nonzero;stroke:none"
           d="m 1313.32,276.73 c -14.41,4.071 -19.53,10.321 -19.53,17.782 0,15.468 13.01,21.679 30.19,21.679 19.18,0 27.97,-7.191 27.97,-20.898 l 0,-2.152 -11.48,0 0,2.152 c 0,9.687 -6.17,13.867 -16.64,13.867 -13.44,0 -18.56,-5.277 -18.56,-12.777 0,-5.231 2.31,-9.332 13.79,-12.582 l 16.6,-4.641 c 13.79,-3.91 18.91,-10.937 18.91,-19.137 0,-12.863 -9.88,-22.351 -31.37,-22.351 -20.82,0 -31.17,6.371 -31.17,23.32 l 0,2.461 11.52,0 0,-2.031 c 0,-11.012 6.49,-16.68 19.54,-16.68 12.18,0 20.07,5.121 20.07,13.438 0,6.64 -3.67,10.941 -13.78,13.832" /><path
           inkscape:connector-curvature="0"
           id="path48"
           style="fill:#231f20;fill-opacity:1;fill-rule:nonzero;stroke:none"
           d="m 1435.62,246.461 c 13.64,0 21.68,7.34 21.68,31.371 0,23.981 -8.04,31.328 -21.68,31.328 -13.55,0 -21.6,-7.347 -21.6,-31.328 0,-24.031 8.05,-31.371 21.6,-31.371 m 22.78,68.012 10.31,0 0,-69.731 c 0,-20.781 -10.31,-31.402 -33.24,-31.402 -19.73,0 -30.04,7.652 -30.27,18.351 l 11.52,0 c 0,-7.07 9.02,-11.281 19.1,-11.281 13.98,0 21.48,7.223 21.48,20.5 l 0,11.922 -0.42,0 c -3.68,-9.219 -13.21,-13.441 -23.76,-13.441 -15.62,0 -31.28,7.621 -31.28,37.621 0,25.898 10.07,39.179 32.46,39.179 11.09,0 20.11,-4.808 23.79,-13.281 l 0.31,0" /><path
           inkscape:connector-curvature="0"
           id="path50"
           style="fill:#231f20;fill-opacity:1;fill-rule:nonzero;stroke:none"
           d="m 1535.43,343.773 -18.71,-19.933 -9.22,0 14.34,19.933 13.59,0 z m 0.98,-60.121 c -0.36,18.711 -7.43,25.508 -21.61,25.508 -14.14,0 -21.21,-6.797 -21.64,-25.508 l 43.25,0 z m 11.29,-19.382 c -1.72,-16.008 -13.6,-26.598 -32.7,-26.598 -21.41,0 -34.06,10.98 -34.06,39.34 0,26.051 12.65,39.179 35.04,39.179 22.57,0 32.69,-11.488 32.69,-36.488 l 0,-3.121 -55.51,0 0,-3.519 c 0,-21.68 10.32,-28.321 21.64,-28.321 12.04,0 19.54,6.371 21.41,19.528" /><path
           inkscape:connector-curvature="0"
           id="path52"
           style="fill:#231f20;fill-opacity:1;fill-rule:nonzero;stroke:none"
           d="m 1590.51,244.742 c 12.81,0 22.77,8.238 22.77,32.27 0,23.898 -9.96,32.148 -22.77,32.148 -12.81,0 -22.81,-8.25 -22.81,-32.148 0,-24.032 10,-32.27 22.81,-32.27 m 0,71.449 c 22.34,0 34.96,-13.128 34.96,-39.179 0,-26.172 -12.62,-39.34 -34.96,-39.34 -22.39,0 -35,13.168 -35,39.34 0,26.051 12.61,39.179 35,39.179" /><path
           inkscape:connector-curvature="0"
           id="path54"
           style="fill:#231f20;fill-opacity:1;fill-rule:nonzero;stroke:none"
           d="m 1652.62,276.73 c -14.34,4.071 -19.53,10.321 -19.53,17.782 0,15.468 13,21.679 30.27,21.679 19.1,0 27.93,-7.191 27.93,-20.898 l 0,-2.152 -11.52,0 0,2.152 c 0,9.687 -6.1,13.867 -16.61,13.867 -13.39,0 -18.59,-5.277 -18.59,-12.777 0,-5.231 2.31,-9.332 13.79,-12.582 L 1675,279.16 c 13.79,-3.91 18.98,-10.937 18.98,-19.137 0,-12.863 -10,-22.351 -31.4,-22.351 -20.82,0 -31.13,6.371 -31.13,23.32 l 0,2.461 11.4,0 0,-2.031 c 0,-11.012 6.53,-16.68 19.53,-16.68 12.27,0 20.08,5.121 20.08,13.438 0,6.64 -3.59,10.941 -13.75,13.832" /><path
           inkscape:connector-curvature="0"
           id="path56"
           style="fill:#231f20;fill-opacity:1;fill-rule:nonzero;stroke:none"
           d="m 1766.21,264.27 c -1.72,-16.008 -13.63,-26.598 -32.34,-26.598 -21.41,0 -34.03,10.98 -34.03,39.34 0,26.051 12.62,39.179 35,39.179 19.11,0 30.2,-8.64 31.37,-24.031 l -11.48,0 c -1.41,11.723 -7.62,17 -19.89,17 -12.46,0 -22.81,-5.707 -22.81,-32.308 0,-28.321 10.9,-32.11 21.64,-32.11 11.68,0 19.18,6.371 21.06,19.528" /><path
           inkscape:connector-curvature="0"
           id="path58"
           style="fill:#231f20;fill-opacity:1;fill-rule:nonzero;stroke:none"
           d="m 1778.05,314.473 11.44,0 0,-75.082 -11.44,0 0,75.082 z m 0,25.898 11.44,0 0,-14.379 -11.44,0 0,14.379 z" /><path
           inkscape:connector-curvature="0"
           id="path60"
           style="fill:#231f20;fill-opacity:1;fill-rule:nonzero;stroke:none"
           d="m 1857.97,283.652 c -0.39,18.711 -7.46,25.508 -21.6,25.508 -14.18,0 -21.25,-6.797 -21.6,-25.508 l 43.2,0 z m 11.29,-19.382 c -1.72,-16.008 -13.56,-26.598 -32.74,-26.598 -21.4,0 -34.02,10.98 -34.02,39.34 0,26.051 12.62,39.179 34.96,39.179 22.62,0 32.77,-11.488 32.77,-36.488 l 0,-3.121 -55.46,0 0,-3.519 c 0,-21.602 10.31,-28.282 21.6,-28.282 12.07,0 19.45,6.332 21.4,19.489" /><path
           inkscape:connector-curvature="0"
           id="path62"
           style="fill:#231f20;fill-opacity:1;fill-rule:nonzero;stroke:none"
           d="m 1882.42,314.473 10.31,0 0,-10.43 0.36,0 c 5.78,8.359 15.74,12.148 26.05,12.148 15.51,0 25.98,-5.941 25.98,-20.078 l 0,-56.722 -11.45,0 0,54.3 c 0,10.352 -5.74,15.469 -17.42,15.469 -13.36,0 -22.38,-7.699 -22.38,-19.258 l 0,-50.511 -11.45,0" /><path
           inkscape:connector-curvature="0"
           id="path64"
           style="fill:#231f20;fill-opacity:1;fill-rule:nonzero;stroke:none"
           d="m 2022.54,264.27 c -1.64,-16.008 -13.56,-26.598 -32.27,-26.598 -21.48,0 -34.06,10.98 -34.06,39.34 0,26.051 12.58,39.179 34.96,39.179 19.18,0 30.28,-8.64 31.37,-24.031 l -11.41,0 c -1.4,11.723 -7.69,17 -19.96,17 -12.38,0 -22.69,-5.707 -22.69,-32.308 0,-28.321 10.86,-32.11 21.6,-32.11 11.64,0 19.1,6.371 21.05,19.528" /><path
           inkscape:connector-curvature="0"
           id="path66"
           style="fill:#231f20;fill-opacity:1;fill-rule:nonzero;stroke:none"
           d="m 2084.88,283.652 c -0.35,18.711 -7.5,25.508 -21.6,25.508 -14.14,0 -21.29,-6.797 -21.6,-25.508 l 43.2,0 z m 11.29,-19.382 c -1.72,-16.008 -13.59,-26.598 -32.69,-26.598 -21.49,0 -34.07,10.98 -34.07,39.34 0,26.051 12.58,39.179 35.04,39.179 22.54,0 32.7,-11.488 32.7,-36.488 l 0,-3.121 -55.47,0 0,-3.519 c 0,-21.602 10.31,-28.282 21.6,-28.282 12.03,0 19.53,6.332 21.41,19.489" /><path
           inkscape:connector-curvature="0"
           id="path68"
           style="fill:#231f20;fill-opacity:1;fill-rule:nonzero;stroke:none"
           d="m 2125.39,276.73 c -14.34,4.071 -19.53,10.321 -19.53,17.782 0,15.468 13.05,21.679 30.27,21.679 19.14,0 27.93,-7.191 27.93,-20.898 l 0,-2.152 -11.48,0 0,2.152 c 0,9.687 -6.13,13.867 -16.64,13.867 -13.36,0 -18.56,-5.277 -18.56,-12.777 0,-5.231 2.27,-9.332 13.79,-12.582 l 16.6,-4.641 c 13.79,-3.91 18.99,-10.937 18.99,-19.137 0,-12.863 -9.96,-22.351 -31.37,-22.351 -20.86,0 -31.25,6.371 -31.25,23.32 l 0,2.461 11.52,0 0,-2.031 c 0,-11.012 6.49,-16.68 19.5,-16.68 12.26,0 20.11,5.121 20.11,13.438 0,6.64 -3.67,10.941 -13.79,13.832" /><path
           inkscape:connector-curvature="0"
           id="path70"
           style="fill:#231f20;fill-opacity:1;fill-rule:nonzero;stroke:none"
           d="m 1016.6,74.8203 c 11.72,0 22.23,4.3711 22.23,32.2307 0,27.769 -10.51,32.179 -22.23,32.179 -11.44,0 -22.19,-4.41 -22.19,-32.179 0,-27.8596 10.75,-32.2307 22.19,-32.2307 m 23.32,7.0703 -0.35,0 C 1036.45,73.3008 1026.8,67.75 1014.73,67.75 c -22.39,0 -32.582,13.3203 -32.582,39.301 0,25.902 10.192,39.179 32.582,39.179 12.61,0 21.17,-5.039 23.67,-12.929 l 0.43,0 0,37.179 11.44,0 0,-101.0503 -10.35,0" /><path
           inkscape:connector-curvature="0"
           id="path72"
           style="fill:#231f20;fill-opacity:1;fill-rule:nonzero;stroke:none"
           d="m 1116.84,113.77 c -0.43,18.671 -7.5,25.46 -21.64,25.46 -14.18,0 -21.25,-6.789 -21.61,-25.46 l 43.25,0 z m 11.25,-19.4184 C 1126.37,78.3711 1114.53,67.75 1095.43,67.75 c -21.48,0 -34.1,11.0195 -34.1,39.301 0,26.09 12.62,39.179 34.96,39.179 22.62,0 32.69,-11.41 32.69,-36.488 l 0,-3.051 -55.39,0 0,-3.589 c 0,-21.6411 10.32,-28.2817 21.61,-28.2817 12.07,0 19.49,6.3711 21.4,19.5313" /><path
           inkscape:connector-curvature="0"
           id="path74"
           style="fill:#231f20;fill-opacity:1;fill-rule:nonzero;stroke:none"
           d="m 1182.11,69.4297 11.4805,0 0,101.051 -11.4805,0 0,-101.051 z" /><path
           inkscape:connector-curvature="0"
           id="path76"
           style="fill:#231f20;fill-opacity:1;fill-rule:nonzero;stroke:none"
           d="m 1216.76,170.48 13.04,0 0,-14.41 c 0,-8.398 -2.3,-16.289 -14.14,-19.609 l 0,5.699 c 4.89,2.27 6.45,6.211 6.64,13.91 l -5.54,0" /><path
           inkscape:connector-curvature="0"
           id="path78"
           style="fill:#231f20;fill-opacity:1;fill-rule:nonzero;stroke:none"
           d="m 1302.23,113.77 c -0.43,18.671 -7.5,25.46 -21.61,25.46 -14.21,0 -21.24,-6.789 -21.64,-25.46 l 43.25,0 z m 11.29,-19.4184 c -1.72,-15.9805 -13.6,-26.6016 -32.7,-26.6016 -21.44,0 -34.06,11.0195 -34.06,39.301 0,26.09 12.62,39.179 35.04,39.179 22.5,0 32.61,-11.41 32.61,-36.488 l 0,-3.051 -55.43,0 0,-3.589 c 0,-21.6411 10.36,-28.2817 21.64,-28.2817 12.04,0 19.54,6.3711 21.41,19.5313" /><path
           inkscape:connector-curvature="0"
           id="path80"
           style="fill:#231f20;fill-opacity:1;fill-rule:nonzero;stroke:none"
           d="m 1326.68,144.59 10.31,0 0,-10.469 0.35,0 c 5.82,8.32 15.71,12.109 26.06,12.109 15.51,0 26.05,-5.898 26.05,-20.078 l 0,-56.7223 -11.52,0 0,54.3713 c 0,10.32 -5.74,15.359 -17.38,15.359 -13.44,0 -22.46,-7.617 -22.46,-19.219 l 0,-50.5113 -11.41,0" /><path
           inkscape:connector-curvature="0"
           id="path82"
           style="fill:#231f20;fill-opacity:1;fill-rule:nonzero;stroke:none"
           d="m 1396.09,144.59 12.19,0 22.66,-65.547 0.31,0 20.66,65.547 12.27,0 -26.84,-75.1603 -12.93,0" /><path
           inkscape:connector-curvature="0"
           id="path84"
           style="fill:#231f20;fill-opacity:1;fill-rule:nonzero;stroke:none"
           d="m 1471.56,144.59 11.53,0 0,-75.1603 -11.53,0 0,75.1603 z m 0,25.89 11.53,0 0,-14.41 -11.53,0 0,14.41 z" /><path
           inkscape:connector-curvature="0"
           id="path86"
           style="fill:#231f20;fill-opacity:1;fill-rule:nonzero;stroke:none"
           d="m 1500.27,144.59 11.49,0 0,-11.797 0.35,0 c 4.41,8.398 13.75,13.437 25.66,13.437 1.25,0 2.66,-0.117 4.03,-0.39 l 0,-8.477 c -1.92,0.27 -3.87,0.43 -5.59,0.43 -12.62,0 -24.45,-6.801 -24.45,-21.41 l 0,-46.9533 -11.49,0" /><path
           inkscape:connector-curvature="0"
           id="path88"
           style="fill:#231f20;fill-opacity:1;fill-rule:nonzero;stroke:none"
           d="m 1577.34,74.8203 c 12.82,0 22.74,8.2422 22.74,32.2307 0,23.941 -9.92,32.179 -22.74,32.179 -12.81,0 -22.81,-8.238 -22.81,-32.179 0,-23.9885 10,-32.2307 22.81,-32.2307 m 0,71.4097 c 22.39,0 34.96,-13.089 34.96,-39.179 0,-26.1408 -12.57,-39.301 -34.96,-39.301 -22.38,0 -35.04,13.1602 -35.04,39.301 0,26.09 12.66,39.179 35.04,39.179" /><path
           inkscape:connector-curvature="0"
           id="path90"
           style="fill:#231f20;fill-opacity:1;fill-rule:nonzero;stroke:none"
           d="m 1623.4,144.59 10.31,0 0,-10.469 0.43,0 c 5.66,8.32 15.63,12.109 25.94,12.109 15.54,0 26.05,-5.898 26.05,-20.078 l 0,-56.7223 -11.48,0 0,54.3713 c 0,10.32 -5.74,15.359 -17.38,15.359 -13.44,0 -22.39,-7.617 -22.39,-19.219 l 0,-50.5113 -11.48,0" /><path
           inkscape:connector-curvature="0"
           id="path92"
           style="fill:#231f20;fill-opacity:1;fill-rule:nonzero;stroke:none"
           d="m 1702.58,144.59 10.31,0 0,-10.469 0.31,0 c 5.78,8.32 15.75,12.109 26.06,12.109 15.47,0 25.97,-5.898 25.97,-20.078 l 0,-56.7223 -11.4,0 0,54.3713 c 0,10.32 -5.78,15.359 -17.46,15.359 -13.36,0 -22.39,-7.617 -22.39,-19.219 l 0,-50.5113 -11.4,0" /><path
           inkscape:connector-curvature="0"
           id="path94"
           style="fill:#231f20;fill-opacity:1;fill-rule:nonzero;stroke:none"
           d="m 1832.89,113.77 c -0.31,18.671 -7.38,25.46 -21.56,25.46 -14.14,0 -21.21,-6.789 -21.64,-25.46 l 43.2,0 z m 11.33,-19.4184 c -1.76,-15.9805 -13.6,-26.6016 -32.7,-26.6016 -21.4,0 -34.1,11.0195 -34.1,39.301 0,26.09 12.7,39.179 35.08,39.179 22.58,0 32.66,-11.41 32.66,-36.488 l 0,-3.051 -55.47,0 0,-3.589 c 0,-21.6411 10.31,-28.2817 21.64,-28.2817 12.03,0 19.49,6.3711 21.44,19.5313" /><path
           inkscape:connector-curvature="0"
           id="path96"
           style="fill:#231f20;fill-opacity:1;fill-rule:nonzero;stroke:none"
           d="m 1858.12,144.59 10.32,0 0,-10.469 0.43,0 c 5.35,8.32 14.53,12.109 25.82,12.109 12.26,0 19.69,-5.468 21.21,-13.089 l 0.43,0 c 4.53,8.32 12.77,13.089 25.82,13.089 14.1,0 23.47,-5.898 23.47,-19.339 l 0,-57.4613 -11.44,0 0,56.1723 c 0,8.949 -5.51,13.558 -15.86,13.558 -11.48,0 -20.7,-7.617 -20.7,-19.219 l 0,-50.5113 -11.49,0 0,56.1723 c 0,8.949 -5.47,13.558 -15.86,13.558 -11.44,0 -20.66,-7.617 -20.66,-19.219 l 0,-50.5113 -11.49,0" /><path
           inkscape:connector-curvature="0"
           id="path98"
           style="fill:#231f20;fill-opacity:1;fill-rule:nonzero;stroke:none"
           d="m 2034.06,113.77 c -0.35,18.671 -7.5,25.46 -21.64,25.46 -14.1,0 -21.17,-6.789 -21.6,-25.46 l 43.24,0 z m 11.29,-19.4184 C 2043.59,78.3711 2031.76,67.75 2012.66,67.75 c -21.41,0 -34.11,11.0195 -34.11,39.301 0,26.09 12.7,39.179 35.08,39.179 22.58,0 32.7,-11.41 32.7,-36.488 l 0,-3.051 -55.51,0 0,-3.589 c 0,-21.6411 10.35,-28.2817 21.6,-28.2817 12.07,0 19.57,6.3711 21.41,19.5313" /><path
           inkscape:connector-curvature="0"
           id="path100"
           style="fill:#231f20;fill-opacity:1;fill-rule:nonzero;stroke:none"
           d="m 2058.52,144.59 10.31,0 0,-10.469 0.43,0 c 5.74,8.32 15.62,12.109 25.94,12.109 15.5,0 26.05,-5.898 26.05,-20.078 l 0,-56.7223 -11.48,0 0,54.3713 c 0,10.32 -5.79,15.359 -17.39,15.359 -13.4,0 -22.38,-7.617 -22.38,-19.219 l 0,-50.5113 -11.48,0" /><path
           inkscape:connector-curvature="0"
           id="path102"
           style="fill:#231f20;fill-opacity:1;fill-rule:nonzero;stroke:none"
           d="m 2141.88,137.523 -13.99,0 0,7.067 13.99,0 0,20.781 11.44,0 0,-20.781 18.01,0 0,-7.067 -18.01,0 0,-53.9527 c 0,-5.8984 3.48,-7.8906 10.94,-7.8906 2.3,0 4.57,0.2305 7.07,0.8633 l 0,-7.1133 c -1.41,-0.5469 -4.22,-0.8594 -8.05,-0.8594 -15.51,0 -21.4,3.1211 -21.4,13.1602" /><path
           inkscape:connector-curvature="0"
           id="path104"
           style="fill:#80d6f7;fill-opacity:1;fill-rule:nonzero;stroke:none"
           d="m 764.141,2215.52 c 0,0 4.961,2.5 14.41,7.19 9.418,4.49 23.051,11.8 40.711,19.81 8.859,4.1 18.707,8.67 29.367,13.59 11.172,4.06 23.562,7.81 36.762,12.19 13.32,4.29 27.539,8.86 42.461,13.63 7.539,2.85 15.386,4.18 23.437,5.7 8.012,1.53 16.211,3.09 24.57,4.77 16.911,3.24 34.571,6.56 52.691,10.04 18.44,1.64 37.62,2.77 57.39,4.22 9.8,0.7 19.88,1.4 30.04,2.07 10.11,0.35 20.35,-0.39 30.74,-0.55 20.86,-0.35 42.11,-1.88 63.79,-2.89 21.4,-3.13 43.24,-6.41 65.31,-9.57 11.06,-2.03 22.38,-2.66 33.24,-5.82 10.9,-2.97 21.92,-5.94 32.93,-8.95 44.61,-10.19 87.46,-28.32 130.98,-44.61 41.21,-21.44 83.32,-41.13 120.78,-67.54 9.57,-6.13 19.1,-12.38 28.55,-18.51 9.69,-5.9 17.78,-13.95 26.61,-20.78 17.14,-14.3 34.1,-28.28 50.82,-42.11 15.31,-15.39 30.58,-30.28 44.8,-45.47 7.07,-7.62 14.45,-14.81 21.02,-22.58 6.29,-7.93 12.46,-15.86 18.51,-23.67 12.15,-15.66 24.22,-30.55 35.2,-45.39 9.65,-15.82 18.9,-31.17 27.85,-45.9 4.45,-7.27 8.71,-14.49 12.97,-21.48 4.22,-7 8.44,-13.72 11.33,-21.06 6.4,-14.18 12.42,-27.69 18.08,-40.27 5.63,-12.7 11.02,-24.34 15.51,-35.35 3.63,-11.37 6.88,-21.88 9.8,-31.37 5.98,-18.79 9.73,-33.79 12.7,-43.87 2.85,-10.04 4.34,-15.43 4.34,-15.43 l -4.73,-1.79 c 0,0 -9.02,20.15 -24.73,55.35 -3.94,8.79 -8.32,18.55 -13.08,29.14 -5.82,10.11 -12.07,20.97 -18.75,32.61 -6.72,11.65 -13.79,24.03 -21.37,37.15 -7.19,13.21 -17.58,25.39 -26.8,39.07 -9.68,13.43 -19.72,27.34 -30.11,41.79 -11.8,13.4 -23.91,27.23 -36.45,41.45 -6.21,7.11 -12.54,14.33 -18.98,21.6 -6.64,7.07 -14.11,13.52 -21.33,20.35 -14.46,13.59 -29.38,27.42 -44.42,41.49 -33.16,24.68 -65.35,52.89 -103.16,74.33 -35.82,24.53 -76.21,42.46 -115.43,62.42 -40.98,15.78 -81.37,33.71 -123.52,43.91 -41.25,13.79 -83.82,18.83 -124.25,26.99 -20.59,1.84 -40.82,3.56 -60.63,5.27 -9.92,0.71 -19.69,2 -29.37,2.23 -9.69,-0.15 -19.26,-0.23 -28.75,-0.35 -18.95,-0.2 -37.31,-0.51 -55.2,-0.62 -17.66,-2 -34.76,-3.87 -51.171,-5.67 -16.328,-2.23 -32.339,-2.69 -47.031,-6.17 -14.687,-3.2 -28.598,-6.17 -41.758,-8.95 -13.121,-2.85 -25.351,-5.47 -36.718,-7.89 -11.172,-3.59 -21.332,-6.87 -30.551,-9.84 -36.832,-11.84 -57.852,-18.71 -57.852,-18.71" /><path
           inkscape:connector-curvature="0"
           id="path106"
           style="fill:#80d6f7;fill-opacity:1;fill-rule:nonzero;stroke:none"
           d="m 519.02,669.23 c 0,0 -4.719,3.133 -13.43,8.872 -8.602,5.898 -21.68,14.058 -37.539,25.429 -7.973,5.59 -16.762,11.84 -26.492,18.559 -9.059,7.691 -18.469,16.562 -28.86,25.82 -10.398,9.371 -21.488,19.371 -33.09,29.922 -6.168,5.121 -11.328,11.25 -16.558,17.379 -5.43,6.25 -10.903,12.539 -16.531,18.98 -11.211,13.012 -22.891,26.61 -35,40.672 -10.7,15.117 -21.211,31.168 -32.34,47.457 -5.508,8.243 -11.129,16.52 -16.801,25.043 -5.391,8.59 -9.879,17.809 -14.957,26.867 -10.121,18.25 -19.371,37.43 -29.371,56.68 -7.93,20.16 -16.063,40.67 -24.301,61.45 -3.871,10.43 -8.949,20.62 -11.641,31.64 -2.808,10.94 -5.82,21.87 -8.711,32.97 -13.437,43.79 -19.257,89.88 -26.878,135.74 -1.95,46.41 -6.008,92.74 -1.95,138.32 0.629,11.45 1.25,22.77 1.801,34.02 0.348,11.37 3.277,22.35 4.801,33.44 3.668,21.96 7.418,43.71 11.019,65.12 5.661,20.9 10.86,41.56 16.95,61.48 3.129,9.93 5.55,19.89 9.019,29.46 3.789,9.41 7.539,18.75 11.219,27.97 7.461,18.28 14.41,36.17 21.793,53.12 8.867,16.29 17.539,32.03 25.777,47.03 4.141,7.5 8.172,14.81 12.11,21.95 3.953,7.23 7.621,14.22 12.543,20.4 9.136,12.65 17.808,24.57 25.898,35.85 8.199,11.14 15.551,21.68 22.809,31.1 8.089,8.71 15.589,16.83 22.312,24.1 13.277,14.61 24.449,25.43 31.641,32.97 7.34,7.5 11.207,11.44 11.207,11.44 l 3.871,-3.12 c 0,0 -12.86,-17.89 -35.59,-49.18 -5.629,-7.81 -11.84,-16.49 -18.629,-25.9 -5.859,-10.04 -12.191,-20.94 -18.91,-32.58 -6.723,-11.64 -13.91,-23.94 -21.481,-36.95 -7.82,-12.89 -13.25,-27.93 -20.351,-42.81 -6.801,-15.04 -13.91,-30.78 -21.18,-47.03 -5.777,-16.84 -11.679,-34.3 -17.73,-52.23 -3.008,-8.99 -6.09,-18.09 -9.219,-27.23 -2.77,-9.33 -4.57,-19.06 -6.949,-28.67 -4.5,-19.3 -9.071,-39.14 -13.75,-59.22 -4.731,-41.01 -13.051,-83.04 -12.699,-126.48 -3.321,-43.36 1.25,-87.27 3.597,-131.17 6.871,-43.44 11.52,-87.35 23.75,-128.95 8.672,-42.62 25.582,-82.03 38.75,-121.09 8.781,-18.75 17.34,-37.108 25.742,-55.12 4.289,-8.949 8.118,-18.008 12.77,-26.52 4.961,-8.398 9.879,-16.64 14.648,-24.73 9.731,-16.289 19.063,-32.148 28.2,-47.539 10.511,-14.301 20.711,-28.16 30.472,-41.481 10.117,-13.089 18.481,-26.679 28.828,-37.617 10.121,-11.133 19.653,-21.722 28.672,-31.722 8.989,-9.961 17.379,-19.258 25.199,-27.809 8.668,-7.93 16.559,-15.121 23.75,-21.562 28.711,-25.977 45.11,-40.79 45.11,-40.79" /><path
           inkscape:connector-curvature="0"
           id="path108"
           style="fill:#80d6f7;fill-opacity:1;fill-rule:nonzero;stroke:none"
           d="m 1980.7,1230.05 c 0,0 -0.31,-5.54 -1.01,-16.01 -0.78,-10.43 -1.33,-25.82 -3.21,-45.2 -0.89,-9.72 -1.79,-20.5 -2.81,-32.22 -2.15,-11.72 -5.08,-24.3 -7.89,-37.97 -3.01,-13.63 -6.13,-28.24 -9.45,-43.63 -1.29,-7.9 -4.06,-15.32 -6.76,-23.05 -2.66,-7.7 -5.43,-15.59 -8.2,-23.71 -5.67,-16.248 -11.57,-33.17 -17.66,-50.67 -7.73,-16.75 -16.33,-33.899 -25,-51.75 -4.37,-8.867 -8.71,-17.887 -13.24,-27 -4.77,-8.938 -10.51,-17.539 -15.86,-26.477 -10.74,-17.812 -22.66,-35.472 -34.34,-53.75 -13.51,-16.953 -27.15,-34.261 -41.01,-51.722 -7.19,-8.59 -13.44,-18.09 -21.68,-25.938 -7.97,-7.93 -16.06,-15.973 -24.1,-24.023 -31.18,-33.52 -68.28,-61.637 -104.14,-91.129 -39.22,-24.891 -77.35,-51.528 -118.87,-70.86 -10.2,-5.121 -20.31,-10.32 -30.35,-15.429 -9.96,-5.352 -20.9,-8.399 -31.29,-12.621 -20.94,-7.731 -41.56,-15.43 -61.95,-23.008 -20.98,-5.512 -41.41,-11.332 -61.72,-16.051 -10.16,-2.309 -20,-5.121 -30.04,-6.961 -10.04,-1.359 -20,-2.808 -29.77,-4.211 -19.61,-2.617 -38.59,-5.59 -56.95,-7.777 -18.56,-0.391 -36.41,-0.742 -53.6,-1.133 -8.59,-0.16 -16.91,-0.309 -25.07,-0.43 -8.17,-0.199 -16.14,-0.507 -23.99,0.703 -15.43,1.598 -30.19,3.047 -43.94,4.5 -13.75,1.438 -26.53,2.528 -38.32,4.137 -11.64,2.653 -22.39,5.07 -32.07,7.223 -19.262,4.219 -34.14,8.519 -44.34,10.937 -10.121,2.621 -15.511,4.02 -15.511,4.02 l 0.781,4.933 c 0,0 21.922,-2.23 60.32,-6.25 9.61,-0.98 20.23,-2.043 31.79,-3.171 11.64,-0.079 24.18,-0.079 37.62,-0.079 13.4,-0.082 27.77,-0.082 42.81,-0.152 15.08,-0.348 30.78,2.57 47.23,3.75 16.44,1.68 33.59,3.402 51.33,5.109 17.46,3.563 35.51,7.153 54.06,10.903 9.3,1.758 18.71,3.707 28.2,5.59 9.5,2.218 18.75,5.55 28.28,8.32 19.03,5.738 38.4,11.719 58.17,17.73 37.89,16.329 78.47,30.118 115.94,52.227 39.14,18.75 74.88,44.691 111.71,68.711 34.22,27.621 69.97,53.559 99.89,85.039 32.54,28.832 58.16,63.121 85.47,94.063 11.83,16.957 23.47,33.597 34.84,49.847 5.59,8.203 11.56,16.09 16.6,24.332 4.81,8.438 9.49,16.84 14.14,25.078 9.22,16.563 18.21,32.621 26.96,48.133 7.18,16.277 14.1,32.067 20.78,47.137 6.21,15.36 13.82,29.42 18.12,43.79 4.57,14.34 9.02,27.93 13.09,40.67 4.18,12.73 7.97,24.72 11.56,35.74 2.5,11.4 4.73,21.87 6.8,31.37 8.12,37.81 12.73,59.49 12.73,59.49" /><path
           inkscape:connector-curvature="0"
           id="path110"
           style="fill:#cceffc;fill-opacity:1;fill-rule:nonzero;stroke:none"
           d="m 418.52,1656.15 c 0,0 -0.282,5 0,14.06 0.539,8.98 0.269,22.66 2.14,39.02 0.75,8.21 1.61,17.27 2.5,27.27 1.879,10.23 4.961,20.9 7.969,32.89 3.051,11.91 7.031,24.3 11.141,37.89 4.101,13.79 10.582,25.55 16.359,39.53 6.141,13.67 13.09,27.58 20.281,42.19 8.391,13.71 17.649,27.58 27.141,42.11 4.73,7.26 9.847,14.41 14.969,21.68 5.39,7.07 11.441,13.63 17.339,20.66 11.602,14.07 24.61,27.42 37.5,41.57 13.871,12.85 28.75,25.27 43.789,37.85 7.692,6.17 14.883,13.24 23.204,18.59 8.398,5.39 16.679,10.86 25.078,16.33 32.808,23.55 70.66,39.65 107.582,57.3 38.75,12.93 77.148,27.46 117.109,33.32 9.84,1.84 19.68,3.71 29.41,5.51 9.731,1.99 19.77,1.95 29.528,2.85 19.613,1.37 38.91,2.78 57.821,3.05 19.1,-1.09 37.77,-1.8 55.89,-3.83 9.03,-0.9 17.93,-1.44 26.72,-2.81 8.75,-1.6 17.42,-3.28 25.86,-5.2 16.88,-3.98 33.17,-7.26 48.67,-11.44 15.39,-5.47 30.08,-10.59 43.95,-16.21 13.71,-6.02 27.07,-10.04 38.91,-17.03 11.91,-6.8 23.12,-12.74 33.32,-19.14 10.23,-6.37 19.72,-11.84 28.2,-17.86 8.01,-6.64 15.43,-12.73 22.15,-18.28 13.28,-10.58 22.69,-20.7 29.37,-26.72 6.49,-6.4 9.77,-10.11 9.77,-10.11 l -4.92,-11.57 c 0,0 -16.65,5.67 -45.67,15.59 -7.26,2.46 -15.27,5.2 -24.02,8.16 -8.99,2.08 -18.71,4.38 -29.1,6.8 -10.39,2.35 -21.41,4.92 -33.01,7.62 -11.56,2.97 -24.18,3.79 -37.15,5.94 -12.93,1.87 -26.44,3.75 -40.35,5.74 -14.14,0.62 -28.67,1.25 -43.71,1.87 -7.5,0.35 -15.04,0.63 -22.74,0.98 -7.69,0.08 -15.43,-0.66 -23.28,-1.05 -15.7,-0.9 -31.79,-1.72 -48.04,-2.62 -32.231,-5.55 -66.02,-8.44 -98.911,-18.36 -33.668,-6.99 -65.937,-20.2 -98.789,-31.72 -31.48,-14.61 -63.98,-27.42 -93.09,-45.78 -30.539,-15.78 -56.832,-37.11 -83.859,-55.55 -12.352,-10.66 -24.5,-21.21 -36.371,-31.44 -5.86,-5.28 -12.032,-10.04 -17.539,-15.43 -5.231,-5.55 -10.512,-11.1 -15.621,-16.49 -10.399,-10.9 -20.43,-21.48 -30.161,-31.68 -8.629,-11.13 -16.988,-21.87 -25.039,-32.18 -7.851,-10.55 -16.371,-19.97 -22.5,-30.08 -6.519,-9.89 -12.621,-19.38 -18.359,-28.25 -5.82,-8.94 -11.25,-17.26 -16.211,-24.96 -4.301,-8.28 -8.16,-15.89 -11.719,-22.77 -14.101,-27.54 -22.23,-43.36 -22.23,-43.36" /><path
           inkscape:connector-curvature="0"
           id="path112"
           style="fill:#176fc1;fill-opacity:1;fill-rule:nonzero;stroke:none"
           d="m 1176.25,649.621 c 0,0 -4.22,-2.73 -12.19,-7.07 -8.04,-3.981 -19.76,-11.051 -34.76,-17.649 -7.58,-3.441 -15.9,-7.269 -24.96,-11.41 -9.77,-3.551 -20.63,-6.172 -32.46,-9.57 -11.84,-3.32 -24.61,-6.012 -38.44,-9.301 -13.95,-3.348 -27.42,-3.668 -42.42,-5.66 -14.809,-1.438 -30.399,-2.418 -46.68,-3.438 -16.059,0.317 -32.699,1.528 -50,2.457 -8.641,0.36 -17.391,1.25 -26.328,2.071 -8.793,1.14 -17.5,3.051 -26.453,4.652 -18.008,3.047 -36.09,7.699 -54.719,11.758 -18.129,5.512 -36.289,12.312 -54.77,18.949 -9.14,3.59 -18.871,6.281 -27.66,10.863 -8.859,4.489 -17.769,9.02 -26.711,13.59 -36.801,16.52 -69.609,41.289 -103.359,64.367 -30.629,27.192 -62.391,53.133 -87.391,84.852 -6.597,7.578 -13.078,15.109 -19.527,22.648 -6.602,7.43 -11.602,16.223 -17.262,24.18 -11.019,16.293 -21.801,32.352 -31.57,48.563 -8.551,17.109 -17.262,33.59 -24.61,50.269 -3.75,8.321 -7.691,16.289 -10.929,24.61 -2.973,8.398 -5.903,16.679 -8.403,25 -5.039,16.558 -10.308,32.338 -14.449,47.848 -2.898,16.1 -5.82,31.37 -7.898,46.14 -1.68,14.88 -4.84,28.47 -4.723,42.26 -0.078,13.63 -0.547,26.37 -0.078,38.44 0.43,11.99 0.352,23.01 1.41,33.32 1.711,10.23 3.238,19.73 4.719,28.32 2.543,16.84 6.57,30.08 8.519,38.79 2.192,8.87 3.793,13.51 3.793,13.51 l 12.457,1.49 c 0,0 3.403,-17.15 9.332,-47.31 1.489,-7.54 3.129,-15.78 4.93,-24.84 2.731,-8.87 5.621,-18.44 8.75,-28.59 3.121,-10.2 6.36,-21.02 9.84,-32.5 3.238,-11.49 8.871,-22.78 13.441,-35.04 4.918,-12.19 9.957,-24.81 15.231,-37.89 6.488,-12.54 13.277,-25.43 20.238,-38.71 3.43,-6.64 6.91,-13.44 10.5,-20.24 3.75,-6.64 8.32,-13.01 12.539,-19.647 8.602,-13.16 17.391,-26.601 26.332,-40.273 20.821,-25.157 40.309,-52.887 65.309,-76.52 22.93,-25.629 50.551,-46.957 76.879,-69.687 28.402,-20 55.742,-41.602 86.172,-57.7 28.949,-18.55 60.589,-30.66 90.039,-44.882 15.429,-5.309 30.59,-10.59 45.429,-15.7 7.461,-2.5 14.731,-5.39 22.153,-7.461 7.418,-1.839 14.84,-3.64 22.109,-5.359 14.609,-3.508 28.75,-6.949 42.539,-10.191 13.899,-1.989 27.418,-3.867 40.35,-5.66 12.97,-1.528 25.43,-4.18 37.26,-4.54 11.88,-0.617 23.09,-1.167 33.68,-1.71 10.58,-0.547 20.5,-1.098 29.72,-1.528 9.26,0.43 17.85,0.86 25.63,1.168 30.86,1.61 48.51,2.5 48.51,2.5" /><path
           inkscape:connector-curvature="0"
           id="path114"
           style="fill:#80cc28;fill-opacity:1;fill-rule:nonzero;stroke:none"
           d="m 1669.02,1809.08 c 0,0 4.53,-2.27 12.27,-7.07 7.5,-4.89 19.45,-11.49 32.62,-21.25 6.79,-4.81 14.29,-10.12 22.38,-15.86 7.97,-6.72 15.74,-14.85 24.53,-23.36 8.79,-8.59 17.58,-18.28 27.27,-28.59 9.84,-10.4 16.83,-21.96 26.13,-33.95 8.63,-12.11 17.3,-25.08 26.33,-38.71 7.73,-14.06 15.04,-29.02 22.85,-44.53 4.02,-7.7 7.62,-15.67 11.37,-23.83 3.35,-8.16 6.09,-16.68 9.18,-25.2 6.4,-17.11 11.44,-35.11 17.18,-53.36 4.3,-18.39 7.54,-37.53 10.94,-56.83 1.52,-9.73 4.02,-19.49 4.49,-29.38 0.51,-9.92 1.06,-19.88 1.6,-29.92 4.03,-40.27 -0.97,-80.97 -4.14,-121.68 -8.16,-40.11 -14.76,-80.62 -29.72,-118.16 -3.32,-9.45 -6.57,-18.95 -9.89,-28.28 -3.12,-9.42 -8.28,-18.09 -12.34,-27.03 -8.59,-17.66 -17.11,-35.04 -26.25,-51.61 -10.51,-15.89 -20.43,-31.75 -31.21,-46.437 -5.35,-7.352 -10.27,-14.852 -15.82,-21.762 -5.74,-6.801 -11.56,-13.441 -17.46,-19.73 -11.84,-12.688 -22.89,-25.149 -34.26,-36.52 -12.42,-10.578 -24.18,-20.699 -35.98,-29.918 -12.11,-8.871 -22.22,-18.402 -34.21,-25.203 -11.84,-6.828 -22.62,-13.59 -33.25,-19.25 -10.66,-5.707 -20.15,-11.18 -29.57,-15.469 -9.76,-3.671 -18.75,-6.961 -26.87,-10 -15.86,-6.25 -29.38,-9.378 -37.89,-12.07 -8.71,-2.5 -13.56,-3.48 -13.56,-3.48 l -7.62,10.039 c 0,0 13.25,11.601 36.33,31.722 5.78,5.078 12.15,10.7 19.07,16.789 6.32,6.719 13.16,14.071 20.43,21.801 7.3,7.778 15.03,16.059 23.16,24.809 8.36,8.512 15.43,19.062 23.67,29.062 8.13,10.348 16.49,21.09 25.2,32.227 7.57,11.91 15.39,24.25 23.43,36.832 3.99,6.328 8.09,12.738 12.27,19.218 3.87,6.64 7.03,13.75 10.74,20.78 7.03,13.99 14.3,28.32 21.72,42.85 11.37,30.63 25.7,61.37 33.59,94.81 10.75,32.61 15.39,67.26 21.88,101.4 3.12,34.65 8.2,69.18 6.87,103.48 1.64,34.38 -3.67,67.81 -6.17,100.43 -3.04,16.02 -6.09,31.8 -9.06,47.23 -1.52,7.69 -2.7,15.47 -4.57,22.89 -2.23,7.38 -4.38,14.65 -6.45,21.87 -4.21,14.34 -8.35,28.32 -12.38,41.92 -5.27,13 -10.39,25.7 -15.31,37.81 -5.2,11.95 -9.14,24.02 -14.77,34.49 -5.39,10.59 -10.54,20.55 -15.31,29.96 -4.84,9.53 -9.34,18.4 -13.48,26.56 -5.07,7.82 -9.72,15 -13.94,21.53 -16.76,26.05 -26.41,40.94 -26.41,40.94" /><path
           inkscape:connector-curvature="0"
           id="path116"
           style="fill:#231f20;fill-opacity:1;fill-rule:nonzero;stroke:none"
           d="m 1091.17,807.711 c 0,0 -10.51,0.312 -30.19,1.019 -9.81,0.743 -22.03,0 -36.29,2.141 -14.26,1.961 -30.741,4.219 -49.178,6.719 -17.934,4.5 -38.09,8.75 -59.614,14.812 -10.546,3.668 -21.558,7.5 -33.007,11.52 -5.661,2.07 -11.563,3.949 -17.34,6.211 -5.711,2.66 -11.449,5.277 -17.352,8.047 -47.769,20.082 -97.847,51.871 -145.969,93.98 -48.089,42.192 -93.519,96.21 -128.48,161.33 -35.16,64.81 -58.828,140.78 -65.98,221.33 -0.622,10.16 -1.211,20.23 -1.829,30.43 l -0.98,15.31 0.551,15.71 c 0.429,10.07 0.738,20.11 1.168,30.15 l 0.699,15.16 2.152,15.66 c 3.168,20.82 4.957,42.31 10.86,62.54 l 7.621,30.82 c 2.418,10.39 6.718,20.16 10.039,30.27 28,80.55 74.449,156.25 135.07,218.79 61.02,62.11 135.859,110.82 216.649,141.1 80.351,30.66 167.77,41.68 248.35,35.86 82.97,-7 160.86,-30.39 227,-66.49 66.48,-35.66 121.48,-82.42 163.94,-131.95 42.54,-49.45 73.32,-101.41 93.01,-150.16 2.62,-6.01 5.2,-11.91 7.77,-17.73 2.19,-5.94 4.03,-11.95 5.94,-17.74 3.83,-11.64 7.5,-22.85 10.94,-33.63 5.55,-21.95 9.1,-42.5 12.97,-60.78 1.95,-18.55 3.67,-35.08 5.11,-49.57 1.68,-14.34 0.47,-26.72 0.71,-36.64 -0.28,-19.88 -0.35,-30.47 -0.35,-30.47 l -5.08,0 c 0,0 -1.13,10.47 -3.36,30 -1.52,9.69 -1.6,21.8 -4.57,35.66 -2.85,13.87 -6.1,29.69 -9.77,47.5 -5.54,17.35 -11.01,36.65 -18.16,57.07 -4.1,10.04 -8.4,20.51 -12.81,31.37 -2.23,5.43 -4.3,11.02 -6.8,16.53 -2.81,5.31 -5.74,10.78 -8.63,16.32 -21.57,45.08 -55.08,91.14 -96.72,135.36 -42.03,43.82 -94.61,84.76 -156.56,115.7 -61.92,30.62 -132.86,52.3 -207.19,57.34 -76.45,6.72 -154.381,-2.38 -229.729,-28.12 -74.961,-25.67 -145.66,-68.67 -204.261,-124.92 -57.692,-57.08 -102.93,-126.96 -130.899,-202.11 -3.32,-9.5 -7.691,-18.56 -10.109,-28.25 l -7.852,-28.9 c -6.058,-19.18 -7.969,-38.56 -11.41,-57.7 l -2.422,-14.41 -1.058,-15.08 c -0.622,-10.04 -1.25,-20.08 -1.872,-30.08 l -0.82,-14.18 0.621,-14.49 c 0.352,-9.69 0.75,-19.34 1.141,-28.95 4.879,-76.75 26.281,-149.53 57.93,-212.77 31.679,-63.36 73.82,-116.91 119.21,-159.139 45.508,-42.188 93.36,-74.688 139.5,-95.738 5.661,-2.852 11.211,-5.672 16.68,-8.36 5.699,-2.422 11.36,-4.453 16.91,-6.601 11.02,-4.301 21.68,-8.36 31.989,-12.352 20.941,-6.48 40.589,-11.289 58.211,-16.25 17.929,-3.039 33.98,-5.699 47.93,-8.039 13.98,-2.539 26.28,-2.23 36.05,-3.211 19.69,-1.289 30.2,-1.988 30.2,-1.988" /><path
           inkscape:connector-curvature="0"
           id="path118"
           style="fill:#231f20;fill-opacity:1;fill-rule:nonzero;stroke:none"
           d="m 1234.06,1546.15 205.59,0 0,-23.87 -168.36,0 0,-115.19 157.26,0 0,-23.91 -157.26,0 0,-129.38 173.55,0 0,-23.9 -210.78,0" /><path
           inkscape:connector-curvature="0"
           id="path120"
           style="fill:#231f20;fill-opacity:1;fill-rule:nonzero;stroke:none"
           d="m 1175.82,1231.58 -21.95,0 -4.03,58.24 -0.97,0 c -21.53,-45.7 -64.53,-65.04 -110.82,-65.04 -100.98,0 -151.171,79.45 -151.171,166.99 0,87.5 50.191,166.92 151.171,166.92 67.34,0 122.07,-36.33 133.75,-106.37 l -30.55,0 c -4.02,36.8 -42.15,80.35 -103.2,80.35 -84.851,0 -120.71,-70.94 -120.71,-140.9 0,-70 35.859,-140.93 120.71,-140.93 70.93,0 112.22,49.88 110.82,117.61 l -109.03,0 0,26.06 135.98,0" /><path
           inkscape:connector-curvature="0"
           id="path122"
           style="fill:#231f20;fill-opacity:1;fill-rule:nonzero;stroke:none"
           d="m 798.09,1231.58 30.5508,0 0,320.309 -30.5508,0 0,-320.309 z" /></g></g></g></svg>